<svg width="369" height="241" viewBox="0 0 369 241" fill="none" xmlns="http://www.w3.org/2000/svg">
<path d="M39.9033 123.237C39.4661 123.237 39.0619 123.138 38.6909 122.939C38.3332 122.727 38.0483 122.442 37.8363 122.084C37.6242 121.727 37.5182 121.329 37.5182 120.892C37.5182 120.441 37.6242 120.037 37.8363 119.68C38.0483 119.322 38.3332 119.043 38.6909 118.845C39.0487 118.633 39.4528 118.527 39.9033 118.527C40.3539 118.527 40.758 118.633 41.1158 118.845C41.4868 119.043 41.7717 119.322 41.9704 119.68C42.1824 120.037 42.2884 120.441 42.2884 120.892C42.2884 121.342 42.1824 121.747 41.9704 122.104C41.7584 122.462 41.4669 122.74 41.0959 122.939C40.7381 123.138 40.3406 123.237 39.9033 123.237ZM56.0261 126V123.973L62.2075 117.871V117.652H56.2248V116.281H63.8571V118.308L57.6559 124.41V124.648H64.0161V126H56.0261ZM70.8922 126.278C69.9117 126.278 69.0504 126.073 68.3084 125.662C67.5664 125.238 66.99 124.648 66.5792 123.893C66.1684 123.138 65.963 122.263 65.963 121.27V121.031C65.963 120.024 66.1684 119.143 66.5792 118.388C66.99 117.632 67.5597 117.049 68.2885 116.639C69.0173 116.214 69.8521 116.002 70.7929 116.002C71.7071 116.002 72.5154 116.201 73.2177 116.599C73.92 116.983 74.4699 117.54 74.8674 118.268C75.2649 118.997 75.4637 119.852 75.4637 120.832V121.548H67.5332C67.573 122.595 67.9109 123.416 68.5469 124.012C69.1829 124.595 69.978 124.887 70.932 124.887C71.7668 124.887 72.4094 124.695 72.8599 124.311C73.3105 123.926 73.655 123.469 73.8935 122.939L75.245 123.595C75.0463 124.006 74.768 124.417 74.4103 124.827C74.0657 125.238 73.6086 125.583 73.0388 125.861C72.4823 126.139 71.7668 126.278 70.8922 126.278ZM67.5531 120.256H73.8736C73.8206 119.355 73.5092 118.653 72.9394 118.149C72.3829 117.646 71.6674 117.394 70.7929 117.394C69.9051 117.394 69.1763 117.646 68.6065 118.149C68.0368 118.653 67.6856 119.355 67.5531 120.256ZM78.2025 126V116.281H79.7329V117.473H80.0112C80.1834 117.049 80.4484 116.738 80.8062 116.539C81.164 116.34 81.6344 116.241 82.2174 116.241H83.3702V117.672H82.118C81.4157 117.672 80.846 117.871 80.4087 118.268C79.9847 118.653 79.7727 119.255 79.7727 120.077V126H78.2025ZM89.8373 126.278C88.8567 126.278 87.9888 126.073 87.2335 125.662C86.4915 125.251 85.9085 124.675 85.4845 123.933C85.0737 123.178 84.8683 122.29 84.8683 121.27V121.011C84.8683 120.004 85.0737 119.123 85.4845 118.368C85.9085 117.612 86.4915 117.029 87.2335 116.619C87.9888 116.208 88.8567 116.002 89.8373 116.002C90.8178 116.002 91.6791 116.208 92.4211 116.619C93.1764 117.029 93.7594 117.612 94.1702 118.368C94.5942 119.123 94.8062 120.004 94.8062 121.011V121.27C94.8062 122.29 94.5942 123.178 94.1702 123.933C93.7594 124.675 93.1764 125.251 92.4211 125.662C91.6791 126.073 90.8178 126.278 89.8373 126.278ZM89.8373 124.867C90.8708 124.867 91.6923 124.542 92.3019 123.893C92.9246 123.231 93.236 122.343 93.236 121.23V121.051C93.236 119.938 92.9246 119.057 92.3019 118.407C91.6923 117.745 90.8708 117.414 89.8373 117.414C88.817 117.414 87.9954 117.745 87.3727 118.407C86.7499 119.057 86.4385 119.938 86.4385 121.051V121.23C86.4385 122.343 86.7499 123.231 87.3727 123.893C87.9954 124.542 88.817 124.867 89.8373 124.867ZM106.652 126.278C105.446 126.278 104.426 126 103.591 125.443C102.77 124.887 102.273 124.006 102.101 122.8L103.591 122.462C103.697 123.098 103.896 123.602 104.188 123.973C104.479 124.33 104.837 124.589 105.261 124.748C105.698 124.894 106.162 124.966 106.652 124.966C107.381 124.966 107.957 124.821 108.381 124.529C108.805 124.238 109.017 123.847 109.017 123.357C109.017 122.853 108.812 122.502 108.401 122.303C108.004 122.091 107.454 121.919 106.752 121.786L105.937 121.647C105.314 121.541 104.744 121.376 104.227 121.15C103.711 120.925 103.3 120.62 102.995 120.236C102.69 119.852 102.538 119.368 102.538 118.785C102.538 117.911 102.876 117.228 103.552 116.738C104.227 116.248 105.122 116.002 106.235 116.002C107.335 116.002 108.222 116.254 108.898 116.758C109.587 117.248 110.031 117.944 110.23 118.845L108.759 119.222C108.64 118.52 108.355 118.03 107.904 117.752C107.454 117.46 106.897 117.314 106.235 117.314C105.572 117.314 105.049 117.44 104.665 117.692C104.28 117.93 104.088 118.288 104.088 118.765C104.088 119.229 104.267 119.573 104.625 119.799C104.996 120.011 105.486 120.17 106.096 120.276L106.911 120.415C107.6 120.534 108.216 120.7 108.759 120.912C109.316 121.111 109.753 121.402 110.071 121.786C110.402 122.171 110.568 122.674 110.568 123.297C110.568 124.251 110.21 124.986 109.494 125.503C108.792 126.02 107.845 126.278 106.652 126.278ZM117.67 126.278C116.69 126.278 115.828 126.073 115.086 125.662C114.344 125.238 113.768 124.648 113.357 123.893C112.946 123.138 112.741 122.263 112.741 121.27V121.031C112.741 120.024 112.946 119.143 113.357 118.388C113.768 117.632 114.338 117.049 115.066 116.639C115.795 116.214 116.63 116.002 117.571 116.002C118.485 116.002 119.293 116.201 119.996 116.599C120.698 116.983 121.248 117.54 121.645 118.268C122.043 118.997 122.242 119.852 122.242 120.832V121.548H114.311C114.351 122.595 114.689 123.416 115.325 124.012C115.961 124.595 116.756 124.887 117.71 124.887C118.545 124.887 119.187 124.695 119.638 124.311C120.088 123.926 120.433 123.469 120.671 122.939L122.023 123.595C121.824 124.006 121.546 124.417 121.188 124.827C120.844 125.238 120.387 125.583 119.817 125.861C119.26 126.139 118.545 126.278 117.67 126.278ZM114.331 120.256H120.652C120.599 119.355 120.287 118.653 119.717 118.149C119.161 117.646 118.445 117.394 117.571 117.394C116.683 117.394 115.954 117.646 115.384 118.149C114.815 118.653 114.464 119.355 114.331 120.256ZM128.15 126C127.594 126 127.163 125.848 126.859 125.543C126.567 125.238 126.421 124.821 126.421 124.291V117.652H123.5V116.281H126.421V112.822H127.991V116.281H131.172V117.652H127.991V124.052C127.991 124.45 128.184 124.648 128.568 124.648H130.734V126H128.15ZM137.432 126.179C136.729 126.179 136.08 126.027 135.484 125.722C134.901 125.417 134.437 124.966 134.093 124.37C133.761 123.761 133.596 123.025 133.596 122.164V116.281H135.166V122.045C135.166 123.012 135.404 123.714 135.881 124.152C136.372 124.589 137.028 124.807 137.849 124.807C138.777 124.807 139.539 124.503 140.135 123.893C140.731 123.284 141.029 122.376 141.029 121.17V116.281H142.599V126H141.069V124.35H140.791C140.579 124.814 140.214 125.238 139.698 125.622C139.181 125.993 138.425 126.179 137.432 126.179ZM145.885 129.975V116.281H147.415V117.891H147.694C147.945 117.4 148.35 116.963 148.906 116.579C149.476 116.195 150.264 116.002 151.271 116.002C152.106 116.002 152.868 116.208 153.557 116.619C154.259 117.016 154.816 117.586 155.227 118.328C155.651 119.07 155.863 119.964 155.863 121.011V121.27C155.863 122.303 155.657 123.198 155.246 123.953C154.836 124.708 154.279 125.284 153.577 125.682C152.888 126.08 152.119 126.278 151.271 126.278C150.595 126.278 150.019 126.186 149.542 126C149.078 125.828 148.701 125.602 148.409 125.324C148.118 125.046 147.892 124.761 147.733 124.47H147.455V129.975H145.885ZM150.854 124.887C151.861 124.887 152.676 124.569 153.299 123.933C153.935 123.284 154.253 122.383 154.253 121.23V121.051C154.253 119.898 153.935 119.004 153.299 118.368C152.676 117.718 151.861 117.394 150.854 117.394C149.86 117.394 149.039 117.718 148.389 118.368C147.753 119.004 147.435 119.898 147.435 121.051V121.23C147.435 122.383 147.753 123.284 148.389 123.933C149.039 124.569 149.86 124.887 150.854 124.887ZM168.253 126.278C167.312 126.278 166.464 126.08 165.709 125.682C164.967 125.271 164.377 124.688 163.94 123.933C163.516 123.178 163.304 122.283 163.304 121.25V121.031C163.304 119.984 163.516 119.09 163.94 118.348C164.377 117.593 164.967 117.016 165.709 116.619C166.464 116.208 167.312 116.002 168.253 116.002C169.18 116.002 169.969 116.175 170.618 116.519C171.281 116.864 171.797 117.321 172.168 117.891C172.553 118.46 172.798 119.07 172.904 119.719L171.373 120.037C171.307 119.56 171.148 119.123 170.896 118.725C170.658 118.328 170.32 118.01 169.883 117.771C169.445 117.533 168.909 117.414 168.273 117.414C167.624 117.414 167.041 117.559 166.524 117.851C166.02 118.142 165.616 118.56 165.311 119.103C165.02 119.646 164.874 120.296 164.874 121.051V121.23C164.874 121.985 165.02 122.634 165.311 123.178C165.616 123.721 166.02 124.138 166.524 124.43C167.041 124.721 167.624 124.867 168.273 124.867C169.24 124.867 169.976 124.615 170.479 124.112C170.996 123.608 171.314 122.986 171.433 122.243L172.983 122.581C172.838 123.217 172.573 123.82 172.188 124.39C171.804 124.96 171.281 125.417 170.618 125.761C169.969 126.106 169.18 126.278 168.253 126.278ZM180.152 126.278C179.171 126.278 178.303 126.073 177.548 125.662C176.806 125.251 176.223 124.675 175.799 123.933C175.388 123.178 175.183 122.29 175.183 121.27V121.011C175.183 120.004 175.388 119.123 175.799 118.368C176.223 117.612 176.806 117.029 177.548 116.619C178.303 116.208 179.171 116.002 180.152 116.002C181.132 116.002 181.994 116.208 182.736 116.619C183.491 117.029 184.074 117.612 184.485 118.368C184.909 119.123 185.121 120.004 185.121 121.011V121.27C185.121 122.29 184.909 123.178 184.485 123.933C184.074 124.675 183.491 125.251 182.736 125.662C181.994 126.073 181.132 126.278 180.152 126.278ZM180.152 124.867C181.185 124.867 182.007 124.542 182.616 123.893C183.239 123.231 183.55 122.343 183.55 121.23V121.051C183.55 119.938 183.239 119.057 182.616 118.407C182.007 117.745 181.185 117.414 180.152 117.414C179.131 117.414 178.31 117.745 177.687 118.407C177.064 119.057 176.753 119.938 176.753 121.051V121.23C176.753 122.343 177.064 123.231 177.687 123.893C178.31 124.542 179.131 124.867 180.152 124.867ZM191.862 126.278C190.656 126.278 189.636 126 188.801 125.443C187.979 124.887 187.483 124.006 187.31 122.8L188.801 122.462C188.907 123.098 189.106 123.602 189.397 123.973C189.689 124.33 190.046 124.589 190.47 124.748C190.908 124.894 191.372 124.966 191.862 124.966C192.591 124.966 193.167 124.821 193.591 124.529C194.015 124.238 194.227 123.847 194.227 123.357C194.227 122.853 194.022 122.502 193.611 122.303C193.213 122.091 192.663 121.919 191.961 121.786L191.146 121.647C190.524 121.541 189.954 121.376 189.437 121.15C188.92 120.925 188.509 120.62 188.205 120.236C187.9 119.852 187.748 119.368 187.748 118.785C187.748 117.911 188.085 117.228 188.761 116.738C189.437 116.248 190.331 116.002 191.444 116.002C192.544 116.002 193.432 116.254 194.108 116.758C194.797 117.248 195.241 117.944 195.439 118.845L193.969 119.222C193.849 118.52 193.564 118.03 193.114 117.752C192.663 117.46 192.107 117.314 191.444 117.314C190.782 117.314 190.258 117.44 189.874 117.692C189.49 117.93 189.298 118.288 189.298 118.765C189.298 119.229 189.477 119.573 189.834 119.799C190.205 120.011 190.696 120.17 191.305 120.276L192.12 120.415C192.809 120.534 193.425 120.7 193.969 120.912C194.525 121.111 194.962 121.402 195.28 121.786C195.612 122.171 195.777 122.674 195.777 123.297C195.777 124.251 195.42 124.986 194.704 125.503C194.002 126.02 193.054 126.278 191.862 126.278ZM201.792 126C201.235 126 200.805 125.848 200.5 125.543C200.208 125.238 200.063 124.821 200.063 124.291V117.652H197.141V116.281H200.063V112.822H201.633V116.281H204.813V117.652H201.633V124.052C201.633 124.45 201.825 124.648 202.209 124.648H204.376V126H201.792ZM39.9033 156.237C39.4661 156.237 39.0619 156.138 38.6909 155.939C38.3332 155.727 38.0483 155.442 37.8363 155.084C37.6242 154.727 37.5182 154.329 37.5182 153.892C37.5182 153.441 37.6242 153.037 37.8363 152.68C38.0483 152.322 38.3332 152.043 38.6909 151.845C39.0487 151.633 39.4528 151.527 39.9033 151.527C40.3539 151.527 40.758 151.633 41.1158 151.845C41.4868 152.043 41.7717 152.322 41.9704 152.68C42.1824 153.037 42.2884 153.441 42.2884 153.892C42.2884 154.342 42.1824 154.747 41.9704 155.104C41.7584 155.462 41.4669 155.74 41.0959 155.939C40.7381 156.138 40.3406 156.237 39.9033 156.237ZM58.3714 159V150.652H55.3901V149.281H58.3714V146.796C58.3714 146.266 58.5172 145.849 58.8087 145.544C59.1135 145.239 59.5441 145.087 60.1006 145.087H62.5453V146.439H60.5379C60.1404 146.439 59.9416 146.637 59.9416 147.035V149.281H63.0025V150.652H59.9416V159H58.3714ZM65.2561 159V149.281H66.7865V150.473H67.0648C67.237 150.049 67.502 149.738 67.8598 149.539C68.2175 149.34 68.6879 149.241 69.271 149.241H70.4238V150.672H69.1716C68.4693 150.672 67.8995 150.871 67.4623 151.268C67.0382 151.653 66.8262 152.255 66.8262 153.077V159H65.2561ZM76.8511 159.278C75.8705 159.278 75.0093 159.073 74.2672 158.662C73.5252 158.238 72.9488 157.648 72.538 156.893C72.1273 156.138 71.9219 155.263 71.9219 154.27V154.031C71.9219 153.024 72.1273 152.143 72.538 151.388C72.9488 150.632 73.5186 150.049 74.2474 149.639C74.9761 149.214 75.8109 149.002 76.7517 149.002C77.666 149.002 78.4743 149.201 79.1766 149.599C79.8788 149.983 80.4287 150.54 80.8262 151.268C81.2238 151.997 81.4225 152.852 81.4225 153.832V154.548H73.4921C73.5318 155.595 73.8697 156.416 74.5057 157.012C75.1418 157.595 75.9368 157.887 76.8908 157.887C77.7256 157.887 78.3683 157.695 78.8188 157.311C79.2693 156.926 79.6138 156.469 79.8523 155.939L81.2039 156.595C81.0051 157.006 80.7269 157.417 80.3691 157.827C80.0246 158.238 79.5674 158.583 78.9977 158.861C78.4411 159.139 77.7256 159.278 76.8511 159.278ZM73.512 153.256H79.8325C79.7794 152.355 79.4681 151.653 78.8983 151.149C78.3418 150.646 77.6262 150.394 76.7517 150.394C75.8639 150.394 75.1351 150.646 74.5654 151.149C73.9956 151.653 73.6445 152.355 73.512 153.256ZM88.6135 159.278C87.633 159.278 86.7717 159.073 86.0297 158.662C85.2876 158.238 84.7112 157.648 84.3005 156.893C83.8897 156.138 83.6843 155.263 83.6843 154.27V154.031C83.6843 153.024 83.8897 152.143 84.3005 151.388C84.7112 150.632 85.281 150.049 86.0098 149.639C86.7386 149.214 87.5733 149.002 88.5141 149.002C89.4284 149.002 90.2367 149.201 90.939 149.599C91.6413 149.983 92.1911 150.54 92.5887 151.268C92.9862 151.997 93.1849 152.852 93.1849 153.832V154.548H85.2545C85.2943 155.595 85.6321 156.416 86.2682 157.012C86.9042 157.595 87.6992 157.887 88.6533 157.887C89.488 157.887 90.1307 157.695 90.5812 157.311C91.0317 156.926 91.3762 156.469 91.6148 155.939L92.9663 156.595C92.7675 157.006 92.4893 157.417 92.1315 157.827C91.787 158.238 91.3299 158.583 90.7601 158.861C90.2036 159.139 89.488 159.278 88.6135 159.278ZM85.2744 153.256H91.5949C91.5419 152.355 91.2305 151.653 90.6607 151.149C90.1042 150.646 89.3887 150.394 88.5141 150.394C87.6263 150.394 86.8976 150.646 86.3278 151.149C85.758 151.653 85.4069 152.355 85.2744 153.256ZM104.487 159V146.16H104.189L101.486 151.109H99.7366L103.056 145.087H106.097V159H104.487ZM114.047 159.278C112.47 159.278 111.211 158.814 110.27 157.887C109.343 156.946 108.879 155.542 108.879 153.673V150.414C108.879 148.559 109.343 147.161 110.27 146.22C111.211 145.279 112.47 144.809 114.047 144.809C115.637 144.809 116.895 145.279 117.823 146.22C118.764 147.161 119.234 148.559 119.234 150.414V153.673C119.234 155.542 118.764 156.946 117.823 157.887C116.895 158.814 115.637 159.278 114.047 159.278ZM114.047 157.827C115.239 157.827 116.134 157.47 116.73 156.754C117.326 156.039 117.624 155.038 117.624 153.753V150.314C117.624 149.029 117.319 148.035 116.71 147.333C116.1 146.617 115.213 146.26 114.047 146.26C112.881 146.26 111.993 146.617 111.383 147.333C110.787 148.048 110.489 149.042 110.489 150.314V153.753C110.489 155.051 110.787 156.058 111.383 156.774C111.98 157.476 112.867 157.827 114.047 157.827ZM126.779 159.278C125.203 159.278 123.944 158.814 123.003 157.887C122.076 156.946 121.612 155.542 121.612 153.673V150.414C121.612 148.559 122.076 147.161 123.003 146.22C123.944 145.279 125.203 144.809 126.779 144.809C128.37 144.809 129.628 145.279 130.556 146.22C131.497 147.161 131.967 148.559 131.967 150.414V153.673C131.967 155.542 131.497 156.946 130.556 157.887C129.628 158.814 128.37 159.278 126.779 159.278ZM126.779 157.827C127.972 157.827 128.866 157.47 129.463 156.754C130.059 156.039 130.357 155.038 130.357 153.753V150.314C130.357 149.029 130.052 148.035 129.443 147.333C128.833 146.617 127.946 146.26 126.779 146.26C125.613 146.26 124.726 146.617 124.116 147.333C123.52 148.048 123.222 149.042 123.222 150.314V153.753C123.222 155.051 123.52 156.058 124.116 156.774C124.712 157.476 125.6 157.827 126.779 157.827ZM134.802 159V145.087H136.372V153.276H136.65L141.102 149.281H143.289L137.902 154.011L143.448 159H141.281L136.65 154.766H136.372V159H134.802ZM153.066 159L149.588 149.281H151.257L154.179 157.827H154.457L157.379 149.281H159.049L155.57 159H153.066ZM165.36 159.278C164.38 159.278 163.519 159.073 162.777 158.662C162.035 158.238 161.458 157.648 161.047 156.893C160.637 156.138 160.431 155.263 160.431 154.27V154.031C160.431 153.024 160.637 152.143 161.047 151.388C161.458 150.632 162.028 150.049 162.757 149.639C163.485 149.214 164.32 149.002 165.261 149.002C166.175 149.002 166.984 149.201 167.686 149.599C168.388 149.983 168.938 150.54 169.336 151.268C169.733 151.997 169.932 152.852 169.932 153.832V154.548H162.001C162.041 155.595 162.379 156.416 163.015 157.012C163.651 157.595 164.446 157.887 165.4 157.887C166.235 157.887 166.878 157.695 167.328 157.311C167.779 156.926 168.123 156.469 168.362 155.939L169.713 156.595C169.514 157.006 169.236 157.417 168.878 157.827C168.534 158.238 168.077 158.583 167.507 158.861C166.95 159.139 166.235 159.278 165.36 159.278ZM162.021 153.256H168.342C168.289 152.355 167.977 151.653 167.408 151.149C166.851 150.646 166.136 150.394 165.261 150.394C164.373 150.394 163.644 150.646 163.075 151.149C162.505 151.653 162.154 152.355 162.021 153.256ZM172.671 159V149.281H174.201V150.473H174.479C174.652 150.049 174.917 149.738 175.274 149.539C175.632 149.34 176.103 149.241 176.686 149.241H177.838V150.672H176.586C175.884 150.672 175.314 150.871 174.877 151.268C174.453 151.653 174.241 152.255 174.241 153.077V159H172.671ZM180.163 159V149.281H181.733V159H180.163ZM180.958 147.77C180.613 147.77 180.322 147.658 180.083 147.432C179.858 147.207 179.745 146.922 179.745 146.578C179.745 146.22 179.858 145.928 180.083 145.703C180.322 145.478 180.613 145.365 180.958 145.365C181.302 145.365 181.587 145.478 181.813 145.703C182.038 145.928 182.15 146.22 182.15 146.578C182.15 146.922 182.038 147.207 181.813 147.432C181.587 147.658 181.302 147.77 180.958 147.77ZM186.943 159V150.652H183.961V149.281H186.943V146.796C186.943 146.266 187.089 145.849 187.38 145.544C187.685 145.239 188.116 145.087 188.672 145.087H191.057V146.439H189.109C188.712 146.439 188.513 146.637 188.513 147.035V149.281H193.343V150.652H188.513V159H186.943ZM193.343 159V149.281H194.913V159H193.343ZM194.118 147.79C193.787 147.79 193.502 147.677 193.263 147.452C193.038 147.227 192.925 146.942 192.925 146.598C192.925 146.24 193.038 145.955 193.263 145.743C193.502 145.518 193.787 145.405 194.118 145.405C194.476 145.405 194.767 145.518 194.993 145.743C195.218 145.955 195.33 146.24 195.33 146.598C195.33 146.942 195.218 147.227 194.993 147.452C194.767 147.677 194.476 147.79 194.118 147.79ZM202.666 159.278C201.686 159.278 200.824 159.073 200.082 158.662C199.34 158.238 198.764 157.648 198.353 156.893C197.942 156.138 197.737 155.263 197.737 154.27V154.031C197.737 153.024 197.942 152.143 198.353 151.388C198.764 150.632 199.334 150.049 200.063 149.639C200.791 149.214 201.626 149.002 202.567 149.002C203.481 149.002 204.289 149.201 204.992 149.599C205.694 149.983 206.244 150.54 206.641 151.268C207.039 151.997 207.238 152.852 207.238 153.832V154.548H199.307C199.347 155.595 199.685 156.416 200.321 157.012C200.957 157.595 201.752 157.887 202.706 157.887C203.541 157.887 204.183 157.695 204.634 157.311C205.085 156.926 205.429 156.469 205.668 155.939L207.019 156.595C206.82 157.006 206.542 157.417 206.184 157.827C205.84 158.238 205.383 158.583 204.813 158.861C204.256 159.139 203.541 159.278 202.666 159.278ZM199.327 153.256H205.648C205.595 152.355 205.283 151.653 204.714 151.149C204.157 150.646 203.441 150.394 202.567 150.394C201.679 150.394 200.95 150.646 200.381 151.149C199.811 151.653 199.46 152.355 199.327 153.256ZM213.892 159.278C212.686 159.278 211.666 159 210.831 158.443C210.01 157.887 209.513 157.006 209.341 155.8L210.831 155.462C210.937 156.098 211.136 156.602 211.427 156.973C211.719 157.33 212.077 157.589 212.501 157.748C212.938 157.894 213.402 157.966 213.892 157.966C214.621 157.966 215.197 157.821 215.621 157.529C216.045 157.238 216.257 156.847 216.257 156.357C216.257 155.853 216.052 155.502 215.641 155.303C215.244 155.091 214.694 154.919 213.991 154.786L213.177 154.647C212.554 154.541 211.984 154.376 211.467 154.15C210.95 153.925 210.54 153.62 210.235 153.236C209.93 152.852 209.778 152.368 209.778 151.785C209.778 150.911 210.116 150.228 210.791 149.738C211.467 149.248 212.362 149.002 213.475 149.002C214.574 149.002 215.462 149.254 216.138 149.758C216.827 150.248 217.271 150.944 217.47 151.845L215.999 152.222C215.88 151.52 215.595 151.03 215.144 150.752C214.694 150.46 214.137 150.314 213.475 150.314C212.812 150.314 212.289 150.44 211.904 150.692C211.52 150.93 211.328 151.288 211.328 151.765C211.328 152.229 211.507 152.573 211.865 152.799C212.236 153.011 212.726 153.17 213.336 153.276L214.15 153.415C214.839 153.534 215.456 153.7 215.999 153.912C216.555 154.111 216.993 154.402 217.311 154.786C217.642 155.171 217.808 155.674 217.808 156.297C217.808 157.251 217.45 157.986 216.734 158.503C216.032 159.02 215.085 159.278 213.892 159.278ZM225.563 162.975V149.281H227.093V150.891H227.371C227.623 150.4 228.027 149.963 228.584 149.579C229.154 149.195 229.942 149.002 230.949 149.002C231.784 149.002 232.546 149.208 233.235 149.619C233.937 150.016 234.494 150.586 234.904 151.328C235.328 152.07 235.54 152.964 235.54 154.011V154.27C235.54 155.303 235.335 156.198 234.924 156.953C234.513 157.708 233.957 158.284 233.255 158.682C232.566 159.08 231.797 159.278 230.949 159.278C230.273 159.278 229.697 159.186 229.22 159C228.756 158.828 228.378 158.602 228.087 158.324C227.795 158.046 227.57 157.761 227.411 157.47H227.133V162.975H225.563ZM230.532 157.887C231.539 157.887 232.354 157.569 232.976 156.933C233.612 156.284 233.93 155.383 233.93 154.23V154.051C233.93 152.898 233.612 152.004 232.976 151.368C232.354 150.718 231.539 150.394 230.532 150.394C229.538 150.394 228.716 150.718 228.067 151.368C227.431 152.004 227.113 152.898 227.113 154.051V154.23C227.113 155.383 227.431 156.284 228.067 156.933C228.716 157.569 229.538 157.887 230.532 157.887ZM242.806 159.278C241.826 159.278 240.964 159.073 240.222 158.662C239.48 158.238 238.904 157.648 238.493 156.893C238.082 156.138 237.877 155.263 237.877 154.27V154.031C237.877 153.024 238.082 152.143 238.493 151.388C238.904 150.632 239.474 150.049 240.202 149.639C240.931 149.214 241.766 149.002 242.707 149.002C243.621 149.002 244.429 149.201 245.132 149.599C245.834 149.983 246.384 150.54 246.781 151.268C247.179 151.997 247.377 152.852 247.377 153.832V154.548H239.447C239.487 155.595 239.825 156.416 240.461 157.012C241.097 157.595 241.892 157.887 242.846 157.887C243.681 157.887 244.323 157.695 244.774 157.311C245.224 156.926 245.569 156.469 245.807 155.939L247.159 156.595C246.96 157.006 246.682 157.417 246.324 157.827C245.98 158.238 245.522 158.583 244.953 158.861C244.396 159.139 243.681 159.278 242.806 159.278ZM239.467 153.256H245.787C245.734 152.355 245.423 151.653 244.853 151.149C244.297 150.646 243.581 150.394 242.707 150.394C241.819 150.394 241.09 150.646 240.52 151.149C239.951 151.653 239.599 152.355 239.467 153.256ZM250.116 159V149.281H251.647V150.473H251.925C252.097 150.049 252.362 149.738 252.72 149.539C253.078 149.34 253.548 149.241 254.131 149.241H255.284V150.672H254.032C253.33 150.672 252.76 150.871 252.323 151.268C251.898 151.653 251.686 152.255 251.686 153.077V159H250.116ZM262.713 159V149.281H264.244V150.493H264.522C264.708 150.149 265.012 149.831 265.436 149.539C265.86 149.248 266.457 149.102 267.225 149.102C267.98 149.102 268.59 149.267 269.054 149.599C269.531 149.93 269.875 150.334 270.087 150.811H270.366C270.591 150.334 270.929 149.93 271.379 149.599C271.843 149.267 272.486 149.102 273.307 149.102C273.956 149.102 274.526 149.234 275.016 149.499C275.507 149.764 275.891 150.149 276.169 150.652C276.461 151.142 276.607 151.732 276.607 152.421V159H275.036V152.56C275.036 151.911 274.844 151.401 274.46 151.03C274.089 150.646 273.566 150.453 272.89 150.453C272.174 150.453 271.585 150.685 271.121 151.149C270.67 151.613 270.445 152.282 270.445 153.157V159H268.875V152.56C268.875 151.911 268.683 151.401 268.298 151.03C267.927 150.646 267.404 150.453 266.728 150.453C266.013 150.453 265.423 150.685 264.959 151.149C264.509 151.613 264.284 152.282 264.284 153.157V159H262.713ZM284.305 159.278C283.325 159.278 282.457 159.073 281.702 158.662C280.96 158.251 280.377 157.675 279.953 156.933C279.542 156.178 279.336 155.29 279.336 154.27V154.011C279.336 153.004 279.542 152.123 279.953 151.368C280.377 150.612 280.96 150.029 281.702 149.619C282.457 149.208 283.325 149.002 284.305 149.002C285.286 149.002 286.147 149.208 286.889 149.619C287.645 150.029 288.228 150.612 288.638 151.368C289.062 152.123 289.274 153.004 289.274 154.011V154.27C289.274 155.29 289.062 156.178 288.638 156.933C288.228 157.675 287.645 158.251 286.889 158.662C286.147 159.073 285.286 159.278 284.305 159.278ZM284.305 157.867C285.339 157.867 286.161 157.542 286.77 156.893C287.393 156.231 287.704 155.343 287.704 154.23V154.051C287.704 152.938 287.393 152.057 286.77 151.407C286.161 150.745 285.339 150.414 284.305 150.414C283.285 150.414 282.464 150.745 281.841 151.407C281.218 152.057 280.907 152.938 280.907 154.051V154.23C280.907 155.343 281.218 156.231 281.841 156.893C282.464 157.542 283.285 157.867 284.305 157.867ZM292.1 159V149.281H293.63V150.93H293.909C294.121 150.467 294.478 150.049 294.982 149.678C295.499 149.294 296.254 149.102 297.248 149.102C297.977 149.102 298.626 149.254 299.196 149.559C299.779 149.864 300.242 150.314 300.587 150.911C300.931 151.507 301.104 152.242 301.104 153.117V159H299.534V153.236C299.534 152.269 299.288 151.566 298.798 151.129C298.321 150.692 297.672 150.473 296.85 150.473C295.91 150.473 295.141 150.778 294.545 151.388C293.962 151.997 293.67 152.905 293.67 154.111V159H292.1ZM307.595 159C307.039 159 306.608 158.848 306.303 158.543C306.012 158.238 305.866 157.821 305.866 157.291V150.652H302.944V149.281H305.866V145.822H307.436V149.281H310.616V150.652H307.436V157.052C307.436 157.45 307.628 157.648 308.013 157.648H310.179V159H307.595ZM313.16 159V145.087H314.73V150.831H315.008C315.141 150.54 315.34 150.268 315.605 150.016C315.883 149.751 316.234 149.533 316.658 149.36C317.095 149.188 317.645 149.102 318.308 149.102C319.036 149.102 319.686 149.261 320.255 149.579C320.838 149.884 321.302 150.334 321.647 150.93C321.991 151.513 322.164 152.242 322.164 153.117V159H320.593V153.236C320.593 152.269 320.348 151.566 319.858 151.129C319.381 150.692 318.732 150.473 317.91 150.473C316.969 150.473 316.201 150.778 315.605 151.388C315.021 151.997 314.73 152.905 314.73 154.111V159H313.16ZM39.9033 189.237C39.4661 189.237 39.0619 189.138 38.6909 188.939C38.3332 188.727 38.0483 188.442 37.8363 188.084C37.6242 187.727 37.5182 187.329 37.5182 186.892C37.5182 186.441 37.6242 186.037 37.8363 185.68C38.0483 185.322 38.3332 185.043 38.6909 184.845C39.0487 184.633 39.4528 184.527 39.9033 184.527C40.3539 184.527 40.758 184.633 41.1158 184.845C41.4868 185.043 41.7717 185.322 41.9704 185.68C42.1824 186.037 42.2884 186.441 42.2884 186.892C42.2884 187.342 42.1824 187.747 41.9704 188.104C41.7584 188.462 41.4669 188.74 41.0959 188.939C40.7381 189.138 40.3406 189.237 39.9033 189.237ZM61.0348 192.278C60.0277 192.278 59.1267 192.099 58.3317 191.742C57.5366 191.384 56.9072 190.847 56.4435 190.132C55.993 189.403 55.7677 188.495 55.7677 187.409V186.991H57.4174V187.409C57.4174 188.561 57.7553 189.423 58.4311 189.993C59.1068 190.549 59.9747 190.827 61.0348 190.827C62.1213 190.827 62.9495 190.582 63.5193 190.092C64.089 189.602 64.3739 188.986 64.3739 188.243C64.3739 187.727 64.248 187.316 63.9963 187.011C63.7445 186.706 63.3867 186.461 62.923 186.276C62.4592 186.077 61.9159 185.905 61.2932 185.759L60.2398 185.501C59.4315 185.289 58.7159 185.03 58.0932 184.725C57.4704 184.421 56.9801 184.023 56.6224 183.533C56.2778 183.029 56.1056 182.387 56.1056 181.605C56.1056 180.823 56.3043 180.147 56.7019 179.578C57.0994 179.008 57.6493 178.571 58.3516 178.266C59.0538 177.961 59.8754 177.809 60.8161 177.809C61.7569 177.809 62.5983 177.974 63.3404 178.306C64.0824 178.624 64.672 179.101 65.1093 179.737C65.5466 180.359 65.7652 181.148 65.7652 182.102V182.937H64.1155V182.102C64.1155 181.426 63.9698 180.883 63.6783 180.472C63.4 180.061 63.0091 179.757 62.5056 179.558C62.0153 179.359 61.4522 179.26 60.8161 179.26C59.9019 179.26 59.1665 179.465 58.6099 179.876C58.0534 180.273 57.7752 180.843 57.7752 181.585C57.7752 182.075 57.8878 182.473 58.113 182.778C58.3516 183.082 58.6894 183.334 59.1267 183.533C59.564 183.718 60.0874 183.884 60.6969 184.03L61.7503 184.288C62.5453 184.46 63.2675 184.699 63.9168 185.004C64.566 185.295 65.0762 185.699 65.4472 186.216C65.8315 186.72 66.0236 187.382 66.0236 188.204C66.0236 189.025 65.8182 189.741 65.4075 190.35C64.9967 190.96 64.4137 191.437 63.6584 191.781C62.9164 192.113 62.0418 192.278 61.0348 192.278ZM60.2795 194.306V175.781H61.8099V194.306H60.2795ZM73.3634 192.278C71.7865 192.278 70.5277 191.814 69.587 190.887C68.6594 189.946 68.1957 188.542 68.1957 186.673V183.414C68.1957 181.559 68.6594 180.161 69.587 179.22C70.5277 178.279 71.7865 177.809 73.3634 177.809C74.9534 177.809 76.2122 178.279 77.1398 179.22C78.0805 180.161 78.5509 181.559 78.5509 183.414V186.673C78.5509 188.542 78.0805 189.946 77.1398 190.887C76.2122 191.814 74.9534 192.278 73.3634 192.278ZM73.3634 190.827C74.5559 190.827 75.4503 190.47 76.0466 189.754C76.6429 189.039 76.941 188.038 76.941 186.753V183.314C76.941 182.029 76.6362 181.035 76.0267 180.333C75.4172 179.617 74.5294 179.26 73.3634 179.26C72.1973 179.26 71.3095 179.617 70.7 180.333C70.1037 181.048 69.8056 182.042 69.8056 183.314V186.753C69.8056 188.051 70.1037 189.058 70.7 189.774C71.2963 190.476 72.1841 190.827 73.3634 190.827ZM81.9298 192.278C81.5455 192.278 81.2209 192.152 80.9559 191.901C80.7041 191.649 80.5783 191.324 80.5783 190.927C80.5783 190.529 80.7041 190.205 80.9559 189.953C81.2209 189.701 81.5455 189.575 81.9298 189.575C82.3273 189.575 82.652 189.701 82.9037 189.953C83.1555 190.205 83.2814 190.529 83.2814 190.927C83.2814 191.324 83.1555 191.649 82.9037 191.901C82.652 192.152 82.3273 192.278 81.9298 192.278ZM90.5023 192.278C88.9255 192.278 87.6667 191.814 86.7259 190.887C85.7984 189.946 85.3346 188.542 85.3346 186.673V183.414C85.3346 181.559 85.7984 180.161 86.7259 179.22C87.6667 178.279 88.9255 177.809 90.5023 177.809C92.0924 177.809 93.3512 178.279 94.2787 179.22C95.2195 180.161 95.6899 181.559 95.6899 183.414V186.673C95.6899 188.542 95.2195 189.946 94.2787 190.887C93.3512 191.814 92.0924 192.278 90.5023 192.278ZM90.5023 190.827C91.6949 190.827 92.5893 190.47 93.1856 189.754C93.7818 189.039 94.08 188.038 94.08 186.753V183.314C94.08 182.029 93.7752 181.035 93.1657 180.333C92.5562 179.617 91.6684 179.26 90.5023 179.26C89.3363 179.26 88.4485 179.617 87.839 180.333C87.2427 181.048 86.9446 182.042 86.9446 183.314V186.753C86.9446 188.051 87.2427 189.058 87.839 189.774C88.4353 190.476 89.323 190.827 90.5023 190.827ZM102.877 192.278C101.857 192.278 100.976 192.086 100.234 191.702C99.492 191.304 98.9156 190.761 98.5048 190.072C98.094 189.37 97.8887 188.561 97.8887 187.647V187.409H99.4986V187.588C99.4986 188.634 99.8034 189.436 100.413 189.993C101.022 190.549 101.831 190.827 102.838 190.827C103.898 190.827 104.726 190.529 105.322 189.933C105.918 189.337 106.217 188.522 106.217 187.488V187.309C106.217 186.316 105.925 185.527 105.342 184.944C104.772 184.348 104.03 184.05 103.116 184.05C102.586 184.05 102.149 184.136 101.804 184.308C101.46 184.467 101.188 184.672 100.989 184.924C100.791 185.163 100.625 185.395 100.492 185.62H98.3061V178.087H107.449V179.538H99.916V184.348H100.194C100.34 184.083 100.539 183.824 100.791 183.573C101.056 183.321 101.407 183.109 101.844 182.937C102.281 182.764 102.824 182.678 103.474 182.678C104.282 182.678 105.011 182.864 105.66 183.235C106.323 183.606 106.846 184.136 107.23 184.825C107.628 185.514 107.827 186.335 107.827 187.289V187.508C107.827 188.449 107.628 189.277 107.23 189.993C106.833 190.708 106.263 191.271 105.521 191.682C104.779 192.08 103.898 192.278 102.877 192.278ZM115.528 195.975V182.281H117.058V183.891H117.336C117.588 183.4 117.992 182.963 118.549 182.579C119.119 182.195 119.907 182.002 120.914 182.002C121.749 182.002 122.511 182.208 123.2 182.619C123.902 183.016 124.459 183.586 124.869 184.328C125.293 185.07 125.505 185.964 125.505 187.011V187.27C125.505 188.303 125.3 189.198 124.889 189.953C124.479 190.708 123.922 191.284 123.22 191.682C122.531 192.08 121.762 192.278 120.914 192.278C120.238 192.278 119.662 192.186 119.185 192C118.721 191.828 118.344 191.602 118.052 191.324C117.761 191.046 117.535 190.761 117.376 190.47H117.098V195.975H115.528ZM120.497 190.887C121.504 190.887 122.319 190.569 122.941 189.933C123.577 189.284 123.895 188.383 123.895 187.23V187.051C123.895 185.898 123.577 185.004 122.941 184.368C122.319 183.718 121.504 183.394 120.497 183.394C119.503 183.394 118.681 183.718 118.032 184.368C117.396 185.004 117.078 185.898 117.078 187.051V187.23C117.078 188.383 117.396 189.284 118.032 189.933C118.681 190.569 119.503 190.887 120.497 190.887ZM132.771 192.278C131.791 192.278 130.929 192.073 130.187 191.662C129.445 191.238 128.869 190.648 128.458 189.893C128.047 189.138 127.842 188.263 127.842 187.27V187.031C127.842 186.024 128.047 185.143 128.458 184.388C128.869 183.632 129.439 183.049 130.167 182.639C130.896 182.214 131.731 182.002 132.672 182.002C133.586 182.002 134.394 182.201 135.097 182.599C135.799 182.983 136.349 183.54 136.746 184.268C137.144 184.997 137.343 185.852 137.343 186.832V187.548H129.412C129.452 188.595 129.79 189.416 130.426 190.012C131.062 190.595 131.857 190.887 132.811 190.887C133.646 190.887 134.288 190.695 134.739 190.311C135.189 189.926 135.534 189.469 135.772 188.939L137.124 189.595C136.925 190.006 136.647 190.417 136.289 190.827C135.945 191.238 135.487 191.583 134.918 191.861C134.361 192.139 133.646 192.278 132.771 192.278ZM129.432 186.256H135.752C135.699 185.355 135.388 184.653 134.818 184.149C134.262 183.646 133.546 183.394 132.672 183.394C131.784 183.394 131.055 183.646 130.485 184.149C129.916 184.653 129.564 185.355 129.432 186.256ZM140.081 192V182.281H141.612V183.473H141.89C142.062 183.049 142.327 182.738 142.685 182.539C143.043 182.34 143.513 182.241 144.096 182.241H145.249V183.672H143.997C143.295 183.672 142.725 183.871 142.288 184.268C141.864 184.653 141.652 185.255 141.652 186.077V192H140.081ZM155.143 192L151.665 182.281H153.334L156.256 190.827H156.534L159.456 182.281H161.126L157.647 192H155.143ZM167.437 192.278C166.457 192.278 165.595 192.073 164.853 191.662C164.111 191.238 163.535 190.648 163.124 189.893C162.713 189.138 162.508 188.263 162.508 187.27V187.031C162.508 186.024 162.713 185.143 163.124 184.388C163.535 183.632 164.105 183.049 164.834 182.639C165.562 182.214 166.397 182.002 167.338 182.002C168.252 182.002 169.06 182.201 169.763 182.599C170.465 182.983 171.015 183.54 171.412 184.268C171.81 184.997 172.009 185.852 172.009 186.832V187.548H164.078C164.118 188.595 164.456 189.416 165.092 190.012C165.728 190.595 166.523 190.887 167.477 190.887C168.312 190.887 168.954 190.695 169.405 190.311C169.855 189.926 170.2 189.469 170.439 188.939L171.79 189.595C171.591 190.006 171.313 190.417 170.955 190.827C170.611 191.238 170.154 191.583 169.584 191.861C169.027 192.139 168.312 192.278 167.437 192.278ZM164.098 186.256H170.419C170.366 185.355 170.054 184.653 169.484 184.149C168.928 183.646 168.212 183.394 167.338 183.394C166.45 183.394 165.721 183.646 165.152 184.149C164.582 184.653 164.231 185.355 164.098 186.256ZM174.748 192V182.281H176.278V183.473H176.556C176.728 183.049 176.993 182.738 177.351 182.539C177.709 182.34 178.179 182.241 178.762 182.241H179.915V183.672H178.663C177.961 183.672 177.391 183.871 176.954 184.268C176.53 184.653 176.318 185.255 176.318 186.077V192H174.748ZM182.24 192V182.281H183.81V192H182.24ZM183.035 180.77C182.69 180.77 182.399 180.658 182.16 180.432C181.935 180.207 181.822 179.922 181.822 179.578C181.822 179.22 181.935 178.928 182.16 178.703C182.399 178.478 182.69 178.365 183.035 178.365C183.379 178.365 183.664 178.478 183.889 178.703C184.115 178.928 184.227 179.22 184.227 179.578C184.227 179.922 184.115 180.207 183.889 180.432C183.664 180.658 183.379 180.77 183.035 180.77ZM189.02 192V183.652H186.038V182.281H189.02V179.796C189.02 179.266 189.165 178.849 189.457 178.544C189.762 178.239 190.192 178.087 190.749 178.087H193.194V179.439H191.186C190.789 179.439 190.59 179.637 190.59 180.035V182.281H193.651V183.652H190.59V192H189.02ZM197.077 195.975V194.584H202.642C203.026 194.584 203.219 194.385 203.219 193.988V190.45H202.94C202.808 190.728 202.602 191.006 202.324 191.284C202.059 191.549 201.708 191.768 201.271 191.94C200.834 192.099 200.284 192.179 199.621 192.179C198.919 192.179 198.27 192.027 197.673 191.722C197.09 191.417 196.626 190.966 196.282 190.37C195.951 189.774 195.785 189.045 195.785 188.184V182.281H197.355V188.065C197.355 189.019 197.594 189.714 198.071 190.152C198.561 190.589 199.217 190.807 200.039 190.807C200.966 190.807 201.728 190.503 202.324 189.893C202.92 189.284 203.219 188.376 203.219 187.17V182.281H204.789V194.266C204.789 194.796 204.636 195.213 204.332 195.518C204.04 195.823 203.61 195.975 203.04 195.975H197.077ZM216.161 192.278C215.485 192.278 214.869 192.159 214.312 191.92C213.756 191.682 213.318 191.337 213 190.887C212.682 190.436 212.523 189.887 212.523 189.237C212.523 188.575 212.682 188.031 213 187.607C213.318 187.17 213.756 186.846 214.312 186.634C214.869 186.408 215.491 186.296 216.18 186.296H219.46V185.58C219.46 184.891 219.255 184.348 218.844 183.95C218.446 183.553 217.85 183.354 217.055 183.354C216.273 183.354 215.664 183.546 215.226 183.93C214.789 184.301 214.491 184.805 214.332 185.441L212.861 184.964C213.02 184.421 213.272 183.93 213.616 183.493C213.961 183.043 214.418 182.685 214.988 182.42C215.571 182.142 216.267 182.002 217.075 182.002C218.32 182.002 219.288 182.327 219.977 182.976C220.666 183.612 221.01 184.513 221.01 185.68V190.072C221.01 190.47 221.196 190.668 221.567 190.668H222.461V192H221.09C220.652 192 220.301 191.881 220.036 191.642C219.771 191.39 219.639 191.059 219.639 190.648V190.549H219.4C219.255 190.801 219.056 191.066 218.804 191.344C218.566 191.609 218.234 191.828 217.81 192C217.386 192.186 216.836 192.278 216.161 192.278ZM216.339 190.927C217.267 190.927 218.016 190.655 218.585 190.112C219.168 189.555 219.46 188.78 219.46 187.786V187.568H216.24C215.617 187.568 215.101 187.707 214.69 187.985C214.292 188.25 214.093 188.654 214.093 189.198C214.093 189.741 214.299 190.165 214.71 190.47C215.134 190.774 215.677 190.927 216.339 190.927ZM225.879 192V183.652H222.898V182.281H225.879V179.796C225.879 179.266 226.025 178.849 226.316 178.544C226.621 178.239 227.052 178.087 227.608 178.087H230.053V179.439H228.046C227.648 179.439 227.449 179.637 227.449 180.035V182.281H230.51V183.652H227.449V192H225.879ZM236.011 192C235.455 192 235.024 191.848 234.72 191.543C234.428 191.238 234.282 190.821 234.282 190.291V183.652H231.361V182.281H234.282V178.822H235.852V182.281H239.033V183.652H235.852V190.052C235.852 190.45 236.045 190.648 236.429 190.648H238.595V192H236.011ZM245.679 192.278C244.698 192.278 243.837 192.073 243.095 191.662C242.353 191.238 241.776 190.648 241.366 189.893C240.955 189.138 240.75 188.263 240.75 187.27V187.031C240.75 186.024 240.955 185.143 241.366 184.388C241.776 183.632 242.346 183.049 243.075 182.639C243.804 182.214 244.639 182.002 245.579 182.002C246.494 182.002 247.302 182.201 248.004 182.599C248.706 182.983 249.256 183.54 249.654 184.268C250.051 184.997 250.25 185.852 250.25 186.832V187.548H242.32C242.359 188.595 242.697 189.416 243.333 190.012C243.969 190.595 244.764 190.887 245.718 190.887C246.553 190.887 247.196 190.695 247.646 190.311C248.097 189.926 248.441 189.469 248.68 188.939L250.032 189.595C249.833 190.006 249.554 190.417 249.197 190.827C248.852 191.238 248.395 191.583 247.825 191.861C247.269 192.139 246.553 192.278 245.679 192.278ZM242.34 186.256H248.66C248.607 185.355 248.296 184.653 247.726 184.149C247.169 183.646 246.454 183.394 245.579 183.394C244.692 183.394 243.963 183.646 243.393 184.149C242.823 184.653 242.472 185.355 242.34 186.256ZM252.989 192V182.281H254.519V183.473H254.798C254.97 183.049 255.235 182.738 255.593 182.539C255.95 182.34 256.421 182.241 257.004 182.241H258.157V183.672H256.904C256.202 183.672 255.632 183.871 255.195 184.268C254.771 184.653 254.559 185.255 254.559 186.077V192H252.989ZM269.164 192C268.607 192 268.177 191.848 267.872 191.543C267.58 191.238 267.434 190.821 267.434 190.291V183.652H264.513V182.281H267.434V178.822H269.005V182.281H272.185V183.652H269.005V190.052C269.005 190.45 269.197 190.648 269.581 190.648H271.748V192H269.164ZM274.728 192V178.087H276.298V183.831H276.577C276.709 183.54 276.908 183.268 277.173 183.016C277.451 182.751 277.802 182.533 278.226 182.36C278.664 182.188 279.213 182.102 279.876 182.102C280.605 182.102 281.254 182.261 281.824 182.579C282.407 182.884 282.871 183.334 283.215 183.93C283.56 184.513 283.732 185.242 283.732 186.117V192H282.162V186.236C282.162 185.269 281.917 184.566 281.426 184.129C280.949 183.692 280.3 183.473 279.478 183.473C278.538 183.473 277.769 183.778 277.173 184.388C276.59 184.997 276.298 185.905 276.298 187.111V192H274.728ZM289.899 192.278C289.223 192.278 288.607 192.159 288.05 191.92C287.494 191.682 287.057 191.337 286.739 190.887C286.421 190.436 286.262 189.887 286.262 189.237C286.262 188.575 286.421 188.031 286.739 187.607C287.057 187.17 287.494 186.846 288.05 186.634C288.607 186.408 289.23 186.296 289.919 186.296H293.198V185.58C293.198 184.891 292.993 184.348 292.582 183.95C292.185 183.553 291.588 183.354 290.793 183.354C290.012 183.354 289.402 183.546 288.965 183.93C288.527 184.301 288.229 184.805 288.07 185.441L286.6 184.964C286.759 184.421 287.01 183.93 287.355 183.493C287.699 183.043 288.156 182.685 288.726 182.42C289.309 182.142 290.005 182.002 290.813 182.002C292.059 182.002 293.026 182.327 293.715 182.976C294.404 183.612 294.749 184.513 294.749 185.68V190.072C294.749 190.47 294.934 190.668 295.305 190.668H296.2V192H294.828C294.391 192 294.04 191.881 293.775 191.642C293.51 191.39 293.377 191.059 293.377 190.648V190.549H293.139C292.993 190.801 292.794 191.066 292.542 191.344C292.304 191.609 291.973 191.828 291.549 192C291.125 192.186 290.575 192.278 289.899 192.278ZM290.078 190.927C291.005 190.927 291.754 190.655 292.324 190.112C292.907 189.555 293.198 188.78 293.198 187.786V187.568H289.978C289.356 187.568 288.839 187.707 288.428 187.985C288.031 188.25 287.832 188.654 287.832 189.198C287.832 189.741 288.037 190.165 288.448 190.47C288.872 190.774 289.415 190.927 290.078 190.927ZM301.287 192C300.731 192 300.3 191.848 299.995 191.543C299.704 191.238 299.558 190.821 299.558 190.291V183.652H296.636V182.281H299.558V178.822H301.128V182.281H304.308V183.652H301.128V190.052C301.128 190.45 301.32 190.648 301.705 190.648H303.871V192H301.287Z" fill="white"/>
<path d="M27.656 47V31.352H30.184V47H27.656ZM28.936 28.92C28.3813 28.92 27.912 28.7387 27.528 28.376C27.1653 28.0133 26.984 27.5547 26.984 27C26.984 26.424 27.1653 25.9547 27.528 25.592C27.912 25.2293 28.3813 25.048 28.936 25.048C29.4907 25.048 29.9493 25.2293 30.312 25.592C30.6747 25.9547 30.856 26.424 30.856 27C30.856 27.5547 30.6747 28.0133 30.312 28.376C29.9493 28.7387 29.4907 28.92 28.936 28.92ZM35.4998 47V31.352H37.9638V34.008H38.4118C38.7531 33.2613 39.3291 32.5893 40.1398 31.992C40.9718 31.3733 42.1878 31.064 43.7878 31.064C44.9611 31.064 46.0064 31.3093 46.9238 31.8C47.8624 32.2907 48.6091 33.016 49.1638 33.976C49.7184 34.936 49.9958 36.12 49.9958 37.528V47H47.4678V37.72C47.4678 36.1627 47.0731 35.032 46.2838 34.328C45.5158 33.624 44.4704 33.272 43.1478 33.272C41.6331 33.272 40.3958 33.7627 39.4358 34.744C38.4971 35.7253 38.0278 37.1867 38.0278 39.128V47H35.4998ZM61.7488 47.448C60.4048 47.448 59.1674 47.128 58.0368 46.488C56.9061 45.848 56.0101 44.92 55.3488 43.704C54.6874 42.488 54.3568 41.048 54.3568 39.384V38.968C54.3568 37.304 54.6874 35.8747 55.3488 34.68C56.0101 33.464 56.8954 32.536 58.0048 31.896C59.1354 31.2347 60.3834 30.904 61.7488 30.904C62.8368 30.904 63.7541 31.0533 64.5008 31.352C65.2688 31.6293 65.8874 31.992 66.3568 32.44C66.8261 32.8667 67.1888 33.3253 67.4448 33.816H67.8928V24.6H70.4208V47H67.9568V44.408H67.5088C67.0821 45.1973 66.4208 45.9013 65.5248 46.52C64.6288 47.1387 63.3701 47.448 61.7488 47.448ZM62.4208 45.208C64.0421 45.208 65.3541 44.696 66.3568 43.672C67.3808 42.6267 67.8928 41.176 67.8928 39.32V39.032C67.8928 37.176 67.3808 35.736 66.3568 34.712C65.3541 33.6667 64.0421 33.144 62.4208 33.144C60.8208 33.144 59.4981 33.6667 58.4528 34.712C57.4288 35.736 56.9168 37.176 56.9168 39.032V39.32C56.9168 41.176 57.4288 42.6267 58.4528 43.672C59.4981 44.696 60.8208 45.208 62.4208 45.208ZM75.7185 47V31.352H78.2465V47H75.7185ZM76.9985 28.92C76.4438 28.92 75.9745 28.7387 75.5905 28.376C75.2278 28.0133 75.0465 27.5547 75.0465 27C75.0465 26.424 75.2278 25.9547 75.5905 25.592C75.9745 25.2293 76.4438 25.048 76.9985 25.048C77.5532 25.048 78.0118 25.2293 78.3745 25.592C78.7372 25.9547 78.9185 26.424 78.9185 27C78.9185 27.5547 78.7372 28.0133 78.3745 28.376C78.0118 28.7387 77.5532 28.92 76.9985 28.92ZM90.7303 47.448C89.1516 47.448 87.7649 47.1173 86.5703 46.456C85.3756 45.7733 84.4476 44.824 83.7863 43.608C83.1249 42.392 82.7943 40.984 82.7943 39.384V39C82.7943 37.3787 83.1249 35.96 83.7863 34.744C84.4476 33.528 85.3649 32.5893 86.5383 31.928C87.7116 31.2453 89.0556 30.904 90.5703 30.904C92.0423 30.904 93.3436 31.224 94.4743 31.864C95.6049 32.4827 96.4903 33.3787 97.1303 34.552C97.7703 35.7253 98.0903 37.1013 98.0903 38.68V39.832H85.3223C85.3863 41.5173 85.9303 42.84 86.9543 43.8C87.9783 44.7387 89.2583 45.208 90.7943 45.208C92.1383 45.208 93.1729 44.8987 93.8983 44.28C94.6236 43.6613 95.1783 42.9253 95.5623 42.072L97.7383 43.128C97.4183 43.7893 96.9703 44.4507 96.3943 45.112C95.8396 45.7733 95.1036 46.328 94.1863 46.776C93.2903 47.224 92.1383 47.448 90.7303 47.448ZM85.3543 37.752H95.5303C95.4449 36.3013 94.9436 35.1707 94.0263 34.36C93.1303 33.5493 91.9783 33.144 90.5703 33.144C89.1409 33.144 87.9676 33.5493 87.0503 34.36C86.1329 35.1707 85.5676 36.3013 85.3543 37.752ZM117.343 47.448C115.999 47.448 114.761 47.128 113.631 46.488C112.5 45.848 111.604 44.92 110.943 43.704C110.281 42.488 109.951 41.048 109.951 39.384V38.968C109.951 37.304 110.281 35.8747 110.943 34.68C111.604 33.464 112.489 32.536 113.599 31.896C114.729 31.2347 115.977 30.904 117.343 30.904C118.431 30.904 119.348 31.0533 120.095 31.352C120.863 31.6293 121.481 31.992 121.951 32.44C122.42 32.8667 122.783 33.3253 123.039 33.816H123.487V24.6H126.015V47H123.551V44.408H123.103C122.676 45.1973 122.015 45.9013 121.119 46.52C120.223 47.1387 118.964 47.448 117.343 47.448ZM118.015 45.208C119.636 45.208 120.948 44.696 121.951 43.672C122.975 42.6267 123.487 41.176 123.487 39.32V39.032C123.487 37.176 122.975 35.736 121.951 34.712C120.948 33.6667 119.636 33.144 118.015 33.144C116.415 33.144 115.092 33.6667 114.047 34.712C113.023 35.736 112.511 37.176 112.511 39.032V39.32C112.511 41.176 113.023 42.6267 114.047 43.672C115.092 44.696 116.415 45.208 118.015 45.208ZM138.48 47.448C136.902 47.448 135.515 47.1173 134.32 46.456C133.126 45.7733 132.198 44.824 131.536 43.608C130.875 42.392 130.544 40.984 130.544 39.384V39C130.544 37.3787 130.875 35.96 131.536 34.744C132.198 33.528 133.115 32.5893 134.288 31.928C135.462 31.2453 136.806 30.904 138.32 30.904C139.792 30.904 141.094 31.224 142.224 31.864C143.355 32.4827 144.24 33.3787 144.88 34.552C145.52 35.7253 145.84 37.1013 145.84 38.68V39.832H133.072C133.136 41.5173 133.68 42.84 134.704 43.8C135.728 44.7387 137.008 45.208 138.544 45.208C139.888 45.208 140.923 44.8987 141.648 44.28C142.374 43.6613 142.928 42.9253 143.312 42.072L145.488 43.128C145.168 43.7893 144.72 44.4507 144.144 45.112C143.59 45.7733 142.854 46.328 141.936 46.776C141.04 47.224 139.888 47.448 138.48 47.448ZM133.104 37.752H143.28C143.195 36.3013 142.694 35.1707 141.776 34.36C140.88 33.5493 139.728 33.144 138.32 33.144C136.891 33.144 135.718 33.5493 134.8 34.36C133.883 35.1707 133.318 36.3013 133.104 37.752ZM153.562 47L147.962 31.352H150.65L155.354 45.112H155.802L160.506 31.352H163.194L157.594 47H153.562ZM173.355 47.448C171.777 47.448 170.39 47.1173 169.195 46.456C168.001 45.7733 167.073 44.824 166.411 43.608C165.75 42.392 165.419 40.984 165.419 39.384V39C165.419 37.3787 165.75 35.96 166.411 34.744C167.073 33.528 167.99 32.5893 169.163 31.928C170.337 31.2453 171.681 30.904 173.195 30.904C174.667 30.904 175.969 31.224 177.099 31.864C178.23 32.4827 179.115 33.3787 179.755 34.552C180.395 35.7253 180.715 37.1013 180.715 38.68V39.832H167.947C168.011 41.5173 168.555 42.84 169.579 43.8C170.603 44.7387 171.883 45.208 173.419 45.208C174.763 45.208 175.798 44.8987 176.523 44.28C177.249 43.6613 177.803 42.9253 178.187 42.072L180.363 43.128C180.043 43.7893 179.595 44.4507 179.019 45.112C178.465 45.7733 177.729 46.328 176.811 46.776C175.915 47.224 174.763 47.448 173.355 47.448ZM167.979 37.752H178.155C178.07 36.3013 177.569 35.1707 176.651 34.36C175.755 33.5493 174.603 33.144 173.195 33.144C171.766 33.144 170.593 33.5493 169.675 34.36C168.758 35.1707 168.193 36.3013 167.979 37.752ZM185.125 47V24.6H187.653V47H185.125ZM200.201 47.448C198.622 47.448 197.225 47.1173 196.009 46.456C194.814 45.7947 193.875 44.8667 193.193 43.672C192.531 42.456 192.201 41.0267 192.201 39.384V38.968C192.201 37.3467 192.531 35.928 193.193 34.712C193.875 33.496 194.814 32.5573 196.009 31.896C197.225 31.2347 198.622 30.904 200.201 30.904C201.779 30.904 203.166 31.2347 204.361 31.896C205.577 32.5573 206.515 33.496 207.177 34.712C207.859 35.928 208.201 37.3467 208.201 38.968V39.384C208.201 41.0267 207.859 42.456 207.177 43.672C206.515 44.8667 205.577 45.7947 204.361 46.456C203.166 47.1173 201.779 47.448 200.201 47.448ZM200.201 45.176C201.865 45.176 203.187 44.6533 204.169 43.608C205.171 42.5413 205.673 41.112 205.673 39.32V39.032C205.673 37.24 205.171 35.8213 204.169 34.776C203.187 33.7093 201.865 33.176 200.201 33.176C198.558 33.176 197.235 33.7093 196.233 34.776C195.23 35.8213 194.729 37.24 194.729 39.032V39.32C194.729 41.112 195.23 42.5413 196.233 43.608C197.235 44.6533 198.558 45.176 200.201 45.176ZM212.75 53.4V31.352H215.214V33.944H215.662C216.067 33.1547 216.718 32.4507 217.614 31.832C218.531 31.2133 219.8 30.904 221.422 30.904C222.766 30.904 223.992 31.2347 225.102 31.896C226.232 32.536 227.128 33.4533 227.79 34.648C228.472 35.8427 228.814 37.2827 228.814 38.968V39.384C228.814 41.048 228.483 42.488 227.822 43.704C227.16 44.92 226.264 45.848 225.134 46.488C224.024 47.128 222.787 47.448 221.422 47.448C220.334 47.448 219.406 47.2987 218.638 47C217.891 46.7227 217.283 46.36 216.814 45.912C216.344 45.464 215.982 45.0053 215.726 44.536H215.278V53.4H212.75ZM220.75 45.208C222.371 45.208 223.683 44.696 224.686 43.672C225.71 42.6267 226.222 41.176 226.222 39.32V39.032C226.222 37.176 225.71 35.736 224.686 34.712C223.683 33.6667 222.371 33.144 220.75 33.144C219.15 33.144 217.827 33.6667 216.782 34.712C215.758 35.736 215.246 37.176 215.246 39.032V39.32C215.246 41.176 215.758 42.6267 216.782 43.672C217.827 44.696 219.15 45.208 220.75 45.208ZM240.512 47.448C238.933 47.448 237.546 47.1173 236.352 46.456C235.157 45.7733 234.229 44.824 233.568 43.608C232.906 42.392 232.576 40.984 232.576 39.384V39C232.576 37.3787 232.906 35.96 233.568 34.744C234.229 33.528 235.146 32.5893 236.32 31.928C237.493 31.2453 238.837 30.904 240.352 30.904C241.824 30.904 243.125 31.224 244.256 31.864C245.386 32.4827 246.272 33.3787 246.912 34.552C247.552 35.7253 247.872 37.1013 247.872 38.68V39.832H235.104C235.168 41.5173 235.712 42.84 236.736 43.8C237.76 44.7387 239.04 45.208 240.576 45.208C241.92 45.208 242.954 44.8987 243.68 44.28C244.405 43.6613 244.96 42.9253 245.344 42.072L247.52 43.128C247.2 43.7893 246.752 44.4507 246.176 45.112C245.621 45.7733 244.885 46.328 243.968 46.776C243.072 47.224 241.92 47.448 240.512 47.448ZM235.136 37.752H245.312C245.226 36.3013 244.725 35.1707 243.808 34.36C242.912 33.5493 241.76 33.144 240.352 33.144C238.922 33.144 237.749 33.5493 236.832 34.36C235.914 35.1707 235.349 36.3013 235.136 37.752ZM252.281 47V31.352H254.745V33.272H255.193C255.47 32.5893 255.897 32.088 256.473 31.768C257.049 31.448 257.806 31.288 258.745 31.288H260.601V33.592H258.585C257.454 33.592 256.537 33.912 255.833 34.552C255.15 35.1707 254.809 36.1413 254.809 37.464V47H252.281ZM270.335 47.448C268.394 47.448 266.751 47 265.407 46.104C264.084 45.208 263.284 43.7893 263.007 41.848L265.407 41.304C265.578 42.328 265.898 43.1387 266.367 43.736C266.836 44.312 267.412 44.728 268.095 44.984C268.799 45.2187 269.546 45.336 270.335 45.336C271.508 45.336 272.436 45.1013 273.119 44.632C273.802 44.1627 274.143 43.5333 274.143 42.744C274.143 41.9333 273.812 41.368 273.151 41.048C272.511 40.7067 271.626 40.4293 270.495 40.216L269.183 39.992C268.18 39.8213 267.263 39.5547 266.431 39.192C265.599 38.8293 264.938 38.3387 264.447 37.72C263.956 37.1013 263.711 36.3227 263.711 35.384C263.711 33.976 264.255 32.8773 265.343 32.088C266.431 31.2987 267.871 30.904 269.663 30.904C271.434 30.904 272.863 31.3093 273.951 32.12C275.06 32.9093 275.775 34.0293 276.095 35.48L273.727 36.088C273.535 34.9573 273.076 34.168 272.351 33.72C271.626 33.2507 270.73 33.016 269.663 33.016C268.596 33.016 267.754 33.2187 267.135 33.624C266.516 34.008 266.207 34.584 266.207 35.352C266.207 36.0987 266.495 36.6533 267.071 37.016C267.668 37.3573 268.458 37.6133 269.439 37.784L270.751 38.008C271.86 38.2 272.852 38.4667 273.727 38.808C274.623 39.128 275.327 39.5973 275.839 40.216C276.372 40.8347 276.639 41.6453 276.639 42.648C276.639 44.184 276.063 45.368 274.911 46.2C273.78 47.032 272.255 47.448 270.335 47.448Z" fill="white"/>
<mask id="path-3-inside-1_152_251" fill="white">
<path d="M0 10H369V81H0V10Z"/>
</mask>
<path d="M369 80H0V82H369V80Z" fill="#F5FFFA" mask="url(#path-3-inside-1_152_251)"/>
<rect x="0.5" y="0.5" width="368" height="240" stroke="#F5FFFA"/>
</svg>
