<svg width="369" height="241" viewBox="0 0 369 241" fill="none" xmlns="http://www.w3.org/2000/svg">
<path d="M48.9033 123.237C48.4661 123.237 48.0619 123.138 47.6909 122.939C47.3332 122.727 47.0483 122.442 46.8363 122.084C46.6242 121.727 46.5182 121.329 46.5182 120.892C46.5182 120.441 46.6242 120.037 46.8363 119.68C47.0483 119.322 47.3332 119.043 47.6909 118.845C48.0487 118.633 48.4528 118.527 48.9033 118.527C49.3539 118.527 49.758 118.633 50.1158 118.845C50.4868 119.043 50.7717 119.322 50.9704 119.68C51.1824 120.037 51.2884 120.441 51.2884 120.892C51.2884 121.342 51.1824 121.747 50.9704 122.104C50.7584 122.462 50.4669 122.74 50.0959 122.939C49.7381 123.138 49.3406 123.237 48.9033 123.237ZM70.0348 126.278C69.0277 126.278 68.1267 126.099 67.3317 125.742C66.5366 125.384 65.9072 124.847 65.4435 124.132C64.993 123.403 64.7677 122.495 64.7677 121.409V120.991H66.4174V121.409C66.4174 122.561 66.7553 123.423 67.4311 123.993C68.1068 124.549 68.9747 124.827 70.0348 124.827C71.1213 124.827 71.9495 124.582 72.5193 124.092C73.089 123.602 73.3739 122.986 73.3739 122.243C73.3739 121.727 73.248 121.316 72.9963 121.011C72.7445 120.706 72.3867 120.461 71.923 120.276C71.4592 120.077 70.9159 119.905 70.2932 119.759L69.2398 119.501C68.4315 119.289 67.7159 119.03 67.0932 118.725C66.4704 118.421 65.9801 118.023 65.6224 117.533C65.2778 117.029 65.1056 116.387 65.1056 115.605C65.1056 114.823 65.3043 114.147 65.7019 113.578C66.0994 113.008 66.6493 112.571 67.3516 112.266C68.0538 111.961 68.8754 111.809 69.8161 111.809C70.7569 111.809 71.5983 111.974 72.3404 112.306C73.0824 112.624 73.672 113.101 74.1093 113.737C74.5466 114.359 74.7652 115.148 74.7652 116.102V116.937H73.1155V116.102C73.1155 115.426 72.9698 114.883 72.6783 114.472C72.4 114.061 72.0091 113.757 71.5056 113.558C71.0153 113.359 70.4522 113.26 69.8161 113.26C68.9019 113.26 68.1665 113.465 67.6099 113.876C67.0534 114.273 66.7752 114.843 66.7752 115.585C66.7752 116.075 66.8878 116.473 67.113 116.778C67.3516 117.082 67.6894 117.334 68.1267 117.533C68.564 117.718 69.0874 117.884 69.6969 118.03L70.7503 118.288C71.5453 118.46 72.2675 118.699 72.9168 119.004C73.566 119.295 74.0762 119.699 74.4472 120.216C74.8315 120.72 75.0236 121.382 75.0236 122.204C75.0236 123.025 74.8182 123.741 74.4075 124.35C73.9967 124.96 73.4137 125.437 72.6584 125.781C71.9164 126.113 71.0418 126.278 70.0348 126.278ZM69.2795 128.306V109.781H70.8099V128.306H69.2795ZM82.3634 126.278C80.7865 126.278 79.5277 125.814 78.587 124.887C77.6594 123.946 77.1957 122.542 77.1957 120.673V117.414C77.1957 115.559 77.6594 114.161 78.587 113.22C79.5277 112.279 80.7865 111.809 82.3634 111.809C83.9534 111.809 85.2122 112.279 86.1398 113.22C87.0805 114.161 87.5509 115.559 87.5509 117.414V120.673C87.5509 122.542 87.0805 123.946 86.1398 124.887C85.2122 125.814 83.9534 126.278 82.3634 126.278ZM82.3634 124.827C83.5559 124.827 84.4503 124.47 85.0466 123.754C85.6429 123.039 85.941 122.038 85.941 120.753V117.314C85.941 116.029 85.6362 115.035 85.0267 114.333C84.4172 113.617 83.5294 113.26 82.3634 113.26C81.1973 113.26 80.3095 113.617 79.7 114.333C79.1037 115.048 78.8056 116.042 78.8056 117.314V120.753C78.8056 122.051 79.1037 123.058 79.7 123.774C80.2963 124.476 81.1841 124.827 82.3634 124.827ZM90.9298 126.278C90.5455 126.278 90.2209 126.152 89.9559 125.901C89.7041 125.649 89.5783 125.324 89.5783 124.927C89.5783 124.529 89.7041 124.205 89.9559 123.953C90.2209 123.701 90.5455 123.575 90.9298 123.575C91.3273 123.575 91.652 123.701 91.9037 123.953C92.1555 124.205 92.2814 124.529 92.2814 124.927C92.2814 125.324 92.1555 125.649 91.9037 125.901C91.652 126.152 91.3273 126.278 90.9298 126.278ZM99.5023 126.278C97.9255 126.278 96.6667 125.814 95.7259 124.887C94.7984 123.946 94.3346 122.542 94.3346 120.673V117.414C94.3346 115.559 94.7984 114.161 95.7259 113.22C96.6667 112.279 97.9255 111.809 99.5023 111.809C101.092 111.809 102.351 112.279 103.279 113.22C104.22 114.161 104.69 115.559 104.69 117.414V120.673C104.69 122.542 104.22 123.946 103.279 124.887C102.351 125.814 101.092 126.278 99.5023 126.278ZM99.5023 124.827C100.695 124.827 101.589 124.47 102.186 123.754C102.782 123.039 103.08 122.038 103.08 120.753V117.314C103.08 116.029 102.775 115.035 102.166 114.333C101.556 113.617 100.668 113.26 99.5023 113.26C98.3363 113.26 97.4485 113.617 96.839 114.333C96.2427 115.048 95.9446 116.042 95.9446 117.314V120.753C95.9446 122.051 96.2427 123.058 96.839 123.774C97.4353 124.476 98.323 124.827 99.5023 124.827ZM113.766 126V123.158H106.511V121.25L112.355 112.087H115.376V121.707H117.761V123.158H115.376V126H113.766ZM108.121 121.707H113.766V113.061H113.487L108.121 121.468V121.707ZM128.63 126C128.073 126 127.642 125.848 127.338 125.543C127.046 125.238 126.9 124.821 126.9 124.291V117.652H123.979V116.281H126.9V112.822H128.47V116.281H131.651V117.652H128.47V124.052C128.47 124.45 128.663 124.648 129.047 124.648H131.213V126H128.63ZM134.194 126V116.281H135.764V126H134.194ZM134.989 114.77C134.644 114.77 134.353 114.658 134.114 114.432C133.889 114.207 133.777 113.922 133.777 113.578C133.777 113.22 133.889 112.928 134.114 112.703C134.353 112.478 134.644 112.365 134.989 112.365C135.333 112.365 135.618 112.478 135.844 112.703C136.069 112.928 136.182 113.22 136.182 113.578C136.182 113.922 136.069 114.207 135.844 114.432C135.618 114.658 135.333 114.77 134.989 114.77ZM139.066 126V112.087H140.636V126H139.066ZM143.938 126V112.087H145.508V126H143.938ZM158.267 126.278C157.247 126.278 156.366 126.086 155.624 125.702C154.882 125.304 154.305 124.761 153.895 124.072C153.484 123.37 153.278 122.561 153.278 121.647V121.409H154.888V121.588C154.888 122.634 155.193 123.436 155.803 123.993C156.412 124.549 157.22 124.827 158.227 124.827C159.288 124.827 160.116 124.529 160.712 123.933C161.308 123.337 161.606 122.522 161.606 121.488V121.309C161.606 120.316 161.315 119.527 160.732 118.944C160.162 118.348 159.42 118.05 158.506 118.05C157.976 118.05 157.538 118.136 157.194 118.308C156.849 118.467 156.578 118.672 156.379 118.924C156.18 119.163 156.015 119.395 155.882 119.62H153.696V112.087H162.839V113.538H155.306V118.348H155.584C155.73 118.083 155.929 117.824 156.18 117.573C156.445 117.321 156.796 117.109 157.234 116.937C157.671 116.764 158.214 116.678 158.864 116.678C159.672 116.678 160.401 116.864 161.05 117.235C161.712 117.606 162.236 118.136 162.62 118.825C163.018 119.514 163.216 120.335 163.216 121.289V121.508C163.216 122.449 163.018 123.277 162.62 123.993C162.223 124.708 161.653 125.271 160.911 125.682C160.169 126.08 159.288 126.278 158.267 126.278ZM170.523 126.278C168.946 126.278 167.688 125.814 166.747 124.887C165.819 123.946 165.356 122.542 165.356 120.673V117.414C165.356 115.559 165.819 114.161 166.747 113.22C167.688 112.279 168.946 111.809 170.523 111.809C172.113 111.809 173.372 112.279 174.3 113.22C175.24 114.161 175.711 115.559 175.711 117.414V120.673C175.711 122.542 175.24 123.946 174.3 124.887C173.372 125.814 172.113 126.278 170.523 126.278ZM170.523 124.827C171.716 124.827 172.61 124.47 173.207 123.754C173.803 123.039 174.101 122.038 174.101 120.753V117.314C174.101 116.029 173.796 115.035 173.187 114.333C172.577 113.617 171.689 113.26 170.523 113.26C169.357 113.26 168.469 113.617 167.86 114.333C167.264 115.048 166.966 116.042 166.966 117.314V120.753C166.966 122.051 167.264 123.058 167.86 123.774C168.456 124.476 169.344 124.827 170.523 124.827ZM178.546 126V112.087H180.116V120.276H180.394L184.846 116.281H187.033L181.646 121.011L187.192 126H185.025L180.394 121.766H180.116V126H178.546ZM196.81 126L193.332 116.281H195.001L197.923 124.827H198.201L201.123 116.281H202.793L199.314 126H196.81ZM209.104 126.278C208.124 126.278 207.262 126.073 206.52 125.662C205.778 125.238 205.202 124.648 204.791 123.893C204.38 123.138 204.175 122.263 204.175 121.27V121.031C204.175 120.024 204.38 119.143 204.791 118.388C205.202 117.632 205.772 117.049 206.5 116.639C207.229 116.214 208.064 116.002 209.005 116.002C209.919 116.002 210.727 116.201 211.43 116.599C212.132 116.983 212.682 117.54 213.079 118.268C213.477 118.997 213.676 119.852 213.676 120.832V121.548H205.745C205.785 122.595 206.123 123.416 206.759 124.012C207.395 124.595 208.19 124.887 209.144 124.887C209.979 124.887 210.621 124.695 211.072 124.311C211.522 123.926 211.867 123.469 212.105 122.939L213.457 123.595C213.258 124.006 212.98 124.417 212.622 124.827C212.278 125.238 211.821 125.583 211.251 125.861C210.694 126.139 209.979 126.278 209.104 126.278ZM205.765 120.256H212.086C212.033 119.355 211.721 118.653 211.151 118.149C210.595 117.646 209.879 117.394 209.005 117.394C208.117 117.394 207.388 117.646 206.818 118.149C206.249 118.653 205.898 119.355 205.765 120.256ZM216.414 126V116.281H217.945V117.473H218.223C218.395 117.049 218.66 116.738 219.018 116.539C219.376 116.34 219.846 116.241 220.429 116.241H221.582V117.672H220.33C219.628 117.672 219.058 117.871 218.621 118.268C218.197 118.653 217.985 119.255 217.985 120.077V126H216.414ZM223.907 126V116.281H225.477V126H223.907ZM224.702 114.77C224.357 114.77 224.066 114.658 223.827 114.432C223.602 114.207 223.489 113.922 223.489 113.578C223.489 113.22 223.602 112.928 223.827 112.703C224.066 112.478 224.357 112.365 224.702 112.365C225.046 112.365 225.331 112.478 225.556 112.703C225.782 112.928 225.894 113.22 225.894 113.578C225.894 113.922 225.782 114.207 225.556 114.432C225.331 114.658 225.046 114.77 224.702 114.77ZM230.687 126V117.652H227.705V116.281H230.687V113.796C230.687 113.266 230.832 112.849 231.124 112.544C231.429 112.239 231.859 112.087 232.416 112.087H234.801V113.439H232.853C232.456 113.439 232.257 113.637 232.257 114.035V116.281H237.087V117.652H232.257V126H230.687ZM237.087 126V116.281H238.657V126H237.087ZM237.862 114.79C237.531 114.79 237.246 114.677 237.007 114.452C236.782 114.227 236.669 113.942 236.669 113.598C236.669 113.24 236.782 112.955 237.007 112.743C237.246 112.518 237.531 112.405 237.862 112.405C238.22 112.405 238.511 112.518 238.736 112.743C238.962 112.955 239.074 113.24 239.074 113.598C239.074 113.942 238.962 114.227 238.736 114.452C238.511 114.677 238.22 114.79 237.862 114.79ZM246.41 126.278C245.43 126.278 244.568 126.073 243.826 125.662C243.084 125.238 242.508 124.648 242.097 123.893C241.686 123.138 241.481 122.263 241.481 121.27V121.031C241.481 120.024 241.686 119.143 242.097 118.388C242.508 117.632 243.078 117.049 243.806 116.639C244.535 116.214 245.37 116.002 246.311 116.002C247.225 116.002 248.033 116.201 248.736 116.599C249.438 116.983 249.988 117.54 250.385 118.268C250.783 118.997 250.982 119.852 250.982 120.832V121.548H243.051C243.091 122.595 243.429 123.416 244.065 124.012C244.701 124.595 245.496 124.887 246.45 124.887C247.285 124.887 247.927 124.695 248.378 124.311C248.828 123.926 249.173 123.469 249.411 122.939L250.763 123.595C250.564 124.006 250.286 124.417 249.928 124.827C249.584 125.238 249.126 125.583 248.557 125.861C248 126.139 247.285 126.278 246.41 126.278ZM243.071 120.256H249.391C249.338 119.355 249.027 118.653 248.457 118.149C247.901 117.646 247.185 117.394 246.311 117.394C245.423 117.394 244.694 117.646 244.124 118.149C243.555 118.653 243.203 119.355 243.071 120.256ZM257.636 126.278C256.43 126.278 255.41 126 254.575 125.443C253.753 124.887 253.257 124.006 253.084 122.8L254.575 122.462C254.681 123.098 254.88 123.602 255.171 123.973C255.463 124.33 255.821 124.589 256.245 124.748C256.682 124.894 257.146 124.966 257.636 124.966C258.365 124.966 258.941 124.821 259.365 124.529C259.789 124.238 260.001 123.847 260.001 123.357C260.001 122.853 259.796 122.502 259.385 122.303C258.987 122.091 258.438 121.919 257.735 121.786L256.92 121.647C256.298 121.541 255.728 121.376 255.211 121.15C254.694 120.925 254.283 120.62 253.979 120.236C253.674 119.852 253.522 119.368 253.522 118.785C253.522 117.911 253.859 117.228 254.535 116.738C255.211 116.248 256.105 116.002 257.218 116.002C258.318 116.002 259.206 116.254 259.882 116.758C260.571 117.248 261.015 117.944 261.214 118.845L259.743 119.222C259.623 118.52 259.339 118.03 258.888 117.752C258.438 117.46 257.881 117.314 257.218 117.314C256.556 117.314 256.033 117.44 255.648 117.692C255.264 117.93 255.072 118.288 255.072 118.765C255.072 119.229 255.251 119.573 255.609 119.799C255.98 120.011 256.47 120.17 257.079 120.276L257.894 120.415C258.583 120.534 259.199 120.7 259.743 120.912C260.299 121.111 260.736 121.402 261.054 121.786C261.386 122.171 261.551 122.674 261.551 123.297C261.551 124.251 261.194 124.986 260.478 125.503C259.776 126.02 258.828 126.278 257.636 126.278ZM48.9033 156.237C48.4661 156.237 48.0619 156.138 47.6909 155.939C47.3332 155.727 47.0483 155.442 46.8363 155.084C46.6242 154.727 46.5182 154.329 46.5182 153.892C46.5182 153.441 46.6242 153.037 46.8363 152.68C47.0483 152.322 47.3332 152.043 47.6909 151.845C48.0487 151.633 48.4528 151.527 48.9033 151.527C49.3539 151.527 49.758 151.633 50.1158 151.845C50.4868 152.043 50.7717 152.322 50.9704 152.68C51.1824 153.037 51.2884 153.441 51.2884 153.892C51.2884 154.342 51.1824 154.747 50.9704 155.104C50.7584 155.462 50.4669 155.74 50.0959 155.939C49.7381 156.138 49.3406 156.237 48.9033 156.237ZM70.1739 159.278C68.5971 159.278 67.3383 158.814 66.3975 157.887C65.47 156.946 65.0062 155.542 65.0062 153.673V150.414C65.0062 148.559 65.47 147.161 66.3975 146.22C67.3383 145.279 68.5971 144.809 70.1739 144.809C71.764 144.809 73.0228 145.279 73.9503 146.22C74.8911 147.161 75.3615 148.559 75.3615 150.414V153.673C75.3615 155.542 74.8911 156.946 73.9503 157.887C73.0228 158.814 71.764 159.278 70.1739 159.278ZM70.1739 157.827C71.3665 157.827 72.2609 157.47 72.8571 156.754C73.4534 156.039 73.7516 155.038 73.7516 153.753V150.314C73.7516 149.029 73.4468 148.035 72.8373 147.333C72.2277 146.617 71.34 146.26 70.1739 146.26C69.0079 146.26 68.1201 146.617 67.5106 147.333C66.9143 148.048 66.6161 149.042 66.6161 150.314V153.753C66.6161 155.051 66.9143 156.058 67.5106 156.774C68.1068 157.476 68.9946 157.827 70.1739 157.827ZM78.7404 159.278C78.3561 159.278 78.0315 159.152 77.7665 158.901C77.5147 158.649 77.3888 158.324 77.3888 157.927C77.3888 157.529 77.5147 157.205 77.7665 156.953C78.0315 156.701 78.3561 156.575 78.7404 156.575C79.1379 156.575 79.4625 156.701 79.7143 156.953C79.966 157.205 80.0919 157.529 80.0919 157.927C80.0919 158.324 79.966 158.649 79.7143 158.901C79.4625 159.152 79.1379 159.278 78.7404 159.278ZM87.3129 159.278C85.7361 159.278 84.4773 158.814 83.5365 157.887C82.609 156.946 82.1452 155.542 82.1452 153.673V150.414C82.1452 148.559 82.609 147.161 83.5365 146.22C84.4773 145.279 85.7361 144.809 87.3129 144.809C88.903 144.809 90.1618 145.279 91.0893 146.22C92.0301 147.161 92.5005 148.559 92.5005 150.414V153.673C92.5005 155.542 92.0301 156.946 91.0893 157.887C90.1618 158.814 88.903 159.278 87.3129 159.278ZM87.3129 157.827C88.5054 157.827 89.3998 157.47 89.9961 156.754C90.5924 156.039 90.8905 155.038 90.8905 153.753V150.314C90.8905 149.029 90.5858 148.035 89.9762 147.333C89.3667 146.617 88.4789 146.26 87.3129 146.26C86.1468 146.26 85.2591 146.617 84.6495 147.333C84.0533 148.048 83.7551 149.042 83.7551 150.314V153.753C83.7551 155.051 84.0533 156.058 84.6495 156.774C85.2458 157.476 86.1336 157.827 87.3129 157.827ZM99.688 159.278C98.6678 159.278 97.7866 159.086 97.0446 158.702C96.3025 158.304 95.7261 157.761 95.3154 157.072C94.9046 156.37 94.6992 155.561 94.6992 154.647V154.409H96.3092V154.588C96.3092 155.634 96.6139 156.436 97.2234 156.993C97.833 157.549 98.6413 157.827 99.6483 157.827C100.708 157.827 101.536 157.529 102.133 156.933C102.729 156.337 103.027 155.522 103.027 154.488V154.309C103.027 153.316 102.736 152.527 102.153 151.944C101.583 151.348 100.841 151.05 99.9266 151.05C99.3965 151.05 98.9593 151.136 98.6148 151.308C98.2702 151.467 97.9986 151.672 97.7998 151.924C97.6011 152.163 97.4355 152.395 97.3029 152.62H95.1166V145.087H104.259V146.538H96.7266V151.348H97.0048C97.1506 151.083 97.3493 150.824 97.6011 150.573C97.8661 150.321 98.2172 150.109 98.6545 149.937C99.0918 149.764 99.635 149.678 100.284 149.678C101.093 149.678 101.821 149.864 102.471 150.235C103.133 150.606 103.657 151.136 104.041 151.825C104.438 152.514 104.637 153.335 104.637 154.289V154.508C104.637 155.449 104.438 156.277 104.041 156.993C103.643 157.708 103.074 158.271 102.332 158.682C101.589 159.08 100.708 159.278 99.688 159.278ZM112.338 162.975V149.281H113.869V150.891H114.147C114.399 150.4 114.803 149.963 115.359 149.579C115.929 149.195 116.718 149.002 117.725 149.002C118.559 149.002 119.321 149.208 120.01 149.619C120.713 150.016 121.269 150.586 121.68 151.328C122.104 152.07 122.316 152.964 122.316 154.011V154.27C122.316 155.303 122.111 156.198 121.7 156.953C121.289 157.708 120.733 158.284 120.03 158.682C119.341 159.08 118.573 159.278 117.725 159.278C117.049 159.278 116.473 159.186 115.995 159C115.532 158.828 115.154 158.602 114.863 158.324C114.571 158.046 114.346 157.761 114.187 157.47H113.909V162.975H112.338ZM117.307 157.887C118.314 157.887 119.129 157.569 119.752 156.933C120.388 156.284 120.706 155.383 120.706 154.23V154.051C120.706 152.898 120.388 152.004 119.752 151.368C119.129 150.718 118.314 150.394 117.307 150.394C116.314 150.394 115.492 150.718 114.843 151.368C114.207 152.004 113.889 152.898 113.889 154.051V154.23C113.889 155.383 114.207 156.284 114.843 156.933C115.492 157.569 116.314 157.887 117.307 157.887ZM129.582 159.278C128.601 159.278 127.74 159.073 126.998 158.662C126.256 158.238 125.679 157.648 125.269 156.893C124.858 156.138 124.652 155.263 124.652 154.27V154.031C124.652 153.024 124.858 152.143 125.269 151.388C125.679 150.632 126.249 150.049 126.978 149.639C127.707 149.214 128.542 149.002 129.482 149.002C130.397 149.002 131.205 149.201 131.907 149.599C132.609 149.983 133.159 150.54 133.557 151.268C133.954 151.997 134.153 152.852 134.153 153.832V154.548H126.223C126.262 155.595 126.6 156.416 127.236 157.012C127.872 157.595 128.667 157.887 129.621 157.887C130.456 157.887 131.099 157.695 131.549 157.311C132 156.926 132.344 156.469 132.583 155.939L133.934 156.595C133.736 157.006 133.457 157.417 133.1 157.827C132.755 158.238 132.298 158.583 131.728 158.861C131.172 159.139 130.456 159.278 129.582 159.278ZM126.243 153.256H132.563C132.51 152.355 132.199 151.653 131.629 151.149C131.072 150.646 130.357 150.394 129.482 150.394C128.595 150.394 127.866 150.646 127.296 151.149C126.726 151.653 126.375 152.355 126.243 153.256ZM136.892 159V149.281H138.422V150.473H138.701C138.873 150.049 139.138 149.738 139.496 149.539C139.853 149.34 140.324 149.241 140.907 149.241H142.06V150.672H140.807C140.105 150.672 139.535 150.871 139.098 151.268C138.674 151.653 138.462 152.255 138.462 153.077V159H136.892ZM151.954 159L148.475 149.281H150.145L153.067 157.827H153.345L156.267 149.281H157.936L154.458 159H151.954ZM164.248 159.278C163.267 159.278 162.406 159.073 161.664 158.662C160.922 158.238 160.346 157.648 159.935 156.893C159.524 156.138 159.319 155.263 159.319 154.27V154.031C159.319 153.024 159.524 152.143 159.935 151.388C160.346 150.632 160.915 150.049 161.644 149.639C162.373 149.214 163.208 149.002 164.148 149.002C165.063 149.002 165.871 149.201 166.573 149.599C167.276 149.983 167.825 150.54 168.223 151.268C168.62 151.997 168.819 152.852 168.819 153.832V154.548H160.889C160.929 155.595 161.266 156.416 161.902 157.012C162.539 157.595 163.334 157.887 164.288 157.887C165.122 157.887 165.765 157.695 166.216 157.311C166.666 156.926 167.011 156.469 167.249 155.939L168.601 156.595C168.402 157.006 168.124 157.417 167.766 157.827C167.421 158.238 166.964 158.583 166.394 158.861C165.838 159.139 165.122 159.278 164.248 159.278ZM160.909 153.256H167.229C167.176 152.355 166.865 151.653 166.295 151.149C165.739 150.646 165.023 150.394 164.148 150.394C163.261 150.394 162.532 150.646 161.962 151.149C161.392 151.653 161.041 152.355 160.909 153.256ZM171.558 159V149.281H173.089V150.473H173.367C173.539 150.049 173.804 149.738 174.162 149.539C174.52 149.34 174.99 149.241 175.573 149.241H176.726V150.672H175.474C174.771 150.672 174.202 150.871 173.764 151.268C173.34 151.653 173.128 152.255 173.128 153.077V159H171.558ZM179.05 159V149.281H180.62V159H179.05ZM179.845 147.77C179.501 147.77 179.209 147.658 178.971 147.432C178.746 147.207 178.633 146.922 178.633 146.578C178.633 146.22 178.746 145.928 178.971 145.703C179.209 145.478 179.501 145.365 179.845 145.365C180.19 145.365 180.475 145.478 180.7 145.703C180.925 145.928 181.038 146.22 181.038 146.578C181.038 146.922 180.925 147.207 180.7 147.432C180.475 147.658 180.19 147.77 179.845 147.77ZM185.83 159V150.652H182.849V149.281H185.83V146.796C185.83 146.266 185.976 145.849 186.268 145.544C186.572 145.239 187.003 145.087 187.559 145.087H189.945V146.439H187.997C187.599 146.439 187.4 146.637 187.4 147.035V149.281H192.23V150.652H187.4V159H185.83ZM192.23 159V149.281H193.8V159H192.23ZM193.005 147.79C192.674 147.79 192.389 147.677 192.151 147.452C191.926 147.227 191.813 146.942 191.813 146.598C191.813 146.24 191.926 145.955 192.151 145.743C192.389 145.518 192.674 145.405 193.005 145.405C193.363 145.405 193.655 145.518 193.88 145.743C194.105 145.955 194.218 146.24 194.218 146.598C194.218 146.942 194.105 147.227 193.88 147.452C193.655 147.677 193.363 147.79 193.005 147.79ZM201.554 159.278C200.573 159.278 199.712 159.073 198.97 158.662C198.228 158.238 197.651 157.648 197.241 156.893C196.83 156.138 196.625 155.263 196.625 154.27V154.031C196.625 153.024 196.83 152.143 197.241 151.388C197.651 150.632 198.221 150.049 198.95 149.639C199.679 149.214 200.514 149.002 201.454 149.002C202.369 149.002 203.177 149.201 203.879 149.599C204.581 149.983 205.131 150.54 205.529 151.268C205.926 151.997 206.125 152.852 206.125 153.832V154.548H198.195C198.234 155.595 198.572 156.416 199.208 157.012C199.844 157.595 200.639 157.887 201.593 157.887C202.428 157.887 203.071 157.695 203.521 157.311C203.972 156.926 204.316 156.469 204.555 155.939L205.907 156.595C205.708 157.006 205.429 157.417 205.072 157.827C204.727 158.238 204.27 158.583 203.7 158.861C203.144 159.139 202.428 159.278 201.554 159.278ZM198.215 153.256H204.535C204.482 152.355 204.171 151.653 203.601 151.149C203.044 150.646 202.329 150.394 201.454 150.394C200.567 150.394 199.838 150.646 199.268 151.149C198.698 151.653 198.347 152.355 198.215 153.256ZM212.779 159.278C211.574 159.278 210.553 159 209.719 158.443C208.897 157.887 208.4 157.006 208.228 155.8L209.719 155.462C209.825 156.098 210.023 156.602 210.315 156.973C210.606 157.33 210.964 157.589 211.388 157.748C211.825 157.894 212.289 157.966 212.779 157.966C213.508 157.966 214.085 157.821 214.509 157.529C214.933 157.238 215.145 156.847 215.145 156.357C215.145 155.853 214.939 155.502 214.529 155.303C214.131 155.091 213.581 154.919 212.879 154.786L212.064 154.647C211.441 154.541 210.871 154.376 210.355 154.15C209.838 153.925 209.427 153.62 209.122 153.236C208.818 152.852 208.665 152.368 208.665 151.785C208.665 150.911 209.003 150.228 209.679 149.738C210.355 149.248 211.249 149.002 212.362 149.002C213.462 149.002 214.35 149.254 215.025 149.758C215.714 150.248 216.158 150.944 216.357 151.845L214.886 152.222C214.767 151.52 214.482 151.03 214.032 150.752C213.581 150.46 213.025 150.314 212.362 150.314C211.7 150.314 211.176 150.44 210.792 150.692C210.408 150.93 210.216 151.288 210.216 151.765C210.216 152.229 210.394 152.573 210.752 152.799C211.123 153.011 211.613 153.17 212.223 153.276L213.038 153.415C213.727 153.534 214.343 153.7 214.886 153.912C215.443 154.111 215.88 154.402 216.198 154.786C216.529 155.171 216.695 155.674 216.695 156.297C216.695 157.251 216.337 157.986 215.622 158.503C214.919 159.02 213.972 159.278 212.779 159.278ZM227.432 159.278C226.756 159.278 226.14 159.159 225.583 158.92C225.027 158.682 224.589 158.337 224.271 157.887C223.953 157.436 223.794 156.887 223.794 156.237C223.794 155.575 223.953 155.031 224.271 154.607C224.589 154.17 225.027 153.846 225.583 153.634C226.14 153.408 226.762 153.296 227.451 153.296H230.731V152.58C230.731 151.891 230.526 151.348 230.115 150.95C229.717 150.553 229.121 150.354 228.326 150.354C227.544 150.354 226.935 150.546 226.497 150.93C226.06 151.301 225.762 151.805 225.603 152.441L224.132 151.964C224.291 151.421 224.543 150.93 224.887 150.493C225.232 150.043 225.689 149.685 226.259 149.42C226.842 149.142 227.538 149.002 228.346 149.002C229.591 149.002 230.559 149.327 231.248 149.976C231.937 150.612 232.281 151.513 232.281 152.68V157.072C232.281 157.47 232.467 157.668 232.838 157.668H233.732V159H232.361C231.923 159 231.572 158.881 231.307 158.642C231.042 158.39 230.91 158.059 230.91 157.648V157.549H230.671C230.526 157.801 230.327 158.066 230.075 158.344C229.836 158.609 229.505 158.828 229.081 159C228.657 159.186 228.107 159.278 227.432 159.278ZM227.61 157.927C228.538 157.927 229.287 157.655 229.856 157.112C230.439 156.555 230.731 155.78 230.731 154.786V154.568H227.511C226.888 154.568 226.371 154.707 225.961 154.985C225.563 155.25 225.364 155.654 225.364 156.198C225.364 156.741 225.57 157.165 225.981 157.47C226.405 157.774 226.948 157.927 227.61 157.927ZM237.15 159V150.652H234.169V149.281H237.15V146.796C237.15 146.266 237.296 145.849 237.587 145.544C237.892 145.239 238.323 145.087 238.879 145.087H241.324V146.439H239.317C238.919 146.439 238.72 146.637 238.72 147.035V149.281H241.781V150.652H238.72V159H237.15ZM247.282 159C246.726 159 246.295 158.848 245.991 158.543C245.699 158.238 245.553 157.821 245.553 157.291V150.652H242.632V149.281H245.553V145.822H247.123V149.281H250.304V150.652H247.123V157.052C247.123 157.45 247.316 157.648 247.7 157.648H249.866V159H247.282ZM256.95 159.278C255.969 159.278 255.108 159.073 254.366 158.662C253.624 158.238 253.047 157.648 252.637 156.893C252.226 156.138 252.02 155.263 252.02 154.27V154.031C252.02 153.024 252.226 152.143 252.637 151.388C253.047 150.632 253.617 150.049 254.346 149.639C255.075 149.214 255.91 149.002 256.85 149.002C257.765 149.002 258.573 149.201 259.275 149.599C259.977 149.983 260.527 150.54 260.925 151.268C261.322 151.997 261.521 152.852 261.521 153.832V154.548H253.591C253.63 155.595 253.968 156.416 254.604 157.012C255.24 157.595 256.035 157.887 256.989 157.887C257.824 157.887 258.467 157.695 258.917 157.311C259.368 156.926 259.712 156.469 259.951 155.939L261.302 156.595C261.104 157.006 260.825 157.417 260.468 157.827C260.123 158.238 259.666 158.583 259.096 158.861C258.54 159.139 257.824 159.278 256.95 159.278ZM253.611 153.256H259.931C259.878 152.355 259.567 151.653 258.997 151.149C258.44 150.646 257.725 150.394 256.85 150.394C255.963 150.394 255.234 150.646 254.664 151.149C254.094 151.653 253.743 152.355 253.611 153.256ZM264.26 159V149.281H265.79V150.473H266.069C266.241 150.049 266.506 149.738 266.864 149.539C267.221 149.34 267.692 149.241 268.275 149.241H269.428V150.672H268.175C267.473 150.672 266.903 150.871 266.466 151.268C266.042 151.653 265.83 152.255 265.83 153.077V159H264.26ZM280.435 159C279.878 159 279.447 158.848 279.143 158.543C278.851 158.238 278.705 157.821 278.705 157.291V150.652H275.784V149.281H278.705V145.822H280.276V149.281H283.456V150.652H280.276V157.052C280.276 157.45 280.468 157.648 280.852 157.648H283.018V159H280.435ZM285.999 159V145.087H287.569V150.831H287.848C287.98 150.54 288.179 150.268 288.444 150.016C288.722 149.751 289.073 149.533 289.497 149.36C289.934 149.188 290.484 149.102 291.147 149.102C291.876 149.102 292.525 149.261 293.095 149.579C293.678 149.884 294.142 150.334 294.486 150.93C294.831 151.513 295.003 152.242 295.003 153.117V159H293.433V153.236C293.433 152.269 293.187 151.566 292.697 151.129C292.22 150.692 291.571 150.473 290.749 150.473C289.809 150.473 289.04 150.778 288.444 151.388C287.861 151.997 287.569 152.905 287.569 154.111V159H285.999ZM301.17 159.278C300.494 159.278 299.878 159.159 299.321 158.92C298.765 158.682 298.328 158.337 298.01 157.887C297.692 157.436 297.533 156.887 297.533 156.237C297.533 155.575 297.692 155.031 298.01 154.607C298.328 154.17 298.765 153.846 299.321 153.634C299.878 153.408 300.501 153.296 301.19 153.296H304.469V152.58C304.469 151.891 304.264 151.348 303.853 150.95C303.456 150.553 302.859 150.354 302.064 150.354C301.283 150.354 300.673 150.546 300.236 150.93C299.798 151.301 299.5 151.805 299.341 152.441L297.87 151.964C298.03 151.421 298.281 150.93 298.626 150.493C298.97 150.043 299.427 149.685 299.997 149.42C300.58 149.142 301.276 149.002 302.084 149.002C303.33 149.002 304.297 149.327 304.986 149.976C305.675 150.612 306.02 151.513 306.02 152.68V157.072C306.02 157.47 306.205 157.668 306.576 157.668H307.47V159H306.099C305.662 159 305.311 158.881 305.046 158.642C304.781 158.39 304.648 158.059 304.648 157.648V157.549H304.41C304.264 157.801 304.065 158.066 303.813 158.344C303.575 158.609 303.244 158.828 302.82 159C302.396 159.186 301.846 159.278 301.17 159.278ZM301.349 157.927C302.276 157.927 303.025 157.655 303.595 157.112C304.178 156.555 304.469 155.78 304.469 154.786V154.568H301.249C300.627 154.568 300.11 154.707 299.699 154.985C299.302 155.25 299.103 155.654 299.103 156.198C299.103 156.741 299.308 157.165 299.719 157.47C300.143 157.774 300.686 157.927 301.349 157.927ZM312.558 159C312.002 159 311.571 158.848 311.266 158.543C310.975 158.238 310.829 157.821 310.829 157.291V150.652H307.907V149.281H310.829V145.822H312.399V149.281H315.579V150.652H312.399V157.052C312.399 157.45 312.591 157.648 312.975 157.648H315.142V159H312.558ZM48.9033 189.237C48.4661 189.237 48.0619 189.138 47.6909 188.939C47.3332 188.727 47.0483 188.442 46.8363 188.084C46.6242 187.727 46.5182 187.329 46.5182 186.892C46.5182 186.441 46.6242 186.037 46.8363 185.68C47.0483 185.322 47.3332 185.043 47.6909 184.845C48.0487 184.633 48.4528 184.527 48.9033 184.527C49.3539 184.527 49.758 184.633 50.1158 184.845C50.4868 185.043 50.7717 185.322 50.9704 185.68C51.1824 186.037 51.2884 186.441 51.2884 186.892C51.2884 187.342 51.1824 187.747 50.9704 188.104C50.7584 188.462 50.4669 188.74 50.0959 188.939C49.7381 189.138 49.3406 189.237 48.9033 189.237ZM68.9217 192V179.16H68.6236L65.9205 184.109H64.1714L67.4907 178.087H70.5317V192H68.9217ZM78.4814 192.278C76.9046 192.278 75.6458 191.814 74.705 190.887C73.7774 189.946 73.3137 188.542 73.3137 186.673V183.414C73.3137 181.559 73.7774 180.161 74.705 179.22C75.6458 178.279 76.9046 177.809 78.4814 177.809C80.0714 177.809 81.3302 178.279 82.2578 179.22C83.1986 180.161 83.6689 181.559 83.6689 183.414V186.673C83.6689 188.542 83.1986 189.946 82.2578 190.887C81.3302 191.814 80.0714 192.278 78.4814 192.278ZM78.4814 190.827C79.6739 190.827 80.5683 190.47 81.1646 189.754C81.7609 189.039 82.059 188.038 82.059 186.753V183.314C82.059 182.029 81.7542 181.035 81.1447 180.333C80.5352 179.617 79.6474 179.26 78.4814 179.26C77.3153 179.26 76.4275 179.617 75.818 180.333C75.2217 181.048 74.9236 182.042 74.9236 183.314V186.753C74.9236 188.051 75.2217 189.058 75.818 189.774C76.4143 190.476 77.3021 190.827 78.4814 190.827ZM86.5037 192V178.087H88.0739V186.276H88.3522L92.8043 182.281H94.9907L89.6043 187.011L95.1497 192H92.9832L88.3522 187.766H88.0739V192H86.5037ZM106.219 192.278C105.013 192.278 103.993 192 103.158 191.443C102.337 190.887 101.84 190.006 101.667 188.8L103.158 188.462C103.264 189.098 103.463 189.602 103.754 189.973C104.046 190.33 104.404 190.589 104.828 190.748C105.265 190.894 105.729 190.966 106.219 190.966C106.948 190.966 107.524 190.821 107.948 190.529C108.372 190.238 108.584 189.847 108.584 189.357C108.584 188.853 108.379 188.502 107.968 188.303C107.57 188.091 107.021 187.919 106.318 187.786L105.503 187.647C104.881 187.541 104.311 187.376 103.794 187.15C103.277 186.925 102.867 186.62 102.562 186.236C102.257 185.852 102.105 185.368 102.105 184.785C102.105 183.911 102.443 183.228 103.118 182.738C103.794 182.248 104.689 182.002 105.802 182.002C106.901 182.002 107.789 182.254 108.465 182.758C109.154 183.248 109.598 183.944 109.797 184.845L108.326 185.222C108.207 184.52 107.922 184.03 107.471 183.752C107.021 183.46 106.464 183.314 105.802 183.314C105.139 183.314 104.616 183.44 104.231 183.692C103.847 183.93 103.655 184.288 103.655 184.765C103.655 185.229 103.834 185.573 104.192 185.799C104.563 186.011 105.053 186.17 105.662 186.276L106.477 186.415C107.166 186.534 107.783 186.7 108.326 186.912C108.882 187.111 109.32 187.402 109.638 187.786C109.969 188.171 110.134 188.674 110.134 189.297C110.134 190.251 109.777 190.986 109.061 191.503C108.359 192.02 107.411 192.278 106.219 192.278ZM117.237 192.278C116.256 192.278 115.395 192.073 114.653 191.662C113.911 191.238 113.335 190.648 112.924 189.893C112.513 189.138 112.308 188.263 112.308 187.27V187.031C112.308 186.024 112.513 185.143 112.924 184.388C113.335 183.632 113.904 183.049 114.633 182.639C115.362 182.214 116.197 182.002 117.138 182.002C118.052 182.002 118.86 182.201 119.562 182.599C120.265 182.983 120.815 183.54 121.212 184.268C121.61 184.997 121.808 185.852 121.808 186.832V187.548H113.878C113.918 188.595 114.256 189.416 114.892 190.012C115.528 190.595 116.323 190.887 117.277 190.887C118.111 190.887 118.754 190.695 119.205 190.311C119.655 189.926 120 189.469 120.238 188.939L121.59 189.595C121.391 190.006 121.113 190.417 120.755 190.827C120.41 191.238 119.953 191.583 119.384 191.861C118.827 192.139 118.111 192.278 117.237 192.278ZM113.898 186.256H120.218C120.165 185.355 119.854 184.653 119.284 184.149C118.728 183.646 118.012 183.394 117.138 183.394C116.25 183.394 115.521 183.646 114.951 184.149C114.381 184.653 114.03 185.355 113.898 186.256ZM127.717 192C127.161 192 126.73 191.848 126.425 191.543C126.134 191.238 125.988 190.821 125.988 190.291V183.652H123.066V182.281H125.988V178.822H127.558V182.281H130.738V183.652H127.558V190.052C127.558 190.45 127.75 190.648 128.135 190.648H130.301V192H127.717ZM136.998 192.179C136.296 192.179 135.647 192.027 135.051 191.722C134.468 191.417 134.004 190.966 133.659 190.37C133.328 189.761 133.162 189.025 133.162 188.164V182.281H134.733V188.045C134.733 189.012 134.971 189.714 135.448 190.152C135.938 190.589 136.594 190.807 137.416 190.807C138.343 190.807 139.105 190.503 139.702 189.893C140.298 189.284 140.596 188.376 140.596 187.17V182.281H142.166V192H140.636V190.35H140.357C140.145 190.814 139.781 191.238 139.264 191.622C138.748 191.993 137.992 192.179 136.998 192.179ZM145.452 195.975V182.281H146.982V183.891H147.26C147.512 183.4 147.916 182.963 148.473 182.579C149.043 182.195 149.831 182.002 150.838 182.002C151.673 182.002 152.435 182.208 153.124 182.619C153.826 183.016 154.383 183.586 154.793 184.328C155.217 185.07 155.429 185.964 155.429 187.011V187.27C155.429 188.303 155.224 189.198 154.813 189.953C154.402 190.708 153.846 191.284 153.144 191.682C152.455 192.08 151.686 192.278 150.838 192.278C150.162 192.278 149.586 192.186 149.109 192C148.645 191.828 148.267 191.602 147.976 191.324C147.684 191.046 147.459 190.761 147.3 190.47H147.022V195.975H145.452ZM150.421 190.887C151.428 190.887 152.243 190.569 152.865 189.933C153.501 189.284 153.819 188.383 153.819 187.23V187.051C153.819 185.898 153.501 185.004 152.865 184.368C152.243 183.718 151.428 183.394 150.421 183.394C149.427 183.394 148.605 183.718 147.956 184.368C147.32 185.004 147.002 185.898 147.002 187.051V187.23C147.002 188.383 147.32 189.284 147.956 189.933C148.605 190.569 149.427 190.887 150.421 190.887ZM167.82 192.278C166.879 192.278 166.031 192.08 165.276 191.682C164.534 191.271 163.944 190.688 163.507 189.933C163.083 189.178 162.871 188.283 162.871 187.25V187.031C162.871 185.984 163.083 185.09 163.507 184.348C163.944 183.593 164.534 183.016 165.276 182.619C166.031 182.208 166.879 182.002 167.82 182.002C168.747 182.002 169.536 182.175 170.185 182.519C170.847 182.864 171.364 183.321 171.735 183.891C172.12 184.46 172.365 185.07 172.471 185.719L170.94 186.037C170.874 185.56 170.715 185.123 170.463 184.725C170.225 184.328 169.887 184.01 169.45 183.771C169.012 183.533 168.476 183.414 167.84 183.414C167.19 183.414 166.607 183.559 166.091 183.851C165.587 184.142 165.183 184.56 164.878 185.103C164.587 185.646 164.441 186.296 164.441 187.051V187.23C164.441 187.985 164.587 188.634 164.878 189.178C165.183 189.721 165.587 190.138 166.091 190.43C166.607 190.721 167.19 190.867 167.84 190.867C168.807 190.867 169.542 190.615 170.046 190.112C170.563 189.608 170.881 188.986 171 188.243L172.55 188.581C172.404 189.217 172.139 189.82 171.755 190.39C171.371 190.96 170.847 191.417 170.185 191.761C169.536 192.106 168.747 192.278 167.82 192.278ZM179.718 192.278C178.738 192.278 177.87 192.073 177.115 191.662C176.373 191.251 175.79 190.675 175.366 189.933C174.955 189.178 174.75 188.29 174.75 187.27V187.011C174.75 186.004 174.955 185.123 175.366 184.368C175.79 183.612 176.373 183.029 177.115 182.619C177.87 182.208 178.738 182.002 179.718 182.002C180.699 182.002 181.56 182.208 182.302 182.619C183.058 183.029 183.641 183.612 184.051 184.368C184.475 185.123 184.687 186.004 184.687 187.011V187.27C184.687 188.29 184.475 189.178 184.051 189.933C183.641 190.675 183.058 191.251 182.302 191.662C181.56 192.073 180.699 192.278 179.718 192.278ZM179.718 190.867C180.752 190.867 181.574 190.542 182.183 189.893C182.806 189.231 183.117 188.343 183.117 187.23V187.051C183.117 185.938 182.806 185.057 182.183 184.407C181.574 183.745 180.752 183.414 179.718 183.414C178.698 183.414 177.877 183.745 177.254 184.407C176.631 185.057 176.32 185.938 176.32 187.051V187.23C176.32 188.343 176.631 189.231 177.254 189.893C177.877 190.542 178.698 190.867 179.718 190.867ZM191.429 192.278C190.223 192.278 189.202 192 188.368 191.443C187.546 190.887 187.049 190.006 186.877 188.8L188.368 188.462C188.474 189.098 188.672 189.602 188.964 189.973C189.255 190.33 189.613 190.589 190.037 190.748C190.475 190.894 190.938 190.966 191.429 190.966C192.157 190.966 192.734 190.821 193.158 190.529C193.582 190.238 193.794 189.847 193.794 189.357C193.794 188.853 193.588 188.502 193.178 188.303C192.78 188.091 192.23 187.919 191.528 187.786L190.713 187.647C190.09 187.541 189.521 187.376 189.004 187.15C188.487 186.925 188.076 186.62 187.771 186.236C187.467 185.852 187.314 185.368 187.314 184.785C187.314 183.911 187.652 183.228 188.328 182.738C189.004 182.248 189.898 182.002 191.011 182.002C192.111 182.002 192.999 182.254 193.675 182.758C194.364 183.248 194.807 183.944 195.006 184.845L193.535 185.222C193.416 184.52 193.131 184.03 192.681 183.752C192.23 183.46 191.674 183.314 191.011 183.314C190.349 183.314 189.825 183.44 189.441 183.692C189.057 183.93 188.865 184.288 188.865 184.765C188.865 185.229 189.043 185.573 189.401 185.799C189.772 186.011 190.263 186.17 190.872 186.276L191.687 186.415C192.376 186.534 192.992 186.7 193.535 186.912C194.092 187.111 194.529 187.402 194.847 187.786C195.178 188.171 195.344 188.674 195.344 189.297C195.344 190.251 194.986 190.986 194.271 191.503C193.569 192.02 192.621 192.278 191.429 192.278ZM201.359 192C200.802 192 200.371 191.848 200.067 191.543C199.775 191.238 199.629 190.821 199.629 190.291V183.652H196.708V182.281H199.629V178.822H201.2V182.281H204.38V183.652H201.2V190.052C201.2 190.45 201.392 190.648 201.776 190.648H203.942V192H201.359Z" fill="white"/>
<mask id="path-2-inside-1_152_455" fill="white">
<path d="M0 0H369V71H0V0Z"/>
</mask>
<path d="M369 70H0V72H369V70Z" fill="#F5FFFA" mask="url(#path-2-inside-1_152_455)"/>
<path d="M29.824 47.448C28.2453 47.448 26.8587 47.1173 25.664 46.456C24.4693 45.7733 23.5413 44.824 22.88 43.608C22.2187 42.392 21.888 40.984 21.888 39.384V39C21.888 37.3787 22.2187 35.96 22.88 34.744C23.5413 33.528 24.4587 32.5893 25.632 31.928C26.8053 31.2453 28.1493 30.904 29.664 30.904C31.136 30.904 32.4373 31.224 33.568 31.864C34.6987 32.4827 35.584 33.3787 36.224 34.552C36.864 35.7253 37.184 37.1013 37.184 38.68V39.832H24.416C24.48 41.5173 25.024 42.84 26.048 43.8C27.072 44.7387 28.352 45.208 29.888 45.208C31.232 45.208 32.2667 44.8987 32.992 44.28C33.7173 43.6613 34.272 42.9253 34.656 42.072L36.832 43.128C36.512 43.7893 36.064 44.4507 35.488 45.112C34.9333 45.7733 34.1973 46.328 33.28 46.776C32.384 47.224 31.232 47.448 29.824 47.448ZM24.448 37.752H34.624C34.5387 36.3013 34.0373 35.1707 33.12 34.36C32.224 33.5493 31.072 33.144 29.664 33.144C28.2347 33.144 27.0613 33.5493 26.144 34.36C25.2267 35.1707 24.6613 36.3013 24.448 37.752ZM44.9053 47L39.3053 31.352H41.9933L46.6973 45.112H47.1453L51.8493 31.352H54.5373L48.9373 47H44.9053ZM64.699 47.448C63.1203 47.448 61.7337 47.1173 60.539 46.456C59.3443 45.7733 58.4163 44.824 57.755 43.608C57.0937 42.392 56.763 40.984 56.763 39.384V39C56.763 37.3787 57.0937 35.96 57.755 34.744C58.4163 33.528 59.3337 32.5893 60.507 31.928C61.6803 31.2453 63.0243 30.904 64.539 30.904C66.011 30.904 67.3123 31.224 68.443 31.864C69.5737 32.4827 70.459 33.3787 71.099 34.552C71.739 35.7253 72.059 37.1013 72.059 38.68V39.832H59.291C59.355 41.5173 59.899 42.84 60.923 43.8C61.947 44.7387 63.227 45.208 64.763 45.208C66.107 45.208 67.1417 44.8987 67.867 44.28C68.5923 43.6613 69.147 42.9253 69.531 42.072L71.707 43.128C71.387 43.7893 70.939 44.4507 70.363 45.112C69.8083 45.7733 69.0723 46.328 68.155 46.776C67.259 47.224 66.107 47.448 64.699 47.448ZM59.323 37.752H69.499C69.4137 36.3013 68.9123 35.1707 67.995 34.36C67.099 33.5493 65.947 33.144 64.539 33.144C63.1097 33.144 61.9363 33.5493 61.019 34.36C60.1017 35.1707 59.5363 36.3013 59.323 37.752ZM76.4685 47V31.352H78.9325V34.008H79.3805C79.7218 33.2613 80.2978 32.5893 81.1085 31.992C81.9405 31.3733 83.1565 31.064 84.7565 31.064C85.9298 31.064 86.9752 31.3093 87.8925 31.8C88.8312 32.2907 89.5778 33.016 90.1325 33.976C90.6872 34.936 90.9645 36.12 90.9645 37.528V47H88.4365V37.72C88.4365 36.1627 88.0418 35.032 87.2525 34.328C86.4845 33.624 85.4392 33.272 84.1165 33.272C82.6018 33.272 81.3645 33.7627 80.4045 34.744C79.4658 35.7253 78.9965 37.1867 78.9965 39.128V47H76.4685ZM101.416 47C100.52 47 99.8267 46.7547 99.336 46.264C98.8667 45.7733 98.632 45.1013 98.632 44.248V33.56H93.928V31.352H98.632V25.784H101.16V31.352H106.28V33.56H101.16V43.864C101.16 44.504 101.469 44.824 102.088 44.824H105.576V47H101.416ZM116.679 47.448C114.737 47.448 113.095 47 111.751 46.104C110.428 45.208 109.628 43.7893 109.351 41.848L111.751 41.304C111.921 42.328 112.241 43.1387 112.711 43.736C113.18 44.312 113.756 44.728 114.439 44.984C115.143 45.2187 115.889 45.336 116.679 45.336C117.852 45.336 118.78 45.1013 119.463 44.632C120.145 44.1627 120.487 43.5333 120.487 42.744C120.487 41.9333 120.156 41.368 119.495 41.048C118.855 40.7067 117.969 40.4293 116.839 40.216L115.527 39.992C114.524 39.8213 113.607 39.5547 112.775 39.192C111.943 38.8293 111.281 38.3387 110.791 37.72C110.3 37.1013 110.055 36.3227 110.055 35.384C110.055 33.976 110.599 32.8773 111.687 32.088C112.775 31.2987 114.215 30.904 116.007 30.904C117.777 30.904 119.207 31.3093 120.295 32.12C121.404 32.9093 122.119 34.0293 122.439 35.48L120.071 36.088C119.879 34.9573 119.42 34.168 118.695 33.72C117.969 33.2507 117.073 33.016 116.007 33.016C114.94 33.016 114.097 33.2187 113.479 33.624C112.86 34.008 112.551 34.584 112.551 35.352C112.551 36.0987 112.839 36.6533 113.415 37.016C114.012 37.3573 114.801 37.6133 115.783 37.784L117.095 38.008C118.204 38.2 119.196 38.4667 120.071 38.808C120.967 39.128 121.671 39.5973 122.183 40.216C122.716 40.8347 122.983 41.6453 122.983 42.648C122.983 44.184 122.407 45.368 121.255 46.2C120.124 47.032 118.599 47.448 116.679 47.448ZM140.812 47C139.575 47 138.455 46.7653 137.453 46.296C136.45 45.8267 135.661 45.1547 135.085 44.28C134.509 43.4053 134.221 42.3387 134.221 41.08C134.221 40.1413 134.402 39.32 134.765 38.616C135.127 37.912 135.597 37.336 136.173 36.888C136.77 36.4187 137.399 36.0667 138.061 35.832V35.48C137.079 35.1813 136.226 34.6373 135.501 33.848C134.775 33.0373 134.413 31.9387 134.413 30.552C134.413 29.272 134.711 28.184 135.309 27.288C135.906 26.392 136.695 25.72 137.677 25.272C138.658 24.824 139.746 24.6 140.941 24.6H144.973V26.776H141.26C140.066 26.776 139.053 27.1067 138.221 27.768C137.41 28.408 137.005 29.3893 137.005 30.712C137.005 31.608 137.197 32.344 137.581 32.92C137.986 33.496 138.509 33.9227 139.149 34.2C139.789 34.456 140.493 34.584 141.26 34.584H145.677V31.16H148.205V34.584H151.341V36.792H148.205V47H140.812ZM141.133 44.824H145.677V36.792H141.133C139.917 36.792 138.882 37.1227 138.029 37.784C137.197 38.424 136.781 39.4267 136.781 40.792C136.781 42.1573 137.207 43.1707 138.061 43.832C138.935 44.4933 139.959 44.824 141.133 44.824ZM170.2 47.448C168.685 47.448 167.32 47.128 166.104 46.488C164.909 45.8267 163.96 44.888 163.256 43.672C162.573 42.456 162.232 41.016 162.232 39.352V39C162.232 37.3147 162.573 35.8747 163.256 34.68C163.96 33.464 164.909 32.536 166.104 31.896C167.32 31.2347 168.685 30.904 170.2 30.904C171.693 30.904 172.962 31.1813 174.008 31.736C175.074 32.2907 175.906 33.0267 176.504 33.944C177.122 34.8613 177.517 35.8427 177.688 36.888L175.224 37.4C175.117 36.632 174.861 35.928 174.456 35.288C174.072 34.648 173.528 34.136 172.824 33.752C172.12 33.368 171.256 33.176 170.232 33.176C169.186 33.176 168.248 33.4107 167.416 33.88C166.605 34.3493 165.954 35.0213 165.464 35.896C164.994 36.7707 164.76 37.816 164.76 39.032V39.32C164.76 40.536 164.994 41.5813 165.464 42.456C165.954 43.3307 166.605 44.0027 167.416 44.472C168.248 44.9413 169.186 45.176 170.232 45.176C171.789 45.176 172.973 44.7707 173.784 43.96C174.616 43.1493 175.128 42.1467 175.32 40.952L177.816 41.496C177.581 42.52 177.154 43.4907 176.536 44.408C175.917 45.3253 175.074 46.0613 174.008 46.616C172.962 47.1707 171.693 47.448 170.2 47.448ZM189.357 47.448C187.778 47.448 186.381 47.1173 185.165 46.456C183.97 45.7947 183.031 44.8667 182.349 43.672C181.687 42.456 181.357 41.0267 181.357 39.384V38.968C181.357 37.3467 181.687 35.928 182.349 34.712C183.031 33.496 183.97 32.5573 185.165 31.896C186.381 31.2347 187.778 30.904 189.357 30.904C190.935 30.904 192.322 31.2347 193.517 31.896C194.733 32.5573 195.671 33.496 196.333 34.712C197.015 35.928 197.357 37.3467 197.357 38.968V39.384C197.357 41.0267 197.015 42.456 196.333 43.672C195.671 44.8667 194.733 45.7947 193.517 46.456C192.322 47.1173 190.935 47.448 189.357 47.448ZM189.357 45.176C191.021 45.176 192.343 44.6533 193.325 43.608C194.327 42.5413 194.829 41.112 194.829 39.32V39.032C194.829 37.24 194.327 35.8213 193.325 34.776C192.343 33.7093 191.021 33.176 189.357 33.176C187.714 33.176 186.391 33.7093 185.389 34.776C184.386 35.8213 183.885 37.24 183.885 39.032V39.32C183.885 41.112 184.386 42.5413 185.389 43.608C186.391 44.6533 187.714 45.176 189.357 45.176ZM201.906 47V31.352H204.37V34.008H204.818C205.159 33.2613 205.735 32.5893 206.546 31.992C207.378 31.3733 208.594 31.064 210.194 31.064C211.367 31.064 212.413 31.3093 213.33 31.8C214.269 32.2907 215.015 33.016 215.57 33.976C216.125 34.936 216.402 36.12 216.402 37.528V47H213.874V37.72C213.874 36.1627 213.479 35.032 212.69 34.328C211.922 33.624 210.877 33.272 209.554 33.272C208.039 33.272 206.802 33.7627 205.842 34.744C204.903 35.7253 204.434 37.1867 204.434 39.128V47H201.906ZM228.731 47.448C227.216 47.448 225.851 47.128 224.635 46.488C223.44 45.8267 222.491 44.888 221.787 43.672C221.104 42.456 220.763 41.016 220.763 39.352V39C220.763 37.3147 221.104 35.8747 221.787 34.68C222.491 33.464 223.44 32.536 224.635 31.896C225.851 31.2347 227.216 30.904 228.731 30.904C230.224 30.904 231.494 31.1813 232.539 31.736C233.606 32.2907 234.438 33.0267 235.035 33.944C235.654 34.8613 236.048 35.8427 236.219 36.888L233.755 37.4C233.648 36.632 233.392 35.928 232.987 35.288C232.603 34.648 232.059 34.136 231.355 33.752C230.651 33.368 229.787 33.176 228.763 33.176C227.718 33.176 226.779 33.4107 225.947 33.88C225.136 34.3493 224.486 35.0213 223.995 35.896C223.526 36.7707 223.291 37.816 223.291 39.032V39.32C223.291 40.536 223.526 41.5813 223.995 42.456C224.486 43.3307 225.136 44.0027 225.947 44.472C226.779 44.9413 227.718 45.176 228.763 45.176C230.32 45.176 231.504 44.7707 232.315 43.96C233.147 43.1493 233.659 42.1467 233.851 40.952L236.347 41.496C236.112 42.52 235.686 43.4907 235.067 44.408C234.448 45.3253 233.606 46.0613 232.539 46.616C231.494 47.1707 230.224 47.448 228.731 47.448ZM247.824 47.448C246.245 47.448 244.859 47.1173 243.664 46.456C242.469 45.7733 241.541 44.824 240.88 43.608C240.219 42.392 239.888 40.984 239.888 39.384V39C239.888 37.3787 240.219 35.96 240.88 34.744C241.541 33.528 242.459 32.5893 243.632 31.928C244.805 31.2453 246.149 30.904 247.664 30.904C249.136 30.904 250.437 31.224 251.568 31.864C252.699 32.4827 253.584 33.3787 254.224 34.552C254.864 35.7253 255.184 37.1013 255.184 38.68V39.832H242.416C242.48 41.5173 243.024 42.84 244.048 43.8C245.072 44.7387 246.352 45.208 247.888 45.208C249.232 45.208 250.267 44.8987 250.992 44.28C251.717 43.6613 252.272 42.9253 252.656 42.072L254.832 43.128C254.512 43.7893 254.064 44.4507 253.488 45.112C252.933 45.7733 252.197 46.328 251.28 46.776C250.384 47.224 249.232 47.448 247.824 47.448ZM242.448 37.752H252.624C252.539 36.3013 252.037 35.1707 251.12 34.36C250.224 33.5493 249.072 33.144 247.664 33.144C246.235 33.144 245.061 33.5493 244.144 34.36C243.227 35.1707 242.661 36.3013 242.448 37.752ZM259.594 47V31.352H262.058V33.272H262.506C262.783 32.5893 263.21 32.088 263.786 31.768C264.362 31.448 265.119 31.288 266.058 31.288H267.914V33.592H265.898C264.767 33.592 263.85 33.912 263.146 34.552C262.463 35.1707 262.122 36.1413 262.122 37.464V47H259.594ZM277.416 47C276.52 47 275.827 46.7547 275.336 46.264C274.867 45.7733 274.632 45.1013 274.632 44.248V33.56H269.928V31.352H274.632V25.784H277.16V31.352H282.28V33.56H277.16V43.864C277.16 44.504 277.469 44.824 278.088 44.824H281.576V47H277.416ZM292.679 47.448C290.737 47.448 289.095 47 287.751 46.104C286.428 45.208 285.628 43.7893 285.351 41.848L287.751 41.304C287.921 42.328 288.241 43.1387 288.711 43.736C289.18 44.312 289.756 44.728 290.439 44.984C291.143 45.2187 291.889 45.336 292.679 45.336C293.852 45.336 294.78 45.1013 295.463 44.632C296.145 44.1627 296.487 43.5333 296.487 42.744C296.487 41.9333 296.156 41.368 295.495 41.048C294.855 40.7067 293.969 40.4293 292.839 40.216L291.527 39.992C290.524 39.8213 289.607 39.5547 288.775 39.192C287.943 38.8293 287.281 38.3387 286.791 37.72C286.3 37.1013 286.055 36.3227 286.055 35.384C286.055 33.976 286.599 32.8773 287.687 32.088C288.775 31.2987 290.215 30.904 292.007 30.904C293.777 30.904 295.207 31.3093 296.295 32.12C297.404 32.9093 298.119 34.0293 298.439 35.48L296.071 36.088C295.879 34.9573 295.42 34.168 294.695 33.72C293.969 33.2507 293.073 33.016 292.007 33.016C290.94 33.016 290.097 33.2187 289.479 33.624C288.86 34.008 288.551 34.584 288.551 35.352C288.551 36.0987 288.839 36.6533 289.415 37.016C290.012 37.3573 290.801 37.6133 291.783 37.784L293.095 38.008C294.204 38.2 295.196 38.4667 296.071 38.808C296.967 39.128 297.671 39.5973 298.183 40.216C298.716 40.8347 298.983 41.6453 298.983 42.648C298.983 44.184 298.407 45.368 297.255 46.2C296.124 47.032 294.599 47.448 292.679 47.448Z" fill="white"/>
<rect x="0.5" y="0.5" width="368" height="240" stroke="#F5FFFA"/>
</svg>
