<svg width="369" height="241" viewBox="0 0 369 241" fill="none" xmlns="http://www.w3.org/2000/svg">
<path d="M27.656 47V31.352H30.184V47H27.656ZM28.936 28.92C28.3813 28.92 27.912 28.7387 27.528 28.376C27.1653 28.0133 26.984 27.5547 26.984 27C26.984 26.424 27.1653 25.9547 27.528 25.592C27.912 25.2293 28.3813 25.048 28.936 25.048C29.4907 25.048 29.9493 25.2293 30.312 25.592C30.6747 25.9547 30.856 26.424 30.856 27C30.856 27.5547 30.6747 28.0133 30.312 28.376C29.9493 28.7387 29.4907 28.92 28.936 28.92ZM35.4998 47V31.352H37.9638V34.008H38.4118C38.7531 33.2613 39.3291 32.5893 40.1398 31.992C40.9718 31.3733 42.1878 31.064 43.7878 31.064C44.9611 31.064 46.0064 31.3093 46.9238 31.8C47.8624 32.2907 48.6091 33.016 49.1638 33.976C49.7184 34.936 49.9958 36.12 49.9958 37.528V47H47.4678V37.72C47.4678 36.1627 47.0731 35.032 46.2838 34.328C45.5158 33.624 44.4704 33.272 43.1478 33.272C41.6331 33.272 40.3958 33.7627 39.4358 34.744C38.4971 35.7253 38.0278 37.1867 38.0278 39.128V47H35.4998ZM61.4288 47.448C59.4874 47.448 57.8448 47 56.5008 46.104C55.1781 45.208 54.3781 43.7893 54.1008 41.848L56.5008 41.304C56.6714 42.328 56.9914 43.1387 57.4608 43.736C57.9301 44.312 58.5061 44.728 59.1888 44.984C59.8928 45.2187 60.6394 45.336 61.4288 45.336C62.6021 45.336 63.5301 45.1013 64.2128 44.632C64.8954 44.1627 65.2368 43.5333 65.2368 42.744C65.2368 41.9333 64.9061 41.368 64.2448 41.048C63.6048 40.7067 62.7194 40.4293 61.5888 40.216L60.2768 39.992C59.2741 39.8213 58.3568 39.5547 57.5248 39.192C56.6928 38.8293 56.0314 38.3387 55.5408 37.72C55.0501 37.1013 54.8048 36.3227 54.8048 35.384C54.8048 33.976 55.3488 32.8773 56.4368 32.088C57.5248 31.2987 58.9648 30.904 60.7568 30.904C62.5274 30.904 63.9568 31.3093 65.0448 32.12C66.1541 32.9093 66.8688 34.0293 67.1888 35.48L64.8208 36.088C64.6288 34.9573 64.1701 34.168 63.4448 33.72C62.7194 33.2507 61.8234 33.016 60.7568 33.016C59.6901 33.016 58.8474 33.2187 58.2288 33.624C57.6101 34.008 57.3008 34.584 57.3008 35.352C57.3008 36.0987 57.5888 36.6533 58.1648 37.016C58.7621 37.3573 59.5514 37.6133 60.5328 37.784L61.8448 38.008C62.9541 38.2 63.9461 38.4667 64.8208 38.808C65.7168 39.128 66.4208 39.5973 66.9328 40.216C67.4661 40.8347 67.7328 41.6453 67.7328 42.648C67.7328 44.184 67.1568 45.368 66.0048 46.2C64.8741 47.032 63.3488 47.448 61.4288 47.448ZM77.416 47C76.52 47 75.8267 46.7547 75.336 46.264C74.8667 45.7733 74.632 45.1013 74.632 44.248V33.56H69.928V31.352H74.632V25.784H77.16V31.352H82.28V33.56H77.16V43.864C77.16 44.504 77.4693 44.824 78.088 44.824H81.576V47H77.416ZM86.3748 47V31.352H88.9028V47H86.3748ZM87.6548 28.92C87.1001 28.92 86.6308 28.7387 86.2468 28.376C85.8841 28.0133 85.7028 27.5547 85.7028 27C85.7028 26.424 85.8841 25.9547 86.2468 25.592C86.6308 25.2293 87.1001 25.048 87.6548 25.048C88.2094 25.048 88.6681 25.2293 89.0308 25.592C89.3934 25.9547 89.5748 26.424 89.5748 27C89.5748 27.5547 89.3934 28.0133 89.0308 28.376C88.6681 28.7387 88.2094 28.92 87.6548 28.92ZM99.9785 47C99.0825 47 98.3892 46.7547 97.8985 46.264C97.4292 45.7733 97.1945 45.1013 97.1945 44.248V33.56H92.4905V31.352H97.1945V25.784H99.7225V31.352H104.843V33.56H99.7225V43.864C99.7225 44.504 100.032 44.824 100.651 44.824H104.139V47H99.9785ZM114.921 47.288C113.791 47.288 112.745 47.0427 111.785 46.552C110.847 46.0613 110.1 45.336 109.545 44.376C109.012 43.3947 108.745 42.2107 108.745 40.824V31.352H111.273V40.632C111.273 42.1893 111.657 43.32 112.425 44.024C113.215 44.728 114.271 45.08 115.593 45.08C117.087 45.08 118.313 44.5893 119.273 43.608C120.233 42.6267 120.713 41.1653 120.713 39.224V31.352H123.241V47H120.777V44.344H120.329C119.988 45.0907 119.401 45.7733 118.569 46.392C117.737 46.9893 116.521 47.288 114.921 47.288ZM134.291 47C133.395 47 132.702 46.7547 132.211 46.264C131.742 45.7733 131.507 45.1013 131.507 44.248V33.56H126.803V31.352H131.507V25.784H134.035V31.352H139.155V33.56H134.035V43.864C134.035 44.504 134.344 44.824 134.963 44.824H138.451V47H134.291ZM143.25 47V31.352H145.778V47H143.25ZM144.53 28.92C143.975 28.92 143.506 28.7387 143.122 28.376C142.759 28.0133 142.578 27.5547 142.578 27C142.578 26.424 142.759 25.9547 143.122 25.592C143.506 25.2293 143.975 25.048 144.53 25.048C145.084 25.048 145.543 25.2293 145.906 25.592C146.268 25.9547 146.45 26.424 146.45 27C146.45 27.5547 146.268 28.0133 145.906 28.376C145.543 28.7387 145.084 28.92 144.53 28.92ZM158.326 47.448C156.747 47.448 155.35 47.1173 154.134 46.456C152.939 45.7947 152 44.8667 151.318 43.672C150.656 42.456 150.326 41.0267 150.326 39.384V38.968C150.326 37.3467 150.656 35.928 151.318 34.712C152 33.496 152.939 32.5573 154.134 31.896C155.35 31.2347 156.747 30.904 158.326 30.904C159.904 30.904 161.291 31.2347 162.486 31.896C163.702 32.5573 164.64 33.496 165.302 34.712C165.984 35.928 166.326 37.3467 166.326 38.968V39.384C166.326 41.0267 165.984 42.456 165.302 43.672C164.64 44.8667 163.702 45.7947 162.486 46.456C161.291 47.1173 159.904 47.448 158.326 47.448ZM158.326 45.176C159.99 45.176 161.312 44.6533 162.294 43.608C163.296 42.5413 163.798 41.112 163.798 39.32V39.032C163.798 37.24 163.296 35.8213 162.294 34.776C161.312 33.7093 159.99 33.176 158.326 33.176C156.683 33.176 155.36 33.7093 154.358 34.776C153.355 35.8213 152.854 37.24 152.854 39.032V39.32C152.854 41.112 153.355 42.5413 154.358 43.608C155.36 44.6533 156.683 45.176 158.326 45.176ZM170.875 47V31.352H173.339V34.008H173.787C174.128 33.2613 174.704 32.5893 175.515 31.992C176.347 31.3733 177.563 31.064 179.163 31.064C180.336 31.064 181.381 31.3093 182.299 31.8C183.237 32.2907 183.984 33.016 184.539 33.976C185.093 34.936 185.371 36.12 185.371 37.528V47H182.843V37.72C182.843 36.1627 182.448 35.032 181.659 34.328C180.891 33.624 179.845 33.272 178.523 33.272C177.008 33.272 175.771 33.7627 174.811 34.744C173.872 35.7253 173.403 37.1867 173.403 39.128V47H170.875ZM196.804 47.448C194.862 47.448 193.22 47 191.876 46.104C190.553 45.208 189.753 43.7893 189.476 41.848L191.876 41.304C192.046 42.328 192.366 43.1387 192.836 43.736C193.305 44.312 193.881 44.728 194.564 44.984C195.268 45.2187 196.014 45.336 196.804 45.336C197.977 45.336 198.905 45.1013 199.588 44.632C200.27 44.1627 200.612 43.5333 200.612 42.744C200.612 41.9333 200.281 41.368 199.62 41.048C198.98 40.7067 198.094 40.4293 196.964 40.216L195.652 39.992C194.649 39.8213 193.732 39.5547 192.9 39.192C192.068 38.8293 191.406 38.3387 190.916 37.72C190.425 37.1013 190.18 36.3227 190.18 35.384C190.18 33.976 190.724 32.8773 191.812 32.088C192.9 31.2987 194.34 30.904 196.132 30.904C197.902 30.904 199.332 31.3093 200.42 32.12C201.529 32.9093 202.244 34.0293 202.564 35.48L200.196 36.088C200.004 34.9573 199.545 34.168 198.82 33.72C198.094 33.2507 197.198 33.016 196.132 33.016C195.065 33.016 194.222 33.2187 193.604 33.624C192.985 34.008 192.676 34.584 192.676 35.352C192.676 36.0987 192.964 36.6533 193.54 37.016C194.137 37.3573 194.926 37.6133 195.908 37.784L197.22 38.008C198.329 38.2 199.321 38.4667 200.196 38.808C201.092 39.128 201.796 39.5973 202.308 40.216C202.841 40.8347 203.108 41.6453 203.108 42.648C203.108 44.184 202.532 45.368 201.38 46.2C200.249 47.032 198.724 47.448 196.804 47.448ZM216.527 54.52C214.479 54.52 212.708 54.1573 211.215 53.432C209.743 52.7067 208.612 51.5653 207.823 50.008C207.033 48.472 206.639 46.4773 206.639 44.024V33.656C206.639 31.1813 207.033 29.176 207.823 27.64C208.612 26.104 209.743 24.9733 211.215 24.248C212.708 23.5227 214.479 23.16 216.527 23.16V25.368C213.988 25.3893 212.111 26.0933 210.895 27.48C209.679 28.8453 209.071 30.9573 209.071 33.816V43.864C209.071 46.7013 209.679 48.8133 210.895 50.2C212.111 51.5867 213.988 52.2907 216.527 52.312V54.52ZM219.5 47V24.6H222.028V47H219.5ZM234.512 47.448C232.933 47.448 231.546 47.1173 230.352 46.456C229.157 45.7733 228.229 44.824 227.568 43.608C226.906 42.392 226.576 40.984 226.576 39.384V39C226.576 37.3787 226.906 35.96 227.568 34.744C228.229 33.528 229.146 32.5893 230.32 31.928C231.493 31.2453 232.837 30.904 234.352 30.904C235.824 30.904 237.125 31.224 238.256 31.864C239.386 32.4827 240.272 33.3787 240.912 34.552C241.552 35.7253 241.872 37.1013 241.872 38.68V39.832H229.104C229.168 41.5173 229.712 42.84 230.736 43.8C231.76 44.7387 233.04 45.208 234.576 45.208C235.92 45.208 236.954 44.8987 237.68 44.28C238.405 43.6613 238.96 42.9253 239.344 42.072L241.52 43.128C241.2 43.7893 240.752 44.4507 240.176 45.112C239.621 45.7733 238.885 46.328 237.968 46.776C237.072 47.224 235.92 47.448 234.512 47.448ZM229.136 37.752H239.312C239.226 36.3013 238.725 35.1707 237.808 34.36C236.912 33.5493 235.76 33.144 234.352 33.144C232.922 33.144 231.749 33.5493 230.832 34.36C229.914 35.1707 229.349 36.3013 229.136 37.752ZM251.385 47C250.489 47 249.795 46.7547 249.305 46.264C248.835 45.7733 248.601 45.1013 248.601 44.248V33.56H243.897V31.352H248.601V25.784H251.129V31.352H256.249V33.56H251.129V43.864C251.129 44.504 251.438 44.824 252.057 44.824H255.545V47H251.385ZM260.213 32.024V30.424H261.141C261.909 30.424 262.293 30.04 262.293 29.272V28.248H261.845C261.226 28.248 260.703 28.056 260.277 27.672C259.871 27.288 259.669 26.808 259.669 26.232C259.669 25.6133 259.871 25.112 260.277 24.728C260.703 24.344 261.226 24.152 261.845 24.152C262.463 24.152 262.975 24.3547 263.381 24.76C263.786 25.1653 263.989 25.6773 263.989 26.296V29.272C263.989 31.1067 263.071 32.024 261.237 32.024H260.213ZM274.679 47.448C272.737 47.448 271.095 47 269.751 46.104C268.428 45.208 267.628 43.7893 267.351 41.848L269.751 41.304C269.921 42.328 270.241 43.1387 270.711 43.736C271.18 44.312 271.756 44.728 272.439 44.984C273.143 45.2187 273.889 45.336 274.679 45.336C275.852 45.336 276.78 45.1013 277.463 44.632C278.145 44.1627 278.487 43.5333 278.487 42.744C278.487 41.9333 278.156 41.368 277.495 41.048C276.855 40.7067 275.969 40.4293 274.839 40.216L273.527 39.992C272.524 39.8213 271.607 39.5547 270.775 39.192C269.943 38.8293 269.281 38.3387 268.791 37.72C268.3 37.1013 268.055 36.3227 268.055 35.384C268.055 33.976 268.599 32.8773 269.687 32.088C270.775 31.2987 272.215 30.904 274.007 30.904C275.777 30.904 277.207 31.3093 278.295 32.12C279.404 32.9093 280.119 34.0293 280.439 35.48L278.071 36.088C277.879 34.9573 277.42 34.168 276.695 33.72C275.969 33.2507 275.073 33.016 274.007 33.016C272.94 33.016 272.097 33.2187 271.479 33.624C270.86 34.008 270.551 34.584 270.551 35.352C270.551 36.0987 270.839 36.6533 271.415 37.016C272.012 37.3573 272.801 37.6133 273.783 37.784L275.095 38.008C276.204 38.2 277.196 38.4667 278.071 38.808C278.967 39.128 279.671 39.5973 280.183 40.216C280.716 40.8347 280.983 41.6453 280.983 42.648C280.983 44.184 280.407 45.368 279.255 46.2C278.124 47.032 276.599 47.448 274.679 47.448ZM299.229 47C298.333 47 297.639 46.7547 297.149 46.264C296.679 45.7733 296.445 45.1013 296.445 44.248V33.56H291.741V31.352H296.445V25.784H298.973V31.352H304.093V33.56H298.973V43.864C298.973 44.504 299.282 44.824 299.901 44.824H303.389V47H299.229ZM312.894 47.448C311.806 47.448 310.814 47.256 309.918 46.872C309.022 46.488 308.318 45.9333 307.806 45.208C307.294 44.4827 307.038 43.5973 307.038 42.552C307.038 41.4853 307.294 40.6107 307.806 39.928C308.318 39.224 309.022 38.7013 309.918 38.36C310.814 37.9973 311.816 37.816 312.926 37.816H318.206V36.664C318.206 35.5547 317.875 34.68 317.214 34.04C316.574 33.4 315.614 33.08 314.334 33.08C313.075 33.08 312.094 33.3893 311.39 34.008C310.686 34.6053 310.206 35.416 309.95 36.44L307.582 35.672C307.838 34.7973 308.243 34.008 308.798 33.304C309.352 32.5787 310.088 32.0027 311.006 31.576C311.944 31.128 313.064 30.904 314.366 30.904C316.371 30.904 317.928 31.4267 319.038 32.472C320.147 33.496 320.702 34.9467 320.702 36.824V43.896C320.702 44.536 321 44.856 321.597 44.856H323.038V47H320.83C320.126 47 319.56 46.808 319.134 46.424C318.707 46.0187 318.494 45.4853 318.494 44.824V44.664H318.11C317.875 45.0693 317.555 45.496 317.15 45.944C316.766 46.3707 316.232 46.7227 315.55 47C314.867 47.2987 313.982 47.448 312.894 47.448ZM313.182 45.272C314.675 45.272 315.88 44.8347 316.798 43.96C317.736 43.064 318.206 41.816 318.206 40.216V39.864H313.022C312.019 39.864 311.187 40.088 310.526 40.536C309.886 40.9627 309.566 41.6133 309.566 42.488C309.566 43.3627 309.896 44.0453 310.558 44.536C311.24 45.0267 312.115 45.272 313.182 45.272ZM326.5 47V24.6H329.028V47H326.5ZM334.344 47V24.6H336.872V37.784H337.32L344.488 31.352H348.008L339.336 38.968L348.264 47H344.776L337.32 40.184H336.872V47H334.344ZM349.13 54.52V52.312C351.712 52.2907 353.6 51.5867 354.794 50.2C355.989 48.8133 356.586 46.7013 356.586 43.864V33.816C356.586 30.9573 355.989 28.8453 354.794 27.48C353.6 26.0933 351.712 25.3893 349.13 25.368V23.16C351.2 23.16 352.97 23.5227 354.442 24.248C355.914 24.9733 357.045 26.104 357.834 27.64C358.645 29.176 359.05 31.1813 359.05 33.656V44.024C359.05 46.4773 358.645 48.472 357.834 50.008C357.045 51.5653 355.914 52.7067 354.442 53.432C352.97 54.1573 351.2 54.52 349.13 54.52Z" fill="white"/>
<path d="M34.9033 123.237C34.4661 123.237 34.0619 123.138 33.6909 122.939C33.3332 122.727 33.0483 122.442 32.8363 122.084C32.6242 121.727 32.5182 121.329 32.5182 120.892C32.5182 120.441 32.6242 120.037 32.8363 119.68C33.0483 119.322 33.3332 119.043 33.6909 118.845C34.0487 118.633 34.4528 118.527 34.9033 118.527C35.3539 118.527 35.758 118.633 36.1158 118.845C36.4868 119.043 36.7717 119.322 36.9704 119.68C37.1824 120.037 37.2884 120.441 37.2884 120.892C37.2884 121.342 37.1824 121.747 36.9704 122.104C36.7584 122.462 36.4669 122.74 36.0959 122.939C35.7381 123.138 35.3406 123.237 34.9033 123.237ZM56.4522 126.278C54.7959 126.278 53.4708 125.801 52.477 124.847C51.4965 123.88 51.0062 122.475 51.0062 120.634V117.453C51.0062 115.612 51.4965 114.214 52.477 113.26C53.4708 112.292 54.7959 111.809 56.4522 111.809C58.1217 111.809 59.4468 112.292 60.4273 113.26C61.4211 114.214 61.918 115.612 61.918 117.453V120.634C61.918 122.475 61.4211 123.88 60.4273 124.847C59.4468 125.801 58.1217 126.278 56.4522 126.278ZM56.4522 124.788C57.658 124.788 58.5921 124.43 59.2547 123.714C59.9172 122.986 60.2484 121.978 60.2484 120.693V117.394C60.2484 116.108 59.9172 115.108 59.2547 114.393C58.5921 113.664 57.658 113.299 56.4522 113.299C55.2596 113.299 54.3321 113.664 53.6696 114.393C53.007 115.108 52.6758 116.108 52.6758 117.394V120.693C52.6758 121.978 53.007 122.986 53.6696 123.714C54.3321 124.43 55.2596 124.788 56.4522 124.788ZM64.7592 126V116.281H66.2896V117.93H66.5679C66.7799 117.467 67.1376 117.049 67.6412 116.678C68.1579 116.294 68.9132 116.102 69.907 116.102C70.6358 116.102 71.285 116.254 71.8548 116.559C72.4378 116.864 72.9016 117.314 73.2461 117.911C73.5906 118.507 73.7629 119.242 73.7629 120.117V126H72.1927V120.236C72.1927 119.269 71.9476 118.566 71.4573 118.129C70.9803 117.692 70.331 117.473 69.5095 117.473C68.5687 117.473 67.8002 117.778 67.2039 118.388C66.6209 118.997 66.3293 119.905 66.3293 121.111V126H64.7592ZM76.8691 121.607V120.157H82.7523V121.607H76.8691ZM85.9936 129.975V116.281H87.5241V117.891H87.8023C88.0541 117.4 88.4582 116.963 89.0147 116.579C89.5845 116.195 90.3729 116.002 91.38 116.002C92.2147 116.002 92.9767 116.208 93.6657 116.619C94.368 117.016 94.9245 117.586 95.3352 118.328C95.7593 119.07 95.9713 119.964 95.9713 121.011V121.27C95.9713 122.303 95.7659 123.198 95.3551 123.953C94.9444 124.708 94.3878 125.284 93.6856 125.682C92.9965 126.08 92.228 126.278 91.38 126.278C90.7042 126.278 90.1278 126.186 89.6508 126C89.187 125.828 88.8094 125.602 88.5179 125.324C88.2263 125.046 88.0011 124.761 87.8421 124.47H87.5638V129.975H85.9936ZM90.9626 124.887C91.9696 124.887 92.7845 124.569 93.4073 123.933C94.0433 123.284 94.3613 122.383 94.3613 121.23V121.051C94.3613 119.898 94.0433 119.004 93.4073 118.368C92.7845 117.718 91.9696 117.394 90.9626 117.394C89.9688 117.394 89.1473 117.718 88.498 118.368C87.862 119.004 87.5439 119.898 87.5439 121.051V121.23C87.5439 122.383 87.862 123.284 88.498 123.933C89.1473 124.569 89.9688 124.887 90.9626 124.887ZM98.7848 126V116.281H100.315V117.473H100.593C100.766 117.049 101.031 116.738 101.389 116.539C101.746 116.34 102.217 116.241 102.8 116.241H103.952V117.672H102.7C101.998 117.672 101.428 117.871 100.991 118.268C100.567 118.653 100.355 119.255 100.355 120.077V126H98.7848ZM110.38 126.278C109.399 126.278 108.538 126.073 107.796 125.662C107.054 125.238 106.478 124.648 106.067 123.893C105.656 123.138 105.451 122.263 105.451 121.27V121.031C105.451 120.024 105.656 119.143 106.067 118.388C106.478 117.632 107.047 117.049 107.776 116.639C108.505 116.214 109.34 116.002 110.28 116.002C111.195 116.002 112.003 116.201 112.705 116.599C113.408 116.983 113.957 117.54 114.355 118.268C114.752 118.997 114.951 119.852 114.951 120.832V121.548H107.021C107.061 122.595 107.398 123.416 108.034 124.012C108.67 124.595 109.466 124.887 110.42 124.887C111.254 124.887 111.897 124.695 112.348 124.311C112.798 123.926 113.143 123.469 113.381 122.939L114.733 123.595C114.534 124.006 114.256 124.417 113.898 124.827C113.553 125.238 113.096 125.583 112.526 125.861C111.97 126.139 111.254 126.278 110.38 126.278ZM107.041 120.256H113.361C113.308 119.355 112.997 118.653 112.427 118.149C111.87 117.646 111.155 117.394 110.28 117.394C109.393 117.394 108.664 117.646 108.094 118.149C107.524 118.653 107.173 119.355 107.041 120.256ZM117.69 126V116.281H119.22V117.493H119.499C119.684 117.149 119.989 116.831 120.413 116.539C120.837 116.248 121.433 116.102 122.202 116.102C122.957 116.102 123.567 116.267 124.03 116.599C124.507 116.93 124.852 117.334 125.064 117.811H125.342C125.567 117.334 125.905 116.93 126.356 116.599C126.82 116.267 127.462 116.102 128.284 116.102C128.933 116.102 129.503 116.234 129.993 116.499C130.483 116.764 130.868 117.149 131.146 117.652C131.437 118.142 131.583 118.732 131.583 119.421V126H130.013V119.56C130.013 118.911 129.821 118.401 129.437 118.03C129.066 117.646 128.542 117.453 127.866 117.453C127.151 117.453 126.561 117.685 126.098 118.149C125.647 118.613 125.422 119.282 125.422 120.157V126H123.852V119.56C123.852 118.911 123.659 118.401 123.275 118.03C122.904 117.646 122.381 117.453 121.705 117.453C120.989 117.453 120.4 117.685 119.936 118.149C119.486 118.613 119.26 119.282 119.26 120.157V126H117.69ZM134.79 126V116.281H136.36V126H134.79ZM135.585 114.77C135.241 114.77 134.949 114.658 134.711 114.432C134.485 114.207 134.373 113.922 134.373 113.578C134.373 113.22 134.485 112.928 134.711 112.703C134.949 112.478 135.241 112.365 135.585 112.365C135.93 112.365 136.215 112.478 136.44 112.703C136.665 112.928 136.778 113.22 136.778 113.578C136.778 113.922 136.665 114.207 136.44 114.432C136.215 114.658 135.93 114.77 135.585 114.77ZM143.578 126.278C142.372 126.278 141.352 126 140.517 125.443C139.695 124.887 139.198 124.006 139.026 122.8L140.517 122.462C140.623 123.098 140.822 123.602 141.113 123.973C141.405 124.33 141.762 124.589 142.186 124.748C142.624 124.894 143.087 124.966 143.578 124.966C144.306 124.966 144.883 124.821 145.307 124.529C145.731 124.238 145.943 123.847 145.943 123.357C145.943 122.853 145.737 122.502 145.327 122.303C144.929 122.091 144.379 121.919 143.677 121.786L142.862 121.647C142.239 121.541 141.67 121.376 141.153 121.15C140.636 120.925 140.225 120.62 139.92 120.236C139.616 119.852 139.463 119.368 139.463 118.785C139.463 117.911 139.801 117.228 140.477 116.738C141.153 116.248 142.047 116.002 143.16 116.002C144.26 116.002 145.148 116.254 145.824 116.758C146.513 117.248 146.957 117.944 147.155 118.845L145.684 119.222C145.565 118.52 145.28 118.03 144.83 117.752C144.379 117.46 143.823 117.314 143.16 117.314C142.498 117.314 141.974 117.44 141.59 117.692C141.206 117.93 141.014 118.288 141.014 118.765C141.014 119.229 141.193 119.573 141.55 119.799C141.921 120.011 142.412 120.17 143.021 120.276L143.836 120.415C144.525 120.534 145.141 120.7 145.684 120.912C146.241 121.111 146.678 121.402 146.996 121.786C147.328 122.171 147.493 122.674 147.493 123.297C147.493 124.251 147.135 124.986 146.42 125.503C145.718 126.02 144.77 126.278 143.578 126.278ZM154.596 126.278C153.615 126.278 152.754 126.073 152.012 125.662C151.27 125.238 150.693 124.648 150.283 123.893C149.872 123.138 149.666 122.263 149.666 121.27V121.031C149.666 120.024 149.872 119.143 150.283 118.388C150.693 117.632 151.263 117.049 151.992 116.639C152.721 116.214 153.555 116.002 154.496 116.002C155.411 116.002 156.219 116.201 156.921 116.599C157.623 116.983 158.173 117.54 158.571 118.268C158.968 118.997 159.167 119.852 159.167 120.832V121.548H151.237C151.276 122.595 151.614 123.416 152.25 124.012C152.886 124.595 153.681 124.887 154.635 124.887C155.47 124.887 156.113 124.695 156.563 124.311C157.014 123.926 157.358 123.469 157.597 122.939L158.948 123.595C158.75 124.006 158.471 124.417 158.114 124.827C157.769 125.238 157.312 125.583 156.742 125.861C156.186 126.139 155.47 126.278 154.596 126.278ZM151.257 120.256H157.577C157.524 119.355 157.213 118.653 156.643 118.149C156.086 117.646 155.371 117.394 154.496 117.394C153.608 117.394 152.88 117.646 152.31 118.149C151.74 118.653 151.389 119.355 151.257 120.256ZM170.926 126.278C169.72 126.278 168.7 126 167.865 125.443C167.044 124.887 166.547 124.006 166.375 122.8L167.865 122.462C167.971 123.098 168.17 123.602 168.462 123.973C168.753 124.33 169.111 124.589 169.535 124.748C169.972 124.894 170.436 124.966 170.926 124.966C171.655 124.966 172.231 124.821 172.655 124.529C173.079 124.238 173.291 123.847 173.291 123.357C173.291 122.853 173.086 122.502 172.675 122.303C172.278 122.091 171.728 121.919 171.026 121.786L170.211 121.647C169.588 121.541 169.018 121.376 168.501 121.15C167.985 120.925 167.574 120.62 167.269 120.236C166.964 119.852 166.812 119.368 166.812 118.785C166.812 117.911 167.15 117.228 167.826 116.738C168.501 116.248 169.396 116.002 170.509 116.002C171.609 116.002 172.496 116.254 173.172 116.758C173.861 117.248 174.305 117.944 174.504 118.845L173.033 119.222C172.914 118.52 172.629 118.03 172.178 117.752C171.728 117.46 171.171 117.314 170.509 117.314C169.846 117.314 169.323 117.44 168.939 117.692C168.554 117.93 168.362 118.288 168.362 118.765C168.362 119.229 168.541 119.573 168.899 119.799C169.27 120.011 169.76 120.17 170.37 120.276L171.185 120.415C171.874 120.534 172.49 120.7 173.033 120.912C173.59 121.111 174.027 121.402 174.345 121.786C174.676 122.171 174.842 122.674 174.842 123.297C174.842 124.251 174.484 124.986 173.768 125.503C173.066 126.02 172.119 126.278 170.926 126.278ZM181.209 126.179C180.507 126.179 179.857 126.027 179.261 125.722C178.678 125.417 178.214 124.966 177.87 124.37C177.538 123.761 177.373 123.025 177.373 122.164V116.281H178.943V122.045C178.943 123.012 179.182 123.714 179.659 124.152C180.149 124.589 180.805 124.807 181.626 124.807C182.554 124.807 183.316 124.503 183.912 123.893C184.508 123.284 184.806 122.376 184.806 121.17V116.281H186.377V126H184.846V124.35H184.568C184.356 124.814 183.991 125.238 183.475 125.622C182.958 125.993 182.203 126.179 181.209 126.179ZM189.662 129.975V116.281H191.193V117.891H191.471C191.723 117.4 192.127 116.963 192.683 116.579C193.253 116.195 194.041 116.002 195.048 116.002C195.883 116.002 196.645 116.208 197.334 116.619C198.036 117.016 198.593 117.586 199.004 118.328C199.428 119.07 199.64 119.964 199.64 121.011V121.27C199.64 122.303 199.434 123.198 199.024 123.953C198.613 124.708 198.056 125.284 197.354 125.682C196.665 126.08 195.896 126.278 195.048 126.278C194.373 126.278 193.796 126.186 193.319 126C192.855 125.828 192.478 125.602 192.186 125.324C191.895 125.046 191.67 124.761 191.511 124.47H191.232V129.975H189.662ZM194.631 124.887C195.638 124.887 196.453 124.569 197.076 123.933C197.712 123.284 198.03 122.383 198.03 121.23V121.051C198.03 119.898 197.712 119.004 197.076 118.368C196.453 117.718 195.638 117.394 194.631 117.394C193.637 117.394 192.816 117.718 192.166 118.368C191.53 119.004 191.212 119.898 191.212 121.051V121.23C191.212 122.383 191.53 123.284 192.166 123.933C192.816 124.569 193.637 124.887 194.631 124.887ZM202.453 129.975V116.281H203.984V117.891H204.262C204.514 117.4 204.918 116.963 205.474 116.579C206.044 116.195 206.833 116.002 207.84 116.002C208.674 116.002 209.436 116.208 210.125 116.619C210.828 117.016 211.384 117.586 211.795 118.328C212.219 119.07 212.431 119.964 212.431 121.011V121.27C212.431 122.303 212.226 123.198 211.815 123.953C211.404 124.708 210.847 125.284 210.145 125.682C209.456 126.08 208.688 126.278 207.84 126.278C207.164 126.278 206.587 126.186 206.11 126C205.647 125.828 205.269 125.602 204.977 125.324C204.686 125.046 204.461 124.761 204.302 124.47H204.023V129.975H202.453ZM207.422 124.887C208.429 124.887 209.244 124.569 209.867 123.933C210.503 123.284 210.821 122.383 210.821 121.23V121.051C210.821 119.898 210.503 119.004 209.867 118.368C209.244 117.718 208.429 117.394 207.422 117.394C206.428 117.394 205.607 117.718 204.958 118.368C204.322 119.004 204.004 119.898 204.004 121.051V121.23C204.004 122.383 204.322 123.284 204.958 123.933C205.607 124.569 206.428 124.887 207.422 124.887ZM219.736 126.278C218.756 126.278 217.888 126.073 217.133 125.662C216.391 125.251 215.808 124.675 215.384 123.933C214.973 123.178 214.767 122.29 214.767 121.27V121.011C214.767 120.004 214.973 119.123 215.384 118.368C215.808 117.612 216.391 117.029 217.133 116.619C217.888 116.208 218.756 116.002 219.736 116.002C220.717 116.002 221.578 116.208 222.32 116.619C223.075 117.029 223.658 117.612 224.069 118.368C224.493 119.123 224.705 120.004 224.705 121.011V121.27C224.705 122.29 224.493 123.178 224.069 123.933C223.658 124.675 223.075 125.251 222.32 125.662C221.578 126.073 220.717 126.278 219.736 126.278ZM219.736 124.867C220.77 124.867 221.591 124.542 222.201 123.893C222.824 123.231 223.135 122.343 223.135 121.23V121.051C223.135 119.938 222.824 119.057 222.201 118.407C221.591 117.745 220.77 117.414 219.736 117.414C218.716 117.414 217.895 117.745 217.272 118.407C216.649 119.057 216.338 119.938 216.338 121.051V121.23C216.338 122.343 216.649 123.231 217.272 123.893C217.895 124.542 218.716 124.867 219.736 124.867ZM227.531 126V116.281H229.061V117.473H229.34C229.512 117.049 229.777 116.738 230.135 116.539C230.492 116.34 230.963 116.241 231.546 116.241H232.699V117.672H231.446C230.744 117.672 230.174 117.871 229.737 118.268C229.313 118.653 229.101 119.255 229.101 120.077V126H227.531ZM238.601 126C238.044 126 237.614 125.848 237.309 125.543C237.017 125.238 236.872 124.821 236.872 124.291V117.652H233.95V116.281H236.872V112.822H238.442V116.281H241.622V117.652H238.442V124.052C238.442 124.45 238.634 124.648 239.018 124.648H241.185V126H238.601ZM34.9033 156.237C34.4661 156.237 34.0619 156.138 33.6909 155.939C33.3332 155.727 33.0483 155.442 32.8363 155.084C32.6242 154.727 32.5182 154.329 32.5182 153.892C32.5182 153.441 32.6242 153.037 32.8363 152.68C33.0483 152.322 33.3332 152.043 33.6909 151.845C34.0487 151.633 34.4528 151.527 34.9033 151.527C35.3539 151.527 35.758 151.633 36.1158 151.845C36.4868 152.043 36.7717 152.322 36.9704 152.68C37.1824 153.037 37.2884 153.441 37.2884 153.892C37.2884 154.342 37.1824 154.747 36.9704 155.104C36.7584 155.462 36.4669 155.74 36.0959 155.939C35.7381 156.138 35.3406 156.237 34.9033 156.237ZM50.8671 159V157.549C50.8671 156.555 51.0393 155.76 51.3838 155.164C51.7416 154.568 52.2319 154.091 52.8547 153.733C53.4907 153.362 54.246 153.044 55.1205 152.779L56.2137 152.441C56.8099 152.255 57.3333 152.03 57.7839 151.765C58.2344 151.487 58.5855 151.142 58.8373 150.732C59.089 150.308 59.2149 149.791 59.2149 149.181V149.102C59.2149 148.227 58.9101 147.538 58.3006 147.035C57.6911 146.518 56.9093 146.26 55.9553 146.26C54.9482 146.26 54.1267 146.531 53.4907 147.075C52.8547 147.605 52.5366 148.413 52.5366 149.499V149.778H50.9466V149.519C50.9466 148.512 51.1652 147.658 51.6025 146.955C52.0398 146.253 52.636 145.723 53.3913 145.365C54.1466 144.994 55.0012 144.809 55.9553 144.809C56.9093 144.809 57.7507 144.988 58.4795 145.345C59.2215 145.703 59.7979 146.2 60.2087 146.836C60.6195 147.472 60.8248 148.214 60.8248 149.062V149.241C60.8248 150.142 60.646 150.891 60.2882 151.487C59.9304 152.07 59.4335 152.547 58.7975 152.918C58.1747 153.289 57.4393 153.607 56.5913 153.872L55.518 154.21C54.8422 154.422 54.2791 154.647 53.8286 154.886C53.3913 155.111 53.06 155.402 52.8348 155.76C52.6095 156.118 52.4969 156.602 52.4969 157.211V157.549H60.7056V159H50.8671ZM69.098 159V156.158H61.8433V154.25L67.6868 145.087H70.7079V154.707H73.093V156.158H70.7079V159H69.098ZM63.4533 154.707H69.098V146.061H68.8197L63.4533 154.468V154.707ZM76.8893 155.999L75.8557 154.965L78.7775 152.043L75.8557 149.122L76.8893 148.088L79.7911 151.01L82.693 148.088L83.7266 149.122L80.8048 152.043L83.7266 154.965L82.693 155.999L79.7911 153.057L76.8893 155.999ZM88.9761 159V158.503C88.9761 158.039 89.0158 157.648 89.0953 157.33C89.1748 157.012 89.3272 156.635 89.5525 156.198L94.8593 146.757V146.538H86.591V145.087H96.5488V146.995L91.0034 156.933C90.8444 157.211 90.7318 157.463 90.6655 157.688C90.6125 157.913 90.586 158.198 90.586 158.543V159H88.9761ZM112.949 159.278C111.743 159.278 110.723 159 109.888 158.443C109.066 157.887 108.569 157.006 108.397 155.8L109.888 155.462C109.994 156.098 110.193 156.602 110.484 156.973C110.776 157.33 111.133 157.589 111.557 157.748C111.995 157.894 112.458 157.966 112.949 157.966C113.678 157.966 114.254 157.821 114.678 157.529C115.102 157.238 115.314 156.847 115.314 156.357C115.314 155.853 115.109 155.502 114.698 155.303C114.3 155.091 113.75 154.919 113.048 154.786L112.233 154.647C111.61 154.541 111.041 154.376 110.524 154.15C110.007 153.925 109.596 153.62 109.292 153.236C108.987 152.852 108.834 152.368 108.834 151.785C108.834 150.911 109.172 150.228 109.848 149.738C110.524 149.248 111.418 149.002 112.531 149.002C113.631 149.002 114.519 149.254 115.195 149.758C115.884 150.248 116.328 150.944 116.526 151.845L115.056 152.222C114.936 151.52 114.651 151.03 114.201 150.752C113.75 150.46 113.194 150.314 112.531 150.314C111.869 150.314 111.345 150.44 110.961 150.692C110.577 150.93 110.385 151.288 110.385 151.765C110.385 152.229 110.564 152.573 110.921 152.799C111.292 153.011 111.783 153.17 112.392 153.276L113.207 153.415C113.896 153.534 114.512 153.7 115.056 153.912C115.612 154.111 116.049 154.402 116.367 154.786C116.699 155.171 116.864 155.674 116.864 156.297C116.864 157.251 116.507 157.986 115.791 158.503C115.089 159.02 114.141 159.278 112.949 159.278ZM123.231 159.179C122.529 159.179 121.88 159.027 121.284 158.722C120.701 158.417 120.237 157.966 119.892 157.37C119.561 156.761 119.395 156.025 119.395 155.164V149.281H120.966V155.045C120.966 156.012 121.204 156.714 121.681 157.152C122.171 157.589 122.827 157.807 123.649 157.807C124.576 157.807 125.338 157.503 125.934 156.893C126.531 156.284 126.829 155.376 126.829 154.17V149.281H128.399V159H126.869V157.35H126.59C126.378 157.814 126.014 158.238 125.497 158.622C124.98 158.993 124.225 159.179 123.231 159.179ZM131.685 162.975V149.281H133.215V150.891H133.493C133.745 150.4 134.149 149.963 134.706 149.579C135.276 149.195 136.064 149.002 137.071 149.002C137.906 149.002 138.668 149.208 139.357 149.619C140.059 150.016 140.615 150.586 141.026 151.328C141.45 152.07 141.662 152.964 141.662 154.011V154.27C141.662 155.303 141.457 156.198 141.046 156.953C140.635 157.708 140.079 158.284 139.377 158.682C138.688 159.08 137.919 159.278 137.071 159.278C136.395 159.278 135.819 159.186 135.342 159C134.878 158.828 134.5 158.602 134.209 158.324C133.917 158.046 133.692 157.761 133.533 157.47H133.255V162.975H131.685ZM136.654 157.887C137.661 157.887 138.476 157.569 139.098 156.933C139.734 156.284 140.052 155.383 140.052 154.23V154.051C140.052 152.898 139.734 152.004 139.098 151.368C138.476 150.718 137.661 150.394 136.654 150.394C135.66 150.394 134.838 150.718 134.189 151.368C133.553 152.004 133.235 152.898 133.235 154.051V154.23C133.235 155.383 133.553 156.284 134.189 156.933C134.838 157.569 135.66 157.887 136.654 157.887ZM144.476 162.975V149.281H146.006V150.891H146.284C146.536 150.4 146.94 149.963 147.497 149.579C148.067 149.195 148.855 149.002 149.862 149.002C150.697 149.002 151.459 149.208 152.148 149.619C152.85 150.016 153.407 150.586 153.817 151.328C154.241 152.07 154.453 152.964 154.453 154.011V154.27C154.453 155.303 154.248 156.198 153.837 156.953C153.427 157.708 152.87 158.284 152.168 158.682C151.479 159.08 150.71 159.278 149.862 159.278C149.186 159.278 148.61 159.186 148.133 159C147.669 158.828 147.292 158.602 147 158.324C146.708 158.046 146.483 157.761 146.324 157.47H146.046V162.975H144.476ZM149.445 157.887C150.452 157.887 151.267 157.569 151.889 156.933C152.525 156.284 152.843 155.383 152.843 154.23V154.051C152.843 152.898 152.525 152.004 151.889 151.368C151.267 150.718 150.452 150.394 149.445 150.394C148.451 150.394 147.629 150.718 146.98 151.368C146.344 152.004 146.026 152.898 146.026 154.051V154.23C146.026 155.383 146.344 156.284 146.98 156.933C147.629 157.569 148.451 157.887 149.445 157.887ZM161.759 159.278C160.778 159.278 159.91 159.073 159.155 158.662C158.413 158.251 157.83 157.675 157.406 156.933C156.995 156.178 156.79 155.29 156.79 154.27V154.011C156.79 153.004 156.995 152.123 157.406 151.368C157.83 150.612 158.413 150.029 159.155 149.619C159.91 149.208 160.778 149.002 161.759 149.002C162.739 149.002 163.601 149.208 164.343 149.619C165.098 150.029 165.681 150.612 166.092 151.368C166.516 152.123 166.728 153.004 166.728 154.011V154.27C166.728 155.29 166.516 156.178 166.092 156.933C165.681 157.675 165.098 158.251 164.343 158.662C163.601 159.073 162.739 159.278 161.759 159.278ZM161.759 157.867C162.792 157.867 163.614 157.542 164.223 156.893C164.846 156.231 165.158 155.343 165.158 154.23V154.051C165.158 152.938 164.846 152.057 164.223 151.407C163.614 150.745 162.792 150.414 161.759 150.414C160.739 150.414 159.917 150.745 159.294 151.407C158.671 152.057 158.36 152.938 158.36 154.051V154.23C158.36 155.343 158.671 156.231 159.294 156.893C159.917 157.542 160.739 157.867 161.759 157.867ZM169.553 159V149.281H171.084V150.473H171.362C171.534 150.049 171.799 149.738 172.157 149.539C172.515 149.34 172.985 149.241 173.568 149.241H174.721V150.672H173.469C172.767 150.672 172.197 150.871 171.76 151.268C171.336 151.653 171.124 152.255 171.124 153.077V159H169.553ZM180.623 159C180.067 159 179.636 158.848 179.331 158.543C179.04 158.238 178.894 157.821 178.894 157.291V150.652H175.972V149.281H178.894V145.822H180.464V149.281H183.644V150.652H180.464V157.052C180.464 157.45 180.656 157.648 181.041 157.648H183.207V159H180.623ZM34.9033 189.237C34.4661 189.237 34.0619 189.138 33.6909 188.939C33.3332 188.727 33.0483 188.442 32.8363 188.084C32.6242 187.727 32.5182 187.329 32.5182 186.892C32.5182 186.441 32.6242 186.037 32.8363 185.68C33.0483 185.322 33.3332 185.043 33.6909 184.845C34.0487 184.633 34.4528 184.527 34.9033 184.527C35.3539 184.527 35.758 184.633 36.1158 184.845C36.4868 185.043 36.7717 185.322 36.9704 185.68C37.1824 186.037 37.2884 186.441 37.2884 186.892C37.2884 187.342 37.1824 187.747 36.9704 188.104C36.7584 188.462 36.4669 188.74 36.0959 188.939C35.7381 189.138 35.3406 189.237 34.9033 189.237ZM50.7478 192V190.509H52.6957V179.578H50.7478V178.087H56.1739C58.0025 178.087 59.4137 178.551 60.4075 179.478C61.4145 180.406 61.918 181.83 61.918 183.752V186.335C61.918 188.27 61.4145 189.701 60.4075 190.629C59.4137 191.543 58.0025 192 56.1739 192H50.7478ZM54.3652 190.489H56.1739C57.5255 190.489 58.5458 190.158 59.2348 189.496C59.9238 188.833 60.2683 187.806 60.2683 186.415V183.692C60.2683 182.274 59.9238 181.241 59.2348 180.591C58.5458 179.942 57.5255 179.617 56.1739 179.617H54.3652V190.489ZM69.0949 192.278C68.1143 192.278 67.2531 192.073 66.511 191.662C65.769 191.238 65.1926 190.648 64.7818 189.893C64.3711 189.138 64.1657 188.263 64.1657 187.27V187.031C64.1657 186.024 64.3711 185.143 64.7818 184.388C65.1926 183.632 65.7624 183.049 66.4911 182.639C67.2199 182.214 68.0547 182.002 68.9955 182.002C69.9098 182.002 70.7181 182.201 71.4203 182.599C72.1226 182.983 72.6725 183.54 73.07 184.268C73.4675 184.997 73.6663 185.852 73.6663 186.832V187.548H65.7359C65.7756 188.595 66.1135 189.416 66.7495 190.012C67.3856 190.595 68.1806 190.887 69.1346 190.887C69.9694 190.887 70.6121 190.695 71.0626 190.311C71.5131 189.926 71.8576 189.469 72.0961 188.939L73.4477 189.595C73.2489 190.006 72.9707 190.417 72.6129 190.827C72.2684 191.238 71.8112 191.583 71.2415 191.861C70.6849 192.139 69.9694 192.278 69.0949 192.278ZM65.7557 186.256H72.0762C72.0232 185.355 71.7119 184.653 71.1421 184.149C70.5856 183.646 69.87 183.394 68.9955 183.394C68.1077 183.394 67.3789 183.646 66.8092 184.149C66.2394 184.653 65.8882 185.355 65.7557 186.256ZM80.3207 192.278C79.1149 192.278 78.0946 192 77.2598 191.443C76.4383 190.887 75.9414 190.006 75.7691 188.8L77.2598 188.462C77.3658 189.098 77.5645 189.602 77.8561 189.973C78.1476 190.33 78.5053 190.589 78.9293 190.748C79.3666 190.894 79.8304 190.966 80.3207 190.966C81.0494 190.966 81.6258 190.821 82.0498 190.529C82.4739 190.238 82.6859 189.847 82.6859 189.357C82.6859 188.853 82.4805 188.502 82.0697 188.303C81.6722 188.091 81.1223 187.919 80.42 187.786L79.6051 187.647C78.9824 187.541 78.4126 187.376 77.8958 187.15C77.379 186.925 76.9683 186.62 76.6635 186.236C76.3587 185.852 76.2064 185.368 76.2064 184.785C76.2064 183.911 76.5443 183.228 77.22 182.738C77.8958 182.248 78.7902 182.002 79.9033 182.002C81.0031 182.002 81.8908 182.254 82.5666 182.758C83.2556 183.248 83.6995 183.944 83.8983 184.845L82.4275 185.222C82.3082 184.52 82.0233 184.03 81.5728 183.752C81.1223 183.46 80.5658 183.314 79.9033 183.314C79.2407 183.314 78.7173 183.44 78.3331 183.692C77.9488 183.93 77.7567 184.288 77.7567 184.765C77.7567 185.229 77.9356 185.573 78.2933 185.799C78.6643 186.011 79.1546 186.17 79.7641 186.276L80.579 186.415C81.2681 186.534 81.8842 186.7 82.4275 186.912C82.984 187.111 83.4213 187.402 83.7393 187.786C84.0706 188.171 84.2362 188.674 84.2362 189.297C84.2362 190.251 83.8784 190.986 83.1629 191.503C82.4606 192.02 81.5132 192.278 80.3207 192.278ZM86.8865 192V182.281H88.4567V192H86.8865ZM87.6815 180.77C87.337 180.77 87.0455 180.658 86.807 180.432C86.5817 180.207 86.4691 179.922 86.4691 179.578C86.4691 179.22 86.5817 178.928 86.807 178.703C87.0455 178.478 87.337 178.365 87.6815 178.365C88.026 178.365 88.3109 178.478 88.5362 178.703C88.7614 178.928 88.8741 179.22 88.8741 179.578C88.8741 179.922 88.7614 180.207 88.5362 180.432C88.3109 180.658 88.026 180.77 87.6815 180.77ZM91.2814 187.19V186.912C91.2814 185.892 91.4867 185.017 91.8975 184.288C92.3083 183.559 92.8648 182.996 93.5671 182.599C94.2694 182.201 95.0379 182.002 95.8727 182.002C96.893 182.002 97.6747 182.201 98.218 182.599C98.7745 182.983 99.1853 183.414 99.4503 183.891H99.7286V182.281H101.219V194.266C101.219 194.796 101.073 195.213 100.782 195.518C100.49 195.823 100.066 195.975 99.5099 195.975H92.9112V194.584H99.0925C99.4901 194.584 99.6888 194.385 99.6888 193.988V190.291H99.4106C99.2516 190.582 99.0263 190.867 98.7348 191.145C98.4433 191.424 98.0656 191.655 97.6019 191.841C97.1381 192.013 96.5617 192.099 95.8727 192.099C95.0379 192.099 94.2694 191.901 93.5671 191.503C92.8648 191.106 92.3083 190.542 91.8975 189.814C91.4867 189.072 91.2814 188.197 91.2814 187.19ZM96.2901 190.708C97.2971 190.708 98.112 190.39 98.7348 189.754C99.3708 189.118 99.6888 188.243 99.6888 187.13V186.971C99.6888 185.845 99.3708 184.971 98.7348 184.348C98.112 183.712 97.2971 183.394 96.2901 183.394C95.2963 183.394 94.4747 183.712 93.8255 184.348C93.1894 184.971 92.8714 185.845 92.8714 186.971V187.13C92.8714 188.243 93.1894 189.118 93.8255 189.754C94.4747 190.39 95.2963 190.708 96.2901 190.708ZM104.511 192V182.281H106.041V183.93H106.319C106.531 183.467 106.889 183.049 107.393 182.678C107.909 182.294 108.665 182.102 109.659 182.102C110.387 182.102 111.037 182.254 111.606 182.559C112.189 182.864 112.653 183.314 112.998 183.911C113.342 184.507 113.514 185.242 113.514 186.117V192H111.944V186.236C111.944 185.269 111.699 184.566 111.209 184.129C110.732 183.692 110.083 183.473 109.261 183.473C108.32 183.473 107.552 183.778 106.955 184.388C106.372 184.997 106.081 185.905 106.081 187.111V192H104.511ZM119.682 192.278C119.006 192.278 118.39 192.159 117.833 191.92C117.277 191.682 116.839 191.337 116.521 190.887C116.203 190.436 116.044 189.887 116.044 189.237C116.044 188.575 116.203 188.031 116.521 187.607C116.839 187.17 117.277 186.846 117.833 186.634C118.39 186.408 119.012 186.296 119.701 186.296H122.981V185.58C122.981 184.891 122.776 184.348 122.365 183.95C121.967 183.553 121.371 183.354 120.576 183.354C119.794 183.354 119.185 183.546 118.747 183.93C118.31 184.301 118.012 184.805 117.853 185.441L116.382 184.964C116.541 184.421 116.793 183.93 117.137 183.493C117.482 183.043 117.939 182.685 118.509 182.42C119.092 182.142 119.788 182.002 120.596 182.002C121.841 182.002 122.809 182.327 123.498 182.976C124.187 183.612 124.531 184.513 124.531 185.68V190.072C124.531 190.47 124.717 190.668 125.088 190.668H125.982V192H124.611C124.173 192 123.822 191.881 123.557 191.642C123.292 191.39 123.16 191.059 123.16 190.648V190.549H122.921C122.776 190.801 122.577 191.066 122.325 191.344C122.086 191.609 121.755 191.828 121.331 192C120.907 192.186 120.357 192.278 119.682 192.278ZM119.86 190.927C120.788 190.927 121.537 190.655 122.106 190.112C122.689 189.555 122.981 188.78 122.981 187.786V187.568H119.761C119.138 187.568 118.621 187.707 118.211 187.985C117.813 188.25 117.614 188.654 117.614 189.198C117.614 189.741 117.82 190.165 118.231 190.47C118.655 190.774 119.198 190.927 119.86 190.927ZM131.07 192C130.513 192 130.083 191.848 129.778 191.543C129.486 191.238 129.341 190.821 129.341 190.291V183.652H126.419V182.281H129.341V178.822H130.911V182.281H134.091V183.652H130.911V190.052C130.911 190.45 131.103 190.648 131.487 190.648H133.654V192H131.07ZM140.737 192.278C139.756 192.278 138.895 192.073 138.153 191.662C137.411 191.238 136.835 190.648 136.424 189.893C136.013 189.138 135.808 188.263 135.808 187.27V187.031C135.808 186.024 136.013 185.143 136.424 184.388C136.835 183.632 137.404 183.049 138.133 182.639C138.862 182.214 139.697 182.002 140.638 182.002C141.552 182.002 142.36 182.201 143.062 182.599C143.765 182.983 144.315 183.54 144.712 184.268C145.11 184.997 145.308 185.852 145.308 186.832V187.548H137.378C137.418 188.595 137.756 189.416 138.392 190.012C139.028 190.595 139.823 190.887 140.777 190.887C141.611 190.887 142.254 190.695 142.705 190.311C143.155 189.926 143.5 189.469 143.738 188.939L145.09 189.595C144.891 190.006 144.613 190.417 144.255 190.827C143.91 191.238 143.453 191.583 142.884 191.861C142.327 192.139 141.611 192.278 140.737 192.278ZM137.398 186.256H143.718C143.665 185.355 143.354 184.653 142.784 184.149C142.228 183.646 141.512 183.394 140.638 183.394C139.75 183.394 139.021 183.646 138.451 184.149C137.881 184.653 137.53 185.355 137.398 186.256ZM152.161 192.278C151.327 192.278 150.558 192.08 149.856 191.682C149.154 191.284 148.597 190.708 148.186 189.953C147.776 189.198 147.57 188.303 147.57 187.27V187.011C147.57 185.978 147.776 185.09 148.186 184.348C148.597 183.593 149.147 183.016 149.836 182.619C150.538 182.208 151.313 182.002 152.161 182.002C152.837 182.002 153.407 182.095 153.871 182.281C154.348 182.453 154.732 182.678 155.024 182.957C155.315 183.222 155.54 183.506 155.699 183.811H155.978V178.087H157.548V192H156.017V190.39H155.739C155.474 190.88 155.063 191.318 154.507 191.702C153.95 192.086 153.169 192.278 152.161 192.278ZM152.579 190.887C153.586 190.887 154.401 190.569 155.024 189.933C155.66 189.284 155.978 188.383 155.978 187.23V187.051C155.978 185.898 155.66 185.004 155.024 184.368C154.401 183.718 153.586 183.394 152.579 183.394C151.585 183.394 150.764 183.718 150.114 184.368C149.478 185.004 149.16 185.898 149.16 187.051V187.23C149.16 188.383 149.478 189.284 150.114 189.933C150.764 190.569 151.585 190.887 152.579 190.887ZM170.495 192.278C169.488 192.278 168.587 192.099 167.792 191.742C166.997 191.384 166.368 190.847 165.904 190.132C165.453 189.403 165.228 188.495 165.228 187.409V186.991H166.878V187.409C166.878 188.561 167.216 189.423 167.891 189.993C168.567 190.549 169.435 190.827 170.495 190.827C171.582 190.827 172.41 190.582 172.98 190.092C173.549 189.602 173.834 188.986 173.834 188.243C173.834 187.727 173.702 187.316 173.437 187.011C173.185 186.706 172.827 186.461 172.364 186.276C171.9 186.077 171.356 185.905 170.734 185.759L169.7 185.501C168.892 185.289 168.176 185.03 167.554 184.725C166.931 184.421 166.441 184.023 166.083 183.533C165.738 183.029 165.566 182.387 165.566 181.605C165.566 180.823 165.758 180.147 166.142 179.578C166.54 179.008 167.09 178.571 167.792 178.266C168.508 177.961 169.329 177.809 170.257 177.809C171.197 177.809 172.039 177.974 172.781 178.306C173.536 178.624 174.126 179.101 174.55 179.737C174.987 180.359 175.206 181.148 175.206 182.102V182.937H173.556V182.102C173.556 181.426 173.41 180.883 173.119 180.472C172.841 180.061 172.45 179.757 171.946 179.558C171.456 179.359 170.893 179.26 170.257 179.26C169.342 179.26 168.607 179.465 168.05 179.876C167.494 180.273 167.216 180.843 167.216 181.585C167.216 182.075 167.335 182.473 167.573 182.778C167.812 183.082 168.15 183.334 168.587 183.533C169.024 183.718 169.548 183.884 170.157 184.03L171.191 184.288C171.999 184.46 172.721 184.699 173.357 185.004C174.007 185.295 174.523 185.699 174.908 186.216C175.292 186.72 175.484 187.382 175.484 188.204C175.484 189.025 175.279 189.741 174.868 190.35C174.457 190.96 173.874 191.437 173.119 191.781C172.377 192.113 171.502 192.278 170.495 192.278ZM181.83 192.179C181.128 192.179 180.478 192.027 179.882 191.722C179.299 191.417 178.835 190.966 178.491 190.37C178.16 189.761 177.994 189.025 177.994 188.164V182.281H179.564V188.045C179.564 189.012 179.803 189.714 180.28 190.152C180.77 190.589 181.426 190.807 182.247 190.807C183.175 190.807 183.937 190.503 184.533 189.893C185.129 189.284 185.427 188.376 185.427 187.17V182.281H186.998V192H185.467V190.35H185.189C184.977 190.814 184.613 191.238 184.096 191.622C183.579 191.993 182.824 192.179 181.83 192.179ZM190.283 195.975V182.281H191.814V183.891H192.092C192.344 183.4 192.748 182.963 193.304 182.579C193.874 182.195 194.663 182.002 195.67 182.002C196.504 182.002 197.266 182.208 197.955 182.619C198.658 183.016 199.214 183.586 199.625 184.328C200.049 185.07 200.261 185.964 200.261 187.011V187.27C200.261 188.303 200.055 189.198 199.645 189.953C199.234 190.708 198.677 191.284 197.975 191.682C197.286 192.08 196.518 192.278 195.67 192.278C194.994 192.278 194.417 192.186 193.94 192C193.477 191.828 193.099 191.602 192.807 191.324C192.516 191.046 192.291 190.761 192.132 190.47H191.853V195.975H190.283ZM195.252 190.887C196.259 190.887 197.074 190.569 197.697 189.933C198.333 189.284 198.651 188.383 198.651 187.23V187.051C198.651 185.898 198.333 185.004 197.697 184.368C197.074 183.718 196.259 183.394 195.252 183.394C194.258 183.394 193.437 183.718 192.788 184.368C192.152 185.004 191.834 185.898 191.834 187.051V187.23C191.834 188.383 192.152 189.284 192.788 189.933C193.437 190.569 194.258 190.887 195.252 190.887ZM203.074 195.975V182.281H204.605V183.891H204.883C205.135 183.4 205.539 182.963 206.095 182.579C206.665 182.195 207.454 182.002 208.461 182.002C209.295 182.002 210.057 182.208 210.746 182.619C211.449 183.016 212.005 183.586 212.416 184.328C212.84 185.07 213.052 185.964 213.052 187.011V187.27C213.052 188.303 212.847 189.198 212.436 189.953C212.025 190.708 211.469 191.284 210.766 191.682C210.077 192.08 209.309 192.278 208.461 192.278C207.785 192.278 207.209 192.186 206.732 192C206.268 191.828 205.89 191.602 205.599 191.324C205.307 191.046 205.082 190.761 204.923 190.47H204.645V195.975H203.074ZM208.043 190.887C209.05 190.887 209.865 190.569 210.488 189.933C211.124 189.284 211.442 188.383 211.442 187.23V187.051C211.442 185.898 211.124 185.004 210.488 184.368C209.865 183.718 209.05 183.394 208.043 183.394C207.05 183.394 206.228 183.718 205.579 184.368C204.943 185.004 204.625 185.898 204.625 187.051V187.23C204.625 188.383 204.943 189.284 205.579 189.933C206.228 190.569 207.05 190.887 208.043 190.887ZM220.357 192.278C219.377 192.278 218.509 192.073 217.754 191.662C217.012 191.251 216.429 190.675 216.005 189.933C215.594 189.178 215.389 188.29 215.389 187.27V187.011C215.389 186.004 215.594 185.123 216.005 184.368C216.429 183.612 217.012 183.029 217.754 182.619C218.509 182.208 219.377 182.002 220.357 182.002C221.338 182.002 222.199 182.208 222.941 182.619C223.697 183.029 224.28 183.612 224.69 184.368C225.114 185.123 225.326 186.004 225.326 187.011V187.27C225.326 188.29 225.114 189.178 224.69 189.933C224.28 190.675 223.697 191.251 222.941 191.662C222.199 192.073 221.338 192.278 220.357 192.278ZM220.357 190.867C221.391 190.867 222.213 190.542 222.822 189.893C223.445 189.231 223.756 188.343 223.756 187.23V187.051C223.756 185.938 223.445 185.057 222.822 184.407C222.213 183.745 221.391 183.414 220.357 183.414C219.337 183.414 218.516 183.745 217.893 184.407C217.27 185.057 216.959 185.938 216.959 187.051V187.23C216.959 188.343 217.27 189.231 217.893 189.893C218.516 190.542 219.337 190.867 220.357 190.867ZM228.152 192V182.281H229.682V183.473H229.961C230.133 183.049 230.398 182.738 230.756 182.539C231.114 182.34 231.584 182.241 232.167 182.241H233.32V183.672H232.068C231.365 183.672 230.796 183.871 230.358 184.268C229.934 184.653 229.722 185.255 229.722 186.077V192H228.152ZM239.222 192C238.665 192 238.235 191.848 237.93 191.543C237.638 191.238 237.493 190.821 237.493 190.291V183.652H234.571V182.281H237.493V178.822H239.063V182.281H242.243V183.652H239.063V190.052C239.063 190.45 239.255 190.648 239.639 190.648H241.806V192H239.222ZM249.891 192V182.281H251.422V183.493H251.7C251.885 183.149 252.19 182.831 252.614 182.539C253.038 182.248 253.634 182.102 254.403 182.102C255.158 182.102 255.768 182.267 256.232 182.599C256.709 182.93 257.053 183.334 257.265 183.811H257.543C257.769 183.334 258.106 182.93 258.557 182.599C259.021 182.267 259.663 182.102 260.485 182.102C261.134 182.102 261.704 182.234 262.194 182.499C262.685 182.764 263.069 183.149 263.347 183.652C263.639 184.142 263.784 184.732 263.784 185.421V192H262.214V185.56C262.214 184.911 262.022 184.401 261.638 184.03C261.267 183.646 260.743 183.453 260.068 183.453C259.352 183.453 258.762 183.685 258.299 184.149C257.848 184.613 257.623 185.282 257.623 186.157V192H256.053V185.56C256.053 184.911 255.861 184.401 255.476 184.03C255.105 183.646 254.582 183.453 253.906 183.453C253.191 183.453 252.601 183.685 252.137 184.149C251.687 184.613 251.461 185.282 251.461 186.157V192H249.891ZM269.973 192.278C269.297 192.278 268.681 192.159 268.124 191.92C267.568 191.682 267.13 191.337 266.812 190.887C266.494 190.436 266.335 189.887 266.335 189.237C266.335 188.575 266.494 188.031 266.812 187.607C267.13 187.17 267.568 186.846 268.124 186.634C268.681 186.408 269.304 186.296 269.993 186.296H273.272V185.58C273.272 184.891 273.067 184.348 272.656 183.95C272.258 183.553 271.662 183.354 270.867 183.354C270.085 183.354 269.476 183.546 269.039 183.93C268.601 184.301 268.303 184.805 268.144 185.441L266.673 184.964C266.832 184.421 267.084 183.93 267.429 183.493C267.773 183.043 268.23 182.685 268.8 182.42C269.383 182.142 270.079 182.002 270.887 182.002C272.133 182.002 273.1 182.327 273.789 182.976C274.478 183.612 274.822 184.513 274.822 185.68V190.072C274.822 190.47 275.008 190.668 275.379 190.668H276.273V192H274.902C274.465 192 274.113 191.881 273.848 191.642C273.583 191.39 273.451 191.059 273.451 190.648V190.549H273.212C273.067 190.801 272.868 191.066 272.616 191.344C272.378 191.609 272.046 191.828 271.622 192C271.198 192.186 270.648 192.278 269.973 192.278ZM270.152 190.927C271.079 190.927 271.828 190.655 272.398 190.112C272.981 189.555 273.272 188.78 273.272 187.786V187.568H270.052C269.429 187.568 268.913 187.707 268.502 187.985C268.104 188.25 267.906 188.654 267.906 189.198C267.906 189.741 268.111 190.165 268.522 190.47C268.946 190.774 269.489 190.927 270.152 190.927ZM278.424 192V182.281H279.954V183.93H280.232C280.444 183.467 280.802 183.049 281.306 182.678C281.823 182.294 282.578 182.102 283.572 182.102C284.3 182.102 284.95 182.254 285.519 182.559C286.102 182.864 286.566 183.314 286.911 183.911C287.255 184.507 287.427 185.242 287.427 186.117V192H285.857V186.236C285.857 185.269 285.612 184.566 285.122 184.129C284.645 183.692 283.996 183.473 283.174 183.473C282.233 183.473 281.465 183.778 280.868 184.388C280.285 184.997 279.994 185.905 279.994 187.111V192H278.424ZM293.595 192.278C292.919 192.278 292.303 192.159 291.746 191.92C291.19 191.682 290.752 191.337 290.434 190.887C290.116 190.436 289.957 189.887 289.957 189.237C289.957 188.575 290.116 188.031 290.434 187.607C290.752 187.17 291.19 186.846 291.746 186.634C292.303 186.408 292.925 186.296 293.614 186.296H296.894V185.58C296.894 184.891 296.689 184.348 296.278 183.95C295.88 183.553 295.284 183.354 294.489 183.354C293.707 183.354 293.098 183.546 292.66 183.93C292.223 184.301 291.925 184.805 291.766 185.441L290.295 184.964C290.454 184.421 290.706 183.93 291.05 183.493C291.395 183.043 291.852 182.685 292.422 182.42C293.005 182.142 293.701 182.002 294.509 182.002C295.754 182.002 296.722 182.327 297.411 182.976C298.1 183.612 298.444 184.513 298.444 185.68V190.072C298.444 190.47 298.63 190.668 299.001 190.668H299.895V192H298.524C298.086 192 297.735 191.881 297.47 191.642C297.205 191.39 297.073 191.059 297.073 190.648V190.549H296.834C296.689 190.801 296.49 191.066 296.238 191.344C296 191.609 295.668 191.828 295.244 192C294.82 192.186 294.27 192.278 293.595 192.278ZM293.773 190.927C294.701 190.927 295.45 190.655 296.019 190.112C296.602 189.555 296.894 188.78 296.894 187.786V187.568H293.674C293.051 187.568 292.535 187.707 292.124 187.985C291.726 188.25 291.527 188.654 291.527 189.198C291.527 189.741 291.733 190.165 292.144 190.47C292.568 190.774 293.111 190.927 293.773 190.927ZM301.297 187.19V186.912C301.297 185.892 301.502 185.017 301.913 184.288C302.324 183.559 302.88 182.996 303.583 182.599C304.285 182.201 305.053 182.002 305.888 182.002C306.908 182.002 307.69 182.201 308.234 182.599C308.79 182.983 309.201 183.414 309.466 183.891H309.744V182.281H311.235V194.266C311.235 194.796 311.089 195.213 310.797 195.518C310.506 195.823 310.082 195.975 309.525 195.975H302.927V194.584H309.108C309.506 194.584 309.704 194.385 309.704 193.988V190.291H309.426C309.267 190.582 309.042 190.867 308.75 191.145C308.459 191.424 308.081 191.655 307.617 191.841C307.154 192.013 306.577 192.099 305.888 192.099C305.053 192.099 304.285 191.901 303.583 191.503C302.88 191.106 302.324 190.542 301.913 189.814C301.502 189.072 301.297 188.197 301.297 187.19ZM306.306 190.708C307.313 190.708 308.128 190.39 308.75 189.754C309.386 189.118 309.704 188.243 309.704 187.13V186.971C309.704 185.845 309.386 184.971 308.75 184.348C308.128 183.712 307.313 183.394 306.306 183.394C305.312 183.394 304.49 183.712 303.841 184.348C303.205 184.971 302.887 185.845 302.887 186.971V187.13C302.887 188.243 303.205 189.118 303.841 189.754C304.49 190.39 305.312 190.708 306.306 190.708ZM318.978 192.278C317.998 192.278 317.137 192.073 316.395 191.662C315.653 191.238 315.076 190.648 314.665 189.893C314.255 189.138 314.049 188.263 314.049 187.27V187.031C314.049 186.024 314.255 185.143 314.665 184.388C315.076 183.632 315.646 183.049 316.375 182.639C317.103 182.214 317.938 182.002 318.879 182.002C319.793 182.002 320.602 182.201 321.304 182.599C322.006 182.983 322.556 183.54 322.954 184.268C323.351 184.997 323.55 185.852 323.55 186.832V187.548H315.619C315.659 188.595 315.997 189.416 316.633 190.012C317.269 190.595 318.064 190.887 319.018 190.887C319.853 190.887 320.496 190.695 320.946 190.311C321.397 189.926 321.741 189.469 321.98 188.939L323.331 189.595C323.132 190.006 322.854 190.417 322.496 190.827C322.152 191.238 321.695 191.583 321.125 191.861C320.568 192.139 319.853 192.278 318.978 192.278ZM315.639 186.256H321.96C321.907 185.355 321.595 184.653 321.026 184.149C320.469 183.646 319.754 183.394 318.879 183.394C317.991 183.394 317.262 183.646 316.693 184.149C316.123 184.653 315.772 185.355 315.639 186.256ZM326.289 192V182.281H327.819V183.473H328.097C328.27 183.049 328.535 182.738 328.892 182.539C329.25 182.34 329.721 182.241 330.304 182.241H331.456V183.672H330.204C329.502 183.672 328.932 183.871 328.495 184.268C328.071 184.653 327.859 185.255 327.859 186.077V192H326.289Z" fill="white"/>
<mask id="path-3-inside-1_152_576" fill="white">
<path d="M0 0H369V71H0V0Z"/>
</mask>
<path d="M369 70H0V72H369V70Z" fill="#F5FFFA" mask="url(#path-3-inside-1_152_576)"/>
<rect x="0.5" y="0.5" width="368" height="240" stroke="#F5FFFA"/>
</svg>
